<svg width="52" height="71" fill="none" xmlns="http://www.w3.org/2000/svg"><path d="M7.293 70.707a1 1 0 0 0 1.414 0l6.364-6.364a1 1 0 0 0-1.414-1.414L8 68.586l-5.657-5.657A1 1 0 0 0 .93 64.343l6.364 6.364ZM51 2a1 1 0 1 0 0-2v2ZM9 70c0-6.012-.117-11.6-.224-16.767-.106-5.171-.202-9.913-.159-14.254.086-8.706.73-15.67 2.876-21.112 2.12-5.374 5.721-9.3 11.875-11.915C29.58 3.312 38.42 2 51 2V0C38.33 0 29.17 1.313 22.585 4.11 15.942 6.935 11.95 11.258 9.633 17.134c-2.29 5.809-2.929 13.094-3.015 21.826-.043 4.377.053 9.15.16 14.316C6.883 58.444 7 64.011 7 70h2Z" fill="#A1B1C1" fill-opacity=".8"/></svg>