<svg width="62" height="62" viewBox="0 0 62 62" fill="none" xmlns="http://www.w3.org/2000/svg">
<path d="M44.3333 14.3334H27.6667C26.3406 14.3334 25.0688 14.8602 24.1311 15.7978C23.1934 16.7355 22.6667 18.0073 22.6667 19.3334V31C22.6667 32.3261 23.1934 33.5979 24.1311 34.5356C25.0688 35.4733 26.3406 36 27.6667 36H44.3333C45.6594 36 46.9312 35.4733 47.8689 34.5356C48.8065 33.5979 49.3333 32.3261 49.3333 31V19.3334C49.3333 18.0073 48.8065 16.7355 47.8689 15.7978C46.9312 14.8602 45.6594 14.3334 44.3333 14.3334ZM46 31C46 31.4421 45.8244 31.866 45.5118 32.1786C45.1993 32.4911 44.7754 32.6667 44.3333 32.6667H27.6667C27.2246 32.6667 26.8007 32.4911 26.4881 32.1786C26.1756 31.866 26 31.4421 26 31V19.3334C26 18.8913 26.1756 18.4674 26.4881 18.1549C26.8007 17.8423 27.2246 17.6667 27.6667 17.6667H44.3333C44.7754 17.6667 45.1993 17.8423 45.5118 18.1549C45.8244 18.4674 46 18.8913 46 19.3334V31ZM40.1667 24.3334C39.5496 24.3355 38.9555 24.5672 38.5 24.9834C38.1416 24.6576 37.6963 24.443 37.2182 24.3655C36.7402 24.2881 36.2499 24.3512 35.807 24.5471C35.3641 24.7431 34.9876 25.0635 34.7234 25.4693C34.4591 25.8752 34.3185 26.3491 34.3185 26.8334C34.3185 27.3177 34.4591 27.7916 34.7234 28.1974C34.9876 28.6033 35.3641 28.9237 35.807 29.1196C36.2499 29.3156 36.7402 29.3786 37.2182 29.3012C37.6963 29.2238 38.1416 29.0091 38.5 28.6834C38.801 28.9569 39.1641 29.1529 39.558 29.2543C39.9519 29.3558 40.3645 29.3596 40.7602 29.2654C41.1558 29.1713 41.5226 28.982 41.8285 28.7141C42.1345 28.4461 42.3705 28.1076 42.516 27.7278C42.6615 27.348 42.7121 26.9384 42.6636 26.5346C42.615 26.1308 42.4686 25.745 42.2371 25.4106C42.0057 25.0762 41.6961 24.8032 41.3353 24.6155C40.9745 24.4278 40.5734 24.331 40.1667 24.3334V24.3334ZM37.6667 39.3334C37.2246 39.3334 36.8007 39.509 36.4881 39.8215C36.1756 40.1341 36 40.558 36 41V42.6667C36 43.1087 35.8244 43.5327 35.5118 43.8452C35.1993 44.1578 34.7754 44.3334 34.3333 44.3334H17.6667C17.2246 44.3334 16.8007 44.1578 16.4881 43.8452C16.1756 43.5327 16 43.1087 16 42.6667V36H17.6667C18.1087 36 18.5326 35.8244 18.8452 35.5119C19.1577 35.1993 19.3333 34.7754 19.3333 34.3334C19.3333 33.8913 19.1577 33.4674 18.8452 33.1549C18.5326 32.8423 18.1087 32.6667 17.6667 32.6667H16V31C16 30.558 16.1756 30.1341 16.4881 29.8215C16.8007 29.509 17.2246 29.3334 17.6667 29.3334C18.1087 29.3334 18.5326 29.1578 18.8452 28.8452C19.1577 28.5327 19.3333 28.1087 19.3333 27.6667C19.3333 27.2247 19.1577 26.8008 18.8452 26.4882C18.5326 26.1756 18.1087 26 17.6667 26C16.3406 26 15.0688 26.5268 14.1311 27.4645C13.1934 28.4022 12.6667 29.674 12.6667 31V42.6667C12.6667 43.9928 13.1934 45.2646 14.1311 46.2022C15.0688 47.1399 16.3406 47.6667 17.6667 47.6667H34.3333C35.6594 47.6667 36.9312 47.1399 37.8689 46.2022C38.8065 45.2646 39.3333 43.9928 39.3333 42.6667V41C39.3333 40.558 39.1577 40.1341 38.8452 39.8215C38.5326 39.509 38.1087 39.3334 37.6667 39.3334ZM21 41H22.6667C23.1087 41 23.5326 40.8244 23.8452 40.5119C24.1577 40.1993 24.3333 39.7754 24.3333 39.3334C24.3333 38.8913 24.1577 38.4674 23.8452 38.1549C23.5326 37.8423 23.1087 37.6667 22.6667 37.6667H21C20.558 37.6667 20.134 37.8423 19.8215 38.1549C19.5089 38.4674 19.3333 38.8913 19.3333 39.3334C19.3333 39.7754 19.5089 40.1993 19.8215 40.5119C20.134 40.8244 20.558 41 21 41Z" fill="#7D60DA"/>
</svg>
