<svg width="62" height="62" viewBox="0 0 62 62"  xmlns="http://www.w3.org/2000/svg">
<path d="M53.65 34.45C53.3924 34.6485 53.0752 34.7542 52.75 34.75C52.5171 34.75 52.2875 34.6957 52.0792 34.5916C51.8709 34.4875 51.6897 34.3362 51.55 34.15C50.6459 32.9347 49.4691 31.9487 48.1143 31.2713C46.7596 30.5939 45.2647 30.2441 43.75 30.25C43.3522 30.25 42.9707 30.0919 42.6893 29.8106C42.408 29.5293 42.25 29.1478 42.25 28.75C42.25 28.3521 42.408 27.9706 42.6893 27.6893C42.9707 27.408 43.3522 27.25 43.75 27.25C44.6037 27.249 45.4395 27.0053 46.1599 26.5472C46.8803 26.0891 47.4555 25.4356 47.8184 24.6628C48.1813 23.8901 48.3169 23.0301 48.2094 22.1832C48.1018 21.3363 47.7556 20.5374 47.2111 19.8799C46.6667 19.2224 45.9464 18.7333 45.1344 18.4698C44.3224 18.2062 43.4522 18.1791 42.6253 18.3915C41.7985 18.604 41.0491 19.0472 40.4648 19.6696C39.8804 20.2919 39.4851 21.0676 39.325 21.9062C39.2959 22.1067 39.2265 22.2993 39.1209 22.4722C39.0153 22.6452 38.8758 22.7949 38.7108 22.9125C38.5458 23.03 38.3586 23.1129 38.1607 23.1562C37.9627 23.1994 37.7581 23.2021 37.559 23.1641C37.36 23.126 37.1708 23.0481 37.0027 22.9349C36.8346 22.8217 36.6912 22.6757 36.5812 22.5055C36.4711 22.3354 36.3967 22.1448 36.3623 21.9451C36.3279 21.7454 36.3344 21.5408 36.3813 21.3437C36.6038 20.1771 37.1002 19.0801 37.8296 18.1428C38.5589 17.2056 39.5005 16.4549 40.5767 15.9527C41.6528 15.4505 42.8329 15.211 44.0198 15.2539C45.2066 15.2969 46.3663 15.6211 47.4033 16.1998C48.4404 16.7786 49.3252 17.5953 49.9849 18.5829C50.6446 19.5704 51.0603 20.7005 51.1979 21.8801C51.3355 23.0597 51.191 24.2551 50.7763 25.368C50.3616 26.4809 49.6885 27.4793 48.8125 28.2812C50.8512 29.1651 52.6225 30.568 53.95 32.35C54.0682 32.5075 54.1542 32.6869 54.2031 32.8777C54.252 33.0685 54.2628 33.2671 54.2349 33.4621C54.2071 33.6571 54.1411 33.8447 54.0407 34.0142C53.9404 34.1837 53.8076 34.3318 53.65 34.45V34.45ZM43.15 46.8437C43.3193 47.2025 43.3415 47.6132 43.2119 47.9882C43.0822 48.3631 42.811 48.6724 42.4563 48.85C42.2493 48.9421 42.0264 48.9931 41.8 49C41.5189 48.998 41.2439 48.9181 41.0056 48.7691C40.7673 48.6202 40.5749 48.408 40.45 48.1562C39.585 46.3868 38.2407 44.8959 36.57 43.853C34.8994 42.8101 32.9695 42.2572 31 42.2572C29.0305 42.2572 27.1006 42.8101 25.43 43.853C23.7593 44.8959 22.415 46.3868 21.55 48.1562C21.4639 48.3336 21.3437 48.4923 21.1963 48.6231C21.0488 48.754 20.877 48.8546 20.6907 48.919C20.5044 48.9834 20.3072 49.0105 20.1104 48.9987C19.9136 48.9868 19.721 48.9363 19.5438 48.85C19.189 48.6724 18.9178 48.3631 18.7882 47.9882C18.6585 47.6132 18.6807 47.2025 18.85 46.8437C20.244 43.9733 22.6085 41.6885 25.525 40.3937C24.0322 39.2495 22.9353 37.6663 22.3886 35.8666C21.8419 34.0669 21.8727 32.1412 22.4769 30.3599C23.081 28.5787 24.228 27.0314 25.7567 25.9357C27.2855 24.8399 29.1191 24.2506 31 24.2506C32.8809 24.2506 34.7146 24.8399 36.2433 25.9357C37.772 27.0314 38.919 28.5787 39.5232 30.3599C40.1273 32.1412 40.1581 34.0669 39.6114 35.8666C39.0647 37.6663 37.9678 39.2495 36.475 40.3937C39.3915 41.6885 41.756 43.9733 43.15 46.8437V46.8437ZM31 39.25C32.1867 39.25 33.3467 38.8981 34.3334 38.2388C35.3201 37.5795 36.0892 36.6424 36.5433 35.5461C36.9974 34.4497 37.1162 33.2433 36.8847 32.0794C36.6532 30.9155 36.0818 29.8464 35.2426 29.0073C34.4035 28.1682 33.3344 27.5968 32.1705 27.3652C31.0067 27.1337 29.8003 27.2526 28.7039 27.7067C27.6075 28.1608 26.6705 28.9298 26.0112 29.9165C25.3519 30.9032 25 32.0633 25 33.25C25.005 34.8397 25.6387 36.363 26.7628 37.4871C27.887 38.6113 29.4102 39.245 31 39.25V39.25ZM19.75 28.75C19.75 28.3521 19.592 27.9706 19.3107 27.6893C19.0294 27.408 18.6478 27.25 18.25 27.25C17.3963 27.249 16.5605 27.0053 15.8401 26.5472C15.1197 26.0891 14.5445 25.4356 14.1816 24.6628C13.8187 23.8901 13.6831 23.0301 13.7907 22.1832C13.8982 21.3363 14.2444 20.5374 14.7889 19.8799C15.3333 19.2224 16.0536 18.7333 16.8656 18.4698C17.6776 18.2062 18.5478 18.1791 19.3747 18.3915C20.2015 18.604 20.9509 19.0472 21.5353 19.6696C22.1196 20.2919 22.5149 21.0676 22.675 21.9062C22.7041 22.1067 22.7735 22.2993 22.8791 22.4722C22.9847 22.6452 23.1242 22.7949 23.2892 22.9125C23.4543 23.03 23.6414 23.1129 23.8393 23.1562C24.0373 23.1994 24.242 23.2021 24.441 23.1641C24.64 23.126 24.8292 23.0481 24.9973 22.9349C25.1654 22.8217 25.3088 22.6757 25.4188 22.5055C25.5289 22.3354 25.6034 22.1448 25.6377 21.9451C25.6721 21.7454 25.6656 21.5408 25.6188 21.3437C25.3962 20.1771 24.8998 19.0801 24.1705 18.1428C23.4411 17.2056 22.4995 16.4549 21.4234 15.9527C20.3472 15.4505 19.1671 15.211 17.9803 15.2539C16.7934 15.2969 15.6338 15.6211 14.5967 16.1998C13.5596 16.7786 12.6749 17.5953 12.0152 18.5829C11.3554 19.5704 10.9397 20.7005 10.8021 21.8801C10.6645 23.0597 10.809 24.2551 11.2237 25.368C11.6384 26.4809 12.3115 27.4793 13.1875 28.2812C11.1488 29.1651 9.37748 30.568 8.05001 32.35C7.81131 32.6682 7.70882 33.0683 7.76508 33.4621C7.82134 33.8559 8.03175 34.2113 8.35001 34.45C8.60765 34.6485 8.92478 34.7542 9.25001 34.75C9.48287 34.75 9.71254 34.6957 9.92083 34.5916C10.1291 34.4875 10.3103 34.3362 10.45 34.15C11.3541 32.9347 12.5309 31.9487 13.8857 31.2713C15.2404 30.5939 16.7353 30.2441 18.25 30.25C18.6478 30.25 19.0294 30.0919 19.3107 29.8106C19.592 29.5293 19.75 29.1478 19.75 28.75Z" />
</svg>
