<svg width="1440" height="312" viewBox="0 0 1440 312" fill="none" xmlns="http://www.w3.org/2000/svg">
<g clip-path="url(#clip0_12916_68874)">
<path d="M221.738 214.653L221.079 212.105C220.495 209.835 218.719 208.05 216.452 207.443L214 206.784L216.452 206.126C218.719 205.519 220.495 203.734 221.079 201.463L221.738 198.916L222.397 201.463C222.981 203.734 224.757 205.519 227.024 206.126L229.476 206.784L227.024 207.443C224.757 208.05 222.981 209.835 222.397 212.105L221.738 214.653ZM218.47 206.784C219.864 207.524 221.003 208.668 221.738 210.066C222.472 208.674 223.612 207.53 225.005 206.784C223.612 206.045 222.472 204.901 221.738 203.503C221.003 204.901 219.864 206.045 218.47 206.784Z" fill="#244161"/>
<path d="M301.453 88.8224L300.875 86.575C300.36 84.576 298.793 82.9988 296.798 82.4615L294.635 81.8838L296.798 81.3061C298.799 80.7688 300.36 79.1973 300.875 77.1926L301.453 74.9452L302.032 77.1926C302.546 79.1915 304.114 80.7688 306.109 81.3061L308.272 81.8838L306.109 82.4615C304.108 82.9988 302.546 84.5703 302.032 86.575L301.453 88.8224ZM298.573 81.8838C299.799 82.5366 300.806 83.5477 301.453 84.7725C302.101 83.5419 303.107 82.5366 304.333 81.8838C303.107 81.231 302.101 80.2199 301.453 78.9951C300.806 80.2199 299.799 81.2252 298.573 81.8838Z" fill="#244161"/>
<path d="M644.489 111.296L643.91 109.049C643.396 107.05 641.829 105.473 639.833 104.936L637.67 104.358L639.833 103.78C641.834 103.243 643.396 101.671 643.91 99.6666L644.489 97.4192L645.067 99.6666C645.582 101.666 647.149 103.243 649.144 103.78L651.307 104.358L649.144 104.936C647.143 105.473 645.582 107.044 645.067 109.049L644.489 111.296ZM641.609 104.358C642.835 105.011 643.841 106.022 644.489 107.246C645.136 106.016 646.143 105.011 647.369 104.358C646.143 103.705 645.136 102.694 644.489 101.463C643.841 102.694 642.835 103.705 641.609 104.358Z" fill="#244161"/>
<path d="M431.419 59.0691L430.841 56.8217C430.326 54.8227 428.759 53.2455 426.763 52.7082L424.6 52.1305L426.763 51.5528C428.764 51.0155 430.326 49.444 430.841 47.4393L431.419 45.1919L431.997 47.4393C432.512 49.4382 434.079 51.0155 436.074 51.5528L438.237 52.1305L436.074 52.7082C434.073 53.2455 432.512 54.817 431.997 56.8217L431.419 59.0691ZM428.539 52.1247C429.765 52.7776 430.771 53.7886 431.419 55.0134C432.067 53.7828 433.073 52.7776 434.299 52.1247C433.073 51.4719 432.067 50.4608 431.419 49.236C430.771 50.4666 429.765 51.4719 428.539 52.1247Z" fill="#244161"/>
<path d="M669.646 110.441L668.339 105.38C667.176 100.874 663.66 97.3325 659.161 96.1308L654.291 94.8309L659.161 93.531C663.66 92.3293 667.176 88.782 668.339 84.2814L669.646 79.2205L670.953 84.2814C672.115 88.782 675.631 92.3293 680.131 93.531L685 94.8309L680.131 96.1308C675.631 97.3325 672.115 100.88 670.953 105.38L669.646 110.441ZM663.157 94.8251C665.921 96.2983 668.183 98.5688 669.64 101.33C671.097 98.5688 673.364 96.2983 676.123 94.8251C673.358 93.3519 671.097 91.0814 669.64 88.3198C668.183 91.0871 665.921 93.3576 663.157 94.8251Z" fill="#244161"/>
<path d="M351.883 237L350.576 231.939C349.413 227.438 345.897 223.891 341.398 222.689L336.528 221.39L341.398 220.09C345.897 218.888 349.413 215.341 350.576 210.84L351.883 205.779L353.19 210.84C354.352 215.341 357.868 218.888 362.368 220.09L367.237 221.39L362.368 222.689C357.868 223.891 354.352 227.438 353.19 231.939L351.883 237ZM345.4 221.39C348.164 222.863 350.425 225.133 351.883 227.895C353.34 225.133 355.607 222.863 358.366 221.39C355.601 219.916 353.34 217.646 351.883 214.884C350.42 217.646 348.158 219.916 345.4 221.39Z" fill="#244161"/>
<path d="M315.223 77.4237L314.315 73.9168C313.511 70.7913 311.071 68.3359 307.948 67.4982L304.576 66.5969L307.954 65.6956C311.077 64.8579 313.511 62.4025 314.321 59.277L315.229 55.7701L316.137 59.277C316.947 62.4025 319.381 64.8579 322.504 65.6956L325.882 66.5969L322.504 67.4982C319.381 68.3359 316.947 70.7913 316.137 73.9168L315.223 77.4237ZM310.73 66.5969C312.644 67.6195 314.217 69.1909 315.229 71.109C316.241 69.1909 317.808 67.6195 319.728 66.5969C317.814 65.5743 316.241 64.0029 315.229 62.0848C314.211 64.0029 312.644 65.5801 310.73 66.5969Z" fill="#244161"/>
<path d="M475.371 47.3699L474.434 43.7475C473.601 40.5237 471.08 37.9817 467.859 37.1209L464.371 36.1907L467.859 35.2606C471.08 34.3998 473.601 31.8577 474.434 28.634L475.371 25L476.308 28.6224C477.141 31.8462 479.662 34.3882 482.883 35.249L486.371 36.1792L482.883 37.1093C479.662 37.9702 477.141 40.5122 476.308 43.736L475.371 47.3699ZM470.727 36.185C472.705 37.2364 474.324 38.8656 475.371 40.8473C476.418 38.8656 478.037 37.2422 480.015 36.185C478.037 35.1335 476.418 33.5043 475.371 31.5226C474.324 33.5043 472.705 35.1277 470.727 36.185Z" fill="#244161"/>
<path d="M1384.17 207.935C1370.45 207.935 1357.9 213.031 1348.18 221.468C1344.12 220.503 1339.9 219.974 1335.55 219.974C1330.83 219.974 1326.25 220.587 1321.87 221.719C1311.75 211.202 1297.72 204.687 1282.2 204.687C1258.54 204.687 1238.33 219.835 1230.2 241.202C1226.35 240.338 1222.36 239.874 1218.27 239.874C1214 239.874 1209.85 240.385 1205.86 241.313C1200.17 235.354 1193.23 230.676 1185.48 227.715C1178.98 204.436 1158.56 187.227 1134.08 186.225C1123.97 171.624 1107.37 162.092 1088.6 162.092C1061.55 162.092 1039.01 181.881 1033.87 208.139C1027.92 205.903 1021.48 204.687 1014.76 204.687C1011.19 204.687 1007.7 205.049 1004.3 205.708C997.453 200.797 989.484 197.419 980.864 196.082C970.728 185.399 956.585 178.762 940.926 178.762C921.385 178.762 904.2 189.093 894.227 204.733C872.304 205.401 853.575 219.055 845.028 238.482C841.111 237.591 837.049 237.099 832.879 237.099C826.552 237.099 820.469 238.194 814.801 240.199C804.584 228.625 789.845 221.366 773.454 221.366C755.818 221.366 740.105 229.785 729.878 242.91C724.454 239.447 718.407 236.923 711.953 235.54C703.794 214.228 683.622 199.145 660.002 199.145C645.804 199.145 632.853 204.603 623.006 213.579C618.98 212.632 614.783 212.112 610.478 212.112C597.093 212.112 584.809 216.957 575.197 225.042C569.086 222.675 562.47 221.375 555.557 221.375C550.502 221.375 545.61 222.081 540.962 223.371C535.105 217.078 527.884 212.14 519.77 209.096C512.956 189.901 496.457 175.504 476.357 172.135C466.121 159.242 450.543 151 433.097 151C415.542 151 399.882 159.344 389.647 172.376C376.334 173.082 364.249 178.586 355.007 187.246C348.779 184.777 342.019 183.412 334.951 183.412C332.623 183.412 330.321 183.58 328.065 183.867C317.866 170.093 301.764 161.192 283.623 161.192C262.033 161.192 243.314 173.806 234.026 192.249C217.176 194.504 202.689 204.482 194.034 218.628C185.45 223.631 178.284 230.889 173.302 239.642C169.114 238.612 164.755 238.055 160.269 238.055C158.554 238.055 156.866 238.148 155.196 238.306C145.16 223.074 128.192 213.059 108.949 213.059C88.9209 213.059 71.366 223.909 61.5099 240.208C59.6416 240.014 57.7462 239.911 55.8238 239.911C24.9921 239.911 5.00679e-06 265.613 5.00679e-06 297.32C5.00679e-06 301.868 -1.50204e-05 306 2.5034e-05 310.5V317.5H1438.5L1440 265.344C1439.99 233.637 1415 207.935 1384.17 207.935Z" fill="url(#paint0_linear_12916_68874)" fill-opacity="0.05"/>
<path d="M90.2226 291.172C88.9582 298.894 90.6565 306.686 93.3444 313.935C94.7657 317.765 96.618 321.447 98.7757 324.908C100.825 328.195 103.122 332.163 106.384 334.373C106.766 334.631 107.383 334.222 107.131 333.761C105.654 331.084 103.459 328.764 101.722 326.246C99.3243 322.766 97.3239 319.002 95.5504 315.169C92.1215 307.762 90.0338 299.449 91.2379 291.28C91.3386 290.618 90.3291 290.523 90.2226 291.172Z" fill="#294A6D"/>
<path d="M162.45 184.028C157.585 192.484 154.749 201.719 153.629 211.407C153.065 216.291 153.073 221.233 153.555 226.124C153.951 230.12 154.66 234.878 156.858 238.321C157.082 238.669 157.634 238.381 157.567 238.003C156.838 233.922 155.461 230.06 154.956 225.904C154.377 221.138 154.526 216.308 154.989 211.546C155.899 202.17 158.452 192.579 162.834 184.231C162.95 184.012 162.574 183.813 162.45 184.028Z" fill="#294A6D"/>
<path d="M147.531 202.283C143.945 215.984 142.567 234.584 151.842 246.468C152.717 247.588 154.463 246.159 153.542 245.075C148.632 239.317 147.335 231.45 146.866 224.115C146.409 216.963 146.882 209.484 148.406 202.486C148.515 201.986 147.664 201.785 147.531 202.283Z" fill="#294A6D"/>
<path d="M138.884 213.136C137.307 221.422 136.612 229.189 138.113 237.56C138.755 241.142 139.867 244.635 141.259 247.988C142.346 250.609 143.991 255.15 146.832 256.239C147.168 256.367 147.433 256.078 147.417 255.758C147.29 252.824 144.441 249.802 143.212 247.127C141.616 243.651 140.6 239.942 139.875 236.197C138.448 228.803 138.386 220.627 139.56 213.205C139.633 212.766 138.966 212.709 138.884 213.136Z" fill="#294A6D"/>
<path d="M131.14 218.523C129.086 227.605 127.425 236.19 128.48 245.572C128.959 249.841 130.121 253.987 131.817 257.923C133.716 262.329 136.502 265.495 139.652 269.014C140.05 269.46 140.766 268.882 140.37 268.429C128.595 254.866 128.744 235.269 131.913 218.603C132.011 218.101 131.248 218.04 131.14 218.523Z" fill="#294A6D"/>
<path d="M120.267 239.433C120.262 246.331 120.481 252.958 122.463 259.638C124.589 266.813 128.029 273.361 132.845 279.076C133.66 280.045 135.111 278.851 134.356 277.84C126.038 266.721 121.913 253.243 121.283 239.408C121.257 238.825 120.268 238.852 120.267 239.433Z" fill="#294A6D"/>
<path d="M97.1886 278.636C95.3275 287.545 95.7489 296.314 98.0191 305.129C99.1756 309.629 100.96 313.969 102.961 318.152C104.585 321.545 106.725 325.972 109.731 328.31C110.238 328.703 111.014 328.09 110.717 327.505C108.939 324.03 106.243 321.03 104.434 317.5C102.381 313.505 100.973 309.186 99.8834 304.839C97.7796 296.461 96.5862 287.306 97.9656 278.719C98.0456 278.211 97.2899 278.151 97.1886 278.636Z" fill="#294A6D"/>
<path d="M102.57 271.024C102.489 278.763 103.482 286.305 105.615 293.758C106.634 297.31 108 300.736 109.656 304.038C111.03 306.78 112.798 310.406 115.431 312.063C116.222 312.561 117.183 311.805 116.834 310.916C115.735 308.116 113.355 305.71 111.867 303.062C110.108 299.93 108.793 296.558 107.656 293.162C105.274 286.057 104.254 278.431 103.489 271.004C103.434 270.478 102.574 270.493 102.57 271.024Z" fill="#294A6D"/>
<path d="M110.283 263.404C110.576 275.338 112.632 289.101 120.647 298.482C121.612 299.612 123.421 298.12 122.423 297.031C114.443 288.295 111.788 274.863 111.128 263.385C111.101 262.898 110.27 262.921 110.283 263.404Z" fill="#294A6D"/>
<path d="M112.476 252.334C113.105 259.622 114.496 266.74 116.792 273.698C118.375 278.492 121.4 288.244 126.98 289.974C127.901 290.259 129.05 289.077 128.202 288.267C126.164 286.318 124.425 284.704 122.972 282.202C121.099 278.983 119.74 275.457 118.514 271.949C116.296 265.6 114.242 258.88 113.176 252.228C113.099 251.767 112.436 251.883 112.476 252.334Z" fill="#294A6D"/>
<path d="M171.114 179.369C167.085 185.698 165.077 192.729 163.905 200.097C163.25 204.22 163.127 208.403 163.045 212.571C162.957 216.968 163.707 221.238 163.763 225.624C163.776 226.682 165.41 226.875 165.412 225.795C165.42 222.27 164.551 218.824 164.524 215.296C164.491 211.042 164.706 206.739 165.179 202.512C166.056 194.678 167.945 186.777 171.832 179.878C172.104 179.4 171.425 178.883 171.114 179.369Z" fill="#294A6D"/>
<path d="M180.509 182.212C178.108 187.89 175.368 193.233 173.699 199.213C172.487 203.554 171.005 210.574 173.501 214.697C173.701 215.028 174.174 214.99 174.246 214.579C174.7 212.02 174.194 209.241 174.412 206.603C174.656 203.68 175.351 200.779 176.145 197.97C177.619 192.759 179.48 187.605 181.126 182.445C181.254 182.043 180.673 181.82 180.509 182.212Z" fill="#294A6D"/>
<path d="M195.86 214.114C184.73 223.875 172.767 235.743 157.523 238.035C156.79 238.144 156.969 239.285 157.698 239.173C173.157 236.785 185.308 224.877 196.275 214.627C196.585 214.342 196.181 213.833 195.86 214.114Z" fill="#294A6D"/>
<path d="M196.996 200.63C194.103 203.39 191.072 205.998 187.926 208.471C185.308 210.528 177.898 216.152 174.237 213.843C172.313 212.632 171.794 216.532 174.04 215.791C175.695 215.247 177.562 215.453 179.266 214.865C181.564 214.073 183.64 212.93 185.671 211.606C190.104 208.714 193.68 204.842 197.38 201.102C197.651 200.832 197.281 200.357 196.996 200.63Z" fill="#294A6D"/>
<path d="M193.299 211.668C186.4 219.285 175.466 225.169 165.144 225.096C163.667 225.085 163.409 227.188 164.91 227.411C176.019 229.07 187.33 220.027 193.916 212.108C194.231 211.727 193.619 211.313 193.299 211.668Z" fill="#294A6D"/>
<path d="M186.514 234.566C181.812 237.846 176.81 240.79 171.64 243.268C166.076 245.932 159.698 248.218 153.737 245.54C152.436 244.955 151.629 247.076 152.961 247.628C158.282 249.83 164.776 247.708 169.824 245.624C176.075 243.048 181.633 239.196 187.147 235.346C187.677 234.977 187.041 234.198 186.514 234.566Z" fill="#294A6D"/>
<path d="M194.59 238.2C181.73 249.214 164.874 258.993 147.315 255.404C146.726 255.281 146.646 256.204 147.221 256.33C151.615 257.299 155.423 258.047 159.955 257.753C164.307 257.473 168.534 256.277 172.571 254.679C181.418 251.184 188.188 245.138 195.084 238.807C195.452 238.473 194.976 237.873 194.59 238.2Z" fill="#294A6D"/>
<path d="M182.475 256.108C170.18 262.401 156.484 265.43 142.74 263.651C141.477 263.486 141.324 265.368 142.542 265.599C149.353 266.891 156.138 266.741 162.928 265.404C170.19 263.975 176.529 260.691 182.889 257.05C183.451 256.726 183.071 255.801 182.475 256.108Z" fill="#294A6D"/>
<path d="M164.734 297.894C158.054 303.29 149.601 306.745 141.405 309.057C137.35 310.199 133.207 311.012 129.002 311.331C124.683 311.658 120.475 310.669 116.227 310.84C115.522 310.869 115.54 311.878 116.097 312.113C119.397 313.496 123.69 313.157 127.201 313.038C132.087 312.875 136.953 312.077 141.693 310.927C150.481 308.792 158.481 304.49 165.225 298.501C165.603 298.169 165.128 297.575 164.734 297.894Z" fill="#294A6D"/>
<path d="M164.403 290.038C157.919 292.906 151.244 295.491 144.326 297.09C140.828 297.899 137.259 298.342 133.675 298.519C130.282 298.686 126.538 297.494 123.262 298.087C122.511 298.223 122.114 299.344 122.863 299.785C125.415 301.302 129.041 301.059 131.929 300.973C135.88 300.857 139.74 300.31 143.594 299.438C151.079 297.745 158.169 294.759 164.775 290.886C165.283 290.597 164.964 289.793 164.403 290.038Z" fill="#294A6D"/>
<path d="M166.759 276.826C156.507 281.925 143.532 286.24 132.03 283.558C130.609 283.224 130.344 285.558 131.798 285.849C143.774 288.225 156.723 283.218 167.106 277.615C167.583 277.355 167.256 276.58 166.759 276.826Z" fill="#294A6D"/>
<path d="M175.404 269.524C169.366 271.788 162.87 273.159 156.565 274.432C149.803 275.794 143.62 276.237 137.031 274.239C136.114 273.963 134.951 275.138 135.809 275.949C140.051 279.955 149.227 278.016 154.233 277.123C161.675 275.798 168.846 273.33 175.69 270.175C176.105 269.982 175.826 269.367 175.404 269.524Z" fill="#294A6D"/>
<path d="M153.736 312.366C142.779 318.2 127.55 321.831 115.697 316.679C114.452 316.137 113.735 318.095 114.963 318.65C127.066 324.134 143.627 320.307 154.472 313.568C155.15 313.146 154.434 311.992 153.736 312.366Z" fill="#294A6D"/>
<path d="M155.935 189.317C151.454 197.956 149.028 207.281 148.331 216.985C147.976 221.886 148.191 226.829 148.884 231.691C149.45 235.665 150.361 240.413 152.704 243.751C152.934 244.076 153.499 243.82 153.413 243.432C152.506 239.396 150.964 235.59 150.282 231.472C149.495 226.737 149.43 221.904 149.687 217.125C150.193 207.702 152.324 198.01 156.344 189.471C156.468 189.209 156.063 189.071 155.935 189.317Z" fill="#244161"/>
<path d="M141.822 208.254C138.847 222.039 138.296 240.664 148.025 252.082C148.951 253.169 150.688 251.725 149.725 250.693C144.562 245.144 142.912 237.37 142.122 230.043C141.354 222.908 141.497 215.419 142.716 208.344C142.819 207.764 141.943 207.697 141.822 208.254Z" fill="#244161"/>
<path d="M133.673 219.37C132.481 227.536 132.095 235.148 133.836 243.278C134.619 246.924 135.875 250.464 137.432 253.846C138.655 256.502 140.538 261.088 143.461 262.097C143.784 262.207 144.082 261.948 144.05 261.615C143.795 258.871 141.161 256.345 139.875 253.953C138.024 250.506 136.748 246.759 135.802 242.976C133.936 235.502 133.485 227.065 134.356 219.44C134.402 219 133.737 218.936 133.673 219.37Z" fill="#244161"/>
<path d="M126.303 223.576C124.675 232.568 123.388 241.056 124.731 250.215C125.366 254.539 126.682 258.729 128.555 262.671C130.661 267.098 133.607 270.202 136.977 273.655C137.392 274.08 138.111 273.505 137.695 273.07C125.342 260.024 124.631 240.463 127.077 223.659C127.154 223.151 126.394 223.086 126.303 223.576Z" fill="#244161"/>
<path d="M115.503 245.515C115.805 252.581 116.497 259.187 118.707 265.948C120.956 272.817 124.884 279.144 129.749 284.431C130.595 285.353 132.068 284.182 131.259 283.195C122.463 272.431 117.748 259.17 116.514 245.358C116.453 244.684 115.475 244.868 115.503 245.515Z" fill="#244161"/>
<path d="M93.1234 283.396C91.7053 292.028 92.2966 300.627 94.8495 309.02C96.2872 313.747 98.2667 318.253 100.585 322.608C102.37 325.96 104.649 330.254 107.78 332.479C108.278 332.834 109.101 332.266 108.766 331.675C106.834 328.281 104.02 325.406 102.058 321.96C99.9762 318.297 98.4519 314.32 97.194 310.305C94.5358 301.841 92.8702 292.347 93.9037 283.478C93.9569 282.971 93.2026 282.901 93.1234 283.396Z" fill="#244161"/>
<path d="M97.6687 279.83C97.9101 287.21 99.1596 294.332 101.375 301.381C102.578 305.2 104.204 308.864 106.148 312.358C107.655 315.07 109.519 318.586 112.253 320.149C113.018 320.587 114.061 319.921 113.655 319.001C112.542 316.487 110.326 314.423 108.811 312.106C106.693 308.867 105.105 305.27 103.721 301.667C101.03 294.66 99.6716 287.087 98.5839 279.685C98.4949 279.074 97.6525 279.246 97.6687 279.83Z" fill="#244161"/>
<path d="M106.3 270.849C107.103 282.699 109.769 296.34 118.137 305.313C119.15 306.399 120.951 304.902 119.913 303.862C111.55 295.469 108.303 282.173 107.143 270.718C107.089 270.161 106.264 270.302 106.3 270.849Z" fill="#244161"/>
<path d="M108.843 258.596C109.784 265.836 111.473 272.886 114.061 279.726C115.838 284.424 119.296 294.091 124.918 295.572C126.127 295.889 126.875 294.493 125.928 293.662C120.957 289.302 118.203 284.156 115.744 277.991C113.25 271.733 110.896 265.102 109.543 258.49C109.451 258.039 108.784 258.138 108.843 258.596Z" fill="#244161"/>
<path d="M164.42 184.227C156.253 198.405 155.973 217.103 160.961 232.437C161.297 233.465 162.789 232.776 162.48 231.766C157.829 216.669 157.911 198.947 165.19 184.637C165.414 184.193 164.667 183.795 164.42 184.227Z" fill="#244161"/>
<path d="M173.918 186.659C171.4 193.434 168.638 199.828 167.199 206.969C166.488 210.495 165.429 218.279 169.558 220.252C169.808 220.373 170.154 220.101 170.079 219.823C169.46 217.485 168.547 215.719 168.578 213.158C168.608 210.543 169.092 207.934 169.607 205.377C170.861 199.159 172.855 193.007 174.534 186.889C174.649 186.489 174.072 186.252 173.918 186.659Z" fill="#244161"/>
<path d="M198.307 209.416C187.177 219.177 175.214 231.045 159.97 233.337C159.237 233.447 159.416 234.587 160.148 234.475C175.607 232.086 187.758 220.178 198.725 209.929C199.031 209.641 198.628 209.136 198.307 209.416Z" fill="#244161"/>
<path d="M197.986 205.14C191.087 212.756 180.153 218.64 169.831 218.568C168.354 218.557 168.095 220.66 169.597 220.883C180.706 222.542 192.017 213.499 198.603 205.58C198.921 205.198 198.309 204.784 197.986 205.14Z" fill="#244161"/>
<path d="M188.965 229.867C184.263 233.151 179.264 236.091 174.094 238.569C168.53 241.233 162.152 243.519 156.187 240.841C154.886 240.256 154.08 242.378 155.412 242.93C160.732 245.131 167.227 243.01 172.275 240.926C178.525 238.349 184.083 234.497 189.597 230.647C190.127 230.279 189.492 229.499 188.965 229.867Z" fill="#244161"/>
<path d="M197.038 233.505C184.178 244.519 167.322 254.299 149.759 250.71C149.171 250.591 149.09 251.51 149.666 251.636C154.059 252.605 157.871 253.352 162.399 253.059C166.751 252.779 170.978 251.583 175.016 249.986C183.863 246.49 190.632 240.445 197.529 234.113C197.899 233.775 197.423 233.175 197.038 233.505Z" fill="#244161"/>
<path d="M184.925 251.41C172.631 257.702 158.934 260.732 145.191 258.952C143.927 258.788 143.774 260.67 144.993 260.9C151.803 262.193 158.588 262.043 165.375 260.707C172.637 259.277 178.976 255.993 185.337 252.355C185.898 252.028 185.518 251.103 184.925 251.41Z" fill="#244161"/>
<path d="M167.184 293.195C160.504 298.591 152.049 302.051 143.856 304.358C139.801 305.501 135.658 306.313 131.452 306.632C127.133 306.96 122.925 305.968 118.677 306.142C117.973 306.171 117.991 307.18 118.547 307.414C121.848 308.798 126.141 308.458 129.655 308.339C134.537 308.174 139.407 307.378 144.147 306.228C152.936 304.096 160.935 299.791 167.678 293.802C168.053 293.471 167.579 292.877 167.184 293.195Z" fill="#244161"/>
<path d="M166.854 285.343C160.37 288.21 153.695 290.795 146.777 292.395C143.279 293.204 139.707 293.647 136.127 293.827C132.733 293.994 128.99 292.802 125.714 293.395C124.963 293.531 124.566 294.652 125.315 295.093C127.867 296.61 131.492 296.367 134.381 296.281C138.332 296.165 142.192 295.618 146.046 294.746C153.531 293.053 160.62 290.064 167.227 286.194C167.73 285.899 167.411 285.095 166.854 285.343Z" fill="#244161"/>
<path d="M169.206 272.129C158.951 277.228 145.979 281.542 134.477 278.86C133.053 278.526 132.792 280.861 134.245 281.151C146.221 283.527 159.17 278.52 169.553 272.917C170.033 272.657 169.703 271.882 169.206 272.129Z" fill="#244161"/>
<path d="M177.854 264.826C171.817 267.089 165.321 268.46 159.012 269.734C152.251 271.096 146.067 271.539 139.478 269.544C138.562 269.268 137.398 270.44 138.257 271.254C142.499 275.26 151.671 273.322 156.681 272.428C164.123 271.104 171.29 268.636 178.137 265.477C178.556 265.287 178.277 264.669 177.854 264.826Z" fill="#244161"/>
<path d="M156.187 307.667C145.23 313.505 129.997 317.137 118.144 311.981C116.899 311.44 116.182 313.397 117.41 313.953C129.517 319.439 146.071 315.61 156.919 308.87C157.597 308.445 156.885 307.293 156.187 307.667Z" fill="#244161"/>
<path d="M196.04 196.512C193.522 198.669 190.695 200.486 187.987 202.397C184.755 204.684 181.721 207.108 177.837 208.152C176.869 208.412 177.072 209.95 178.08 209.725C181.509 208.964 184.246 207.117 187.083 205.126C190.593 202.663 193.894 200.401 196.428 196.875C196.604 196.633 196.272 196.314 196.04 196.512Z" fill="#244161"/>
<path d="M186.595 188.691C184.021 192.171 181.301 195.349 179.596 199.382C178.381 202.249 176.737 205.744 177.601 208.922C177.837 209.783 179.157 209.63 178.999 208.703C178.481 205.634 179.859 202.681 181.049 199.931C182.689 196.138 184.961 192.585 187.189 189.119C187.442 188.719 186.875 188.307 186.595 188.691Z" fill="#244161"/>
<path d="M192.069 191.801C170.943 212.023 156.772 238.501 141.739 263.303C126.326 288.722 111.178 315.737 104.034 344.862C103.91 345.369 104.629 345.673 104.811 345.155C109.64 331.358 114.896 317.77 121.233 304.596C127.677 291.186 135.015 278.238 142.676 265.502C150.053 253.238 157.375 240.911 165.003 228.807C173.109 215.943 181.837 203.269 192.722 192.601C193.183 192.14 192.55 191.34 192.069 191.801Z" fill="#294A6D"/>
<path d="M733.463 114.663C734.144 112.333 736.563 111.06 738.86 111.816L749.885 115.44C734.958 107.065 751.331 85.5443 751.331 85.5443C742.563 84.3956 737.629 80.4985 735.047 77.4529C733.893 76.0941 734.845 74.0067 736.623 74.0193C741.235 74.0478 748.256 73.0857 751.939 69.8428C753.448 68.5216 755.016 68.0431 756.498 68.0229C755 66.4257 753.833 64.3689 754.342 62.0238L756.488 62.4943C755.921 65.1 759.091 67.6843 761.109 68.9464C761.952 67.5393 763.601 64.5308 764.972 60.7039C763.725 58.0998 761.006 53.9092 758.941 53.5814L759.3 51.4162C762.022 51.8673 764.523 55.4323 765.903 57.7962C766.711 54.8707 767.219 51.6307 767.064 48.3536C766.258 48.6308 764.96 48.8983 763.327 48.6203C761.731 48.3647 759.837 47.5861 757.778 45.8113L759.207 44.1512C763.377 47.7471 766.507 46.251 766.84 46.0733C766.197 41.7319 764.22 37.4392 760.001 33.8338L761.429 32.1615C768.016 37.7946 769.666 44.8513 769.206 51.4112C769.595 51.5859 771.609 52.3089 772.716 50.1394L774.671 51.1353C773.376 53.6829 771.177 54.049 769.557 53.7948C769.347 53.7573 769.16 53.7063 768.973 53.6552C767.994 60.5869 764.956 66.6631 763.368 69.4353C771.8 69.6093 778.451 65.7129 783.179 57.8274C781.984 56.8387 777.105 52.3746 779.313 47.0428L781.345 47.8752C779.883 51.4005 783.02 54.7099 784.284 55.8541C788.065 48.5724 788.934 40.9725 788.942 40.8985L791.125 41.1341C791.101 41.3561 789.322 56.2883 780.088 65.1693C780.405 65.5687 782.892 68.4357 786.739 66.1646L787.848 68.0529C785.983 69.1485 784.267 69.3654 782.807 69.1269C780.803 68.7957 779.266 67.6052 778.452 66.6201C776.256 68.3836 773.674 69.8006 770.681 70.6639L773.5 70.656C774.027 70.6516 774.284 71.3118 773.886 71.6646C771.968 73.3393 768.013 76.781 764.649 79.8103C760.011 83.9883 759.731 100.738 759.731 100.738C781.293 101.809 828.611 120.442 828.611 120.442C828.529 121.857 828.331 123.155 828.03 124.373C838.429 128.668 846.783 138.128 855.118 145.221C855.722 145.74 856.339 146.258 856.956 146.776C858.971 147.082 860.995 147.314 863.015 147.497C869.396 148.053 875.743 147.974 882.073 147.602C884.025 140.298 889.032 133.697 889.032 133.697C880.265 132.548 875.33 128.651 872.748 125.605C871.594 124.246 872.546 122.159 874.325 122.172C878.936 122.2 885.957 121.238 889.64 117.995C891.149 116.674 892.717 116.195 894.199 116.175C892.702 114.578 891.534 112.521 892.043 110.176L894.19 110.647C893.622 113.252 896.793 115.849 898.811 117.099C899.653 115.692 901.302 112.683 902.673 108.856C901.426 106.252 898.708 102.074 896.642 101.734L897.001 99.5685C899.723 100.02 902.224 103.585 903.604 105.949C904.412 103.023 904.921 99.783 904.765 96.5059C903.959 96.7832 902.662 97.0506 901.028 96.7726C899.432 96.5171 897.538 95.7385 895.479 93.9636L896.908 92.3036C901.079 95.9116 904.208 94.4033 904.542 94.2256C903.898 89.8842 901.921 85.5916 897.702 81.9862L899.13 80.3139C905.717 85.9469 907.368 93.0037 906.907 99.5635C907.296 99.7383 909.31 100.461 910.417 98.2917L912.372 99.2876C911.077 101.835 908.878 102.201 907.258 101.947C907.048 101.91 906.861 101.859 906.675 101.808C905.695 108.739 902.657 114.815 901.069 117.588C909.501 117.762 916.152 113.865 920.88 105.98C919.686 104.991 914.806 100.527 917.014 95.1952L919.046 96.0275C917.585 99.5528 920.721 102.862 921.985 104.006C925.766 96.7247 926.635 89.1249 926.644 89.0509L928.827 89.2864C928.802 89.5084 927.024 104.441 917.79 113.322C918.106 113.721 920.593 116.588 924.441 114.329L925.55 116.217C923.685 117.313 921.969 117.53 920.509 117.291C918.505 116.96 916.968 115.77 916.154 114.785C913.958 116.548 911.376 117.965 908.383 118.828L911.202 118.821C911.741 118.815 911.986 119.476 911.588 119.829C909.67 121.504 905.715 124.946 902.351 127.975C898.846 131.134 897.832 141.452 897.548 146.322C901.987 145.894 906.439 145.478 910.897 145.172C926.617 144.111 941.851 146.241 957.196 149.517C959.417 149.995 961.651 150.486 963.872 150.964C981.473 150.904 999.082 151.861 1016.57 153.817C1014.24 144.126 1023.92 131.383 1023.92 131.383C1015.16 130.234 1010.22 126.337 1007.64 123.291C1006.48 121.932 1007.44 119.845 1009.22 119.857C1013.83 119.886 1020.85 118.924 1024.53 115.681C1026.04 114.36 1027.61 113.881 1029.09 113.861C1027.59 112.264 1026.42 110.207 1026.93 107.862L1029.08 108.332C1028.51 110.938 1031.68 113.522 1033.7 114.785C1034.54 113.378 1036.19 110.369 1037.55 106.543C1036.29 103.939 1033.59 99.7604 1031.52 99.4203L1031.88 97.2551C1034.6 97.7062 1037.09 101.26 1038.47 103.624C1039.28 100.698 1039.79 97.458 1039.63 94.1932C1038.81 94.4711 1037.53 94.7257 1035.91 94.4592C1034.31 94.2036 1032.42 93.425 1030.36 91.6502L1031.79 89.9901C1035.92 93.5636 1039.04 92.1048 1039.41 91.9129C1038.76 87.5715 1036.8 83.2781 1032.57 79.6612L1034 77.9889C1040.58 83.6219 1042.23 90.6787 1041.77 97.2385C1042.16 97.4133 1044.18 98.1363 1045.28 95.9667L1047.24 96.9627C1045.94 99.5103 1043.74 99.8764 1042.12 99.6221C1041.91 99.5847 1041.73 99.5336 1041.54 99.4826C1040.57 106.414 1037.52 112.49 1035.93 115.263C1044.37 115.437 1051.02 111.54 1055.75 103.655C1054.55 102.666 1049.67 98.202 1051.88 92.8702L1053.91 93.7025C1052.45 97.2278 1055.59 100.537 1056.85 101.681C1060.63 94.3997 1061.5 86.7999 1061.51 86.7259L1063.69 86.9614C1063.67 87.1835 1061.89 102.116 1052.66 110.997C1052.97 111.396 1055.46 114.263 1059.31 111.992L1060.41 113.88C1058.55 114.976 1056.83 115.193 1055.37 114.954C1053.37 114.623 1051.83 113.433 1051.02 112.447C1048.82 114.211 1046.24 115.628 1043.25 116.491L1046.07 116.483C1046.61 116.478 1046.85 117.139 1046.45 117.492C1044.53 119.167 1040.58 122.608 1037.22 125.638C1032.58 129.816 1032.3 146.566 1032.3 146.566C1039.42 146.922 1049.34 149.185 1059.44 152.062C1072.94 149.26 1086.33 146.035 1100.2 145.568C1114.82 145.083 1129.42 147.014 1143.63 150.377C1149.58 151.791 1155.47 153.429 1161.32 155.228C1168.63 156.15 1175.9 157.553 1183.17 159.336C1185.47 159.896 1187.77 160.505 1190.06 161.115C1209.68 159.362 1229.27 160.222 1247.27 168.893C1248.67 166.585 1252.39 164.934 1256.52 170.947C1259.59 175.401 1266.39 176.02 1271.86 175.682C1273.7 172.197 1277.44 166.622 1282.8 165.948C1282.8 165.948 1283.95 159.043 1285.75 157.817C1287.53 156.591 1300.15 145.808 1306.53 149.11C1312.92 152.413 1319.1 160.495 1317.69 163.037C1316.29 165.59 1308.3 159.176 1308.3 159.176C1308.3 159.176 1311.41 167.992 1306.89 172.151C1306.89 172.151 1308.13 178.691 1304.25 183.269C1304.46 186.555 1303.99 189.842 1303.99 189.842C1304.75 190.266 1305.16 191.384 1305.31 192.969C1315.14 183.516 1327.72 175.42 1340.6 177.875C1362.65 182.081 1359.64 199.153 1348.69 204.083C1341.94 207.115 1336.57 212.51 1333.85 219.402C1329.21 231.157 1320.88 245.615 1308.19 244.425C1305.85 244.198 1302.87 243.859 1299.45 243.422L1309.4 256.851L1332.93 260.719L1332.34 264.331L1306.77 260.134L1306.51 260.332L1306.32 260.061L1259.72 252.422L1259.35 252.528L1259.09 252.31L1194.77 241.758C1182.11 239.684 1173.5 227.688 1175.58 215.02C1176.76 207.832 1181.32 201.525 1187.78 198.154L1187.99 198.044L1189.69 201.286L1189.48 201.396C1184.03 204.233 1180.19 209.556 1179.19 215.619C1177.43 226.295 1184.7 236.403 1195.37 238.158L1210.74 240.685L1224.46 231.888C1218.82 230.947 1215.35 230.366 1215.35 230.366C1203.94 228.492 1196.35 217.385 1198.98 205.936C1201.21 196.251 1210.41 189.555 1220.3 190.409C1227.82 191.062 1233.9 195.681 1236.84 201.919C1236.84 201.919 1237.36 203.276 1239.73 206.063C1242.57 202.67 1246.56 198.957 1250.92 195.236C1246.8 193.464 1242.83 190.2 1239.96 187.256C1239.81 187.363 1239.61 187.41 1239.4 187.324C1220.06 179.265 1200.76 170.629 1181.05 163.302C1172.64 164.34 1164.31 165.718 1156.17 166.999C1140.99 169.402 1125.66 171.545 1110.24 170.823C1107.05 170.667 1103.87 170.388 1100.7 170.011C1099.75 174.072 1097.7 177.114 1095.25 179.37L1096.25 179.389C1094.9 184.6 1101.2 188.348 1107.1 195.993C1111.21 201.297 1106.02 216.024 1102.47 224.531C1101.89 225.911 1099.83 225.461 1099.89 223.962L1100.49 206.128C1100.52 205.034 1099.92 204.013 1098.92 203.541C1096.13 202.199 1093.7 200.824 1091.56 199.458C1091.55 203.762 1089.33 209.916 1087.66 213.907C1087.29 214.785 1085.98 214.502 1086.01 213.544L1086.39 202.182C1086.41 201.482 1086.02 200.842 1085.39 200.533C1074.72 195.407 1072.25 189.744 1071.71 186.843C1051.26 188.298 1035.96 182.47 1025.95 176.534C1025.6 180.047 1025.83 184.78 1028.42 188.904C1028.72 189.378 1028.6 189.997 1028.17 190.352L1026.91 191.389C1026.4 191.822 1025.62 191.706 1025.26 191.137C1023.45 188.343 1018.95 180.389 1020.93 173.255C1019.58 172.287 1018.36 171.349 1017.31 170.487C1016.83 170.501 1016.35 170.527 1015.89 170.541C1014.14 170.6 1012.4 170.647 1010.65 170.682C1009.56 178.588 1011.38 188.32 1013.05 194.922C1013.52 196.772 1011.04 197.877 1009.97 196.293C1004.28 187.791 1003.46 178.359 1004.14 170.782C991.511 170.924 978.865 170.59 966.266 169.774C965.69 175.127 963.338 178.946 960.385 181.658L961.379 181.677C960.035 186.888 966.334 190.637 972.234 198.281C976.339 203.585 971.153 218.312 967.599 226.819C967.026 228.2 964.966 227.749 965.018 226.25L965.619 208.416C965.657 207.323 965.05 206.302 964.055 205.829C961.26 204.487 958.83 203.113 956.695 201.747C956.687 206.05 954.463 212.204 952.794 216.195C952.426 217.073 951.11 216.79 951.144 215.832L951.524 204.471C951.547 203.771 951.157 203.13 950.527 202.821C939.848 197.695 937.379 192.032 936.84 189.132C916.397 190.586 901.095 184.758 891.084 178.823C890.737 182.336 890.961 187.068 893.553 191.192C893.849 191.666 893.736 192.285 893.302 192.64L892.047 193.678C891.532 194.111 890.753 193.994 890.39 193.426C888.582 190.632 884.087 182.677 886.061 175.543C880.114 171.297 877.085 167.712 877.085 167.712C873.806 176.082 876.112 189.037 878.18 197.223C878.649 199.073 876.172 200.178 875.105 198.593C866.301 185.408 869.119 169.989 871.222 162.751C871.903 160.421 874.322 159.147 876.619 159.904L887.644 163.528C886.455 162.857 885.481 162.089 884.663 161.276C884.539 161.246 884.403 161.217 884.279 161.187C878.761 159.847 873.292 158.26 867.897 156.46C867.418 156.45 866.952 156.451 866.473 156.428C856.269 156.131 845.888 155.083 835.76 153.041C837.128 159.635 832.931 171.39 829.909 178.642C829.335 180.022 827.275 179.571 827.328 178.073L827.929 160.238C827.967 159.145 827.359 158.124 826.365 157.652C823.569 156.31 821.14 154.935 819.005 153.569C818.997 157.873 816.772 164.027 815.104 168.017C814.735 168.896 813.42 168.613 813.453 167.654L813.834 156.293C813.857 155.593 813.466 154.953 812.836 154.644C802.158 149.518 799.689 143.855 799.15 140.954C778.707 142.409 763.405 136.58 753.393 130.645C753.047 134.158 753.27 138.891 755.863 143.015C756.159 143.489 756.046 144.108 755.612 144.463L754.357 145.5C753.841 145.933 753.062 145.817 752.7 145.248C750.892 142.454 746.396 134.499 748.37 127.366C742.424 123.12 739.395 119.535 739.395 119.535C736.116 127.905 738.421 140.859 740.49 149.045C740.959 150.895 738.482 152 737.414 150.416C728.53 137.333 731.348 121.902 733.463 114.663ZM963.656 152.178C962.994 152.177 962.332 152.177 961.67 152.176C948.913 152.277 936.174 153.149 923.439 154.094C931.172 156.268 939.048 158.814 945.908 161.171C952.973 160.121 960.031 158.936 967.098 157.922C972.195 157.201 977.279 156.676 982.347 156.312C977.792 155.299 973.225 154.3 968.67 153.287C967.007 152.913 965.332 152.551 963.656 152.178ZM881.755 156.532C878.938 156.589 876.133 156.633 873.312 156.616C875.538 157.18 877.755 157.365 880.143 157.552C880.82 157.601 881.499 157.674 882.164 157.736C882.007 157.34 881.875 156.93 881.755 156.532ZM829.733 126.584C829.051 126.217 828.36 125.912 827.657 125.619C826.686 128.701 825.067 131.144 823.125 133.065C828.239 136.425 833.526 139.604 839.16 141.955C844.129 144.036 849.344 145.453 854.63 146.388C846.573 139.439 839.139 131.547 829.733 126.584ZM839.229 143.226C847.627 147.46 856.29 151.164 865.166 154.281C863.847 153.483 862.574 152.621 861.336 151.733C859.663 150.525 858.036 149.254 856.443 147.919C853.03 147.396 849.657 146.686 846.343 145.741C843.902 145.041 841.538 144.19 839.229 143.226ZM871.736 149.138C867.393 149.083 863.051 148.807 858.742 148.259C862.179 151.025 865.826 153.583 869.848 155.372C873.713 155.429 877.598 155.4 881.491 155.308C881.144 153.231 881.294 151.053 881.752 148.894C878.415 149.078 875.086 149.187 871.736 149.138ZM919.109 146.02C911.857 146.136 904.638 146.84 897.432 147.554C897.392 148.39 897.383 148.893 897.383 148.893C903.394 149.188 911.406 150.857 919.829 153.103C932.43 152.165 944.787 151.253 956.581 151.034C957.169 151.026 957.745 151.019 958.333 151.011C945.416 148.215 932.375 145.818 919.109 146.02ZM969.492 152.188C975.275 153.451 981.059 154.74 986.843 156.028C994.74 155.606 1002.66 155.563 1010.66 155.81C1012.87 155.872 1015.07 155.923 1017.25 155.938C1017.12 155.651 1017 155.363 1016.89 155.075C1001.16 153.304 985.328 152.335 969.492 152.188ZM1092.5 163.032C1095.33 162.411 1098.16 161.801 1100.99 161.254C1116.36 158.3 1132 156.46 1147.67 156.481C1152.99 156.483 1158.25 156.77 1163.49 157.266C1162.45 156.943 1161.43 156.62 1160.4 156.296C1149.95 154.958 1139.41 154.593 1128.82 155.69C1115.88 157.027 1103.14 159.75 1090.35 162.243C1091.1 162.508 1091.81 162.775 1092.5 163.032ZM1006.07 160.316C1006.82 158.117 1009.16 156.922 1011.39 157.658L1022.42 161.281C1020.38 160.143 1018.95 158.75 1017.96 157.211C1017.39 157.206 1016.82 157.212 1016.24 157.195C1007.92 156.978 999.699 156.841 991.473 157.073C996.066 158.095 1000.66 159.118 1005.26 160.14C1005.53 160.186 1005.8 160.246 1006.07 160.316ZM1151.37 153.654C1136.51 149.579 1121.17 146.818 1105.72 146.723C1090.77 146.638 1076.38 149.696 1061.84 152.788C1071.33 155.577 1080.76 158.798 1088.01 161.391C1099.05 159.3 1110.05 157.053 1121.17 155.424C1132.34 153.78 1143.41 153.589 1154.43 154.528C1153.42 154.24 1152.4 153.941 1151.37 153.654ZM1169.57 157.95C1170.89 158.122 1172.21 158.283 1173.54 158.48C1171.76 158.124 1169.98 157.78 1168.2 157.474C1168.66 157.632 1169.11 157.791 1169.57 157.95ZM1175.61 160.033C1177.48 160.702 1179.35 161.372 1181.21 162.067C1182.2 161.951 1183.18 161.836 1184.17 161.72C1181.34 161.103 1178.48 160.537 1175.61 160.033ZM1193.35 162.074C1199.87 163.898 1206.36 165.883 1212.83 167.905C1213.92 168.238 1214.99 168.584 1216.07 168.916C1226.35 171.552 1236.76 173.419 1247.38 172.59C1246.98 171.987 1246.73 171.51 1246.67 171.219C1246.6 170.868 1246.63 170.461 1246.72 170.039C1229.94 161.975 1211.67 160.748 1193.35 162.074ZM1245.31 235.315L1260.26 247.672L1282.43 241.084C1270.54 239.335 1257.06 237.219 1245.31 235.315ZM1303.11 255.861L1293.32 242.643C1293.16 242.615 1292.99 242.6 1292.81 242.573L1267.66 250.049L1303.11 255.861ZM1217.11 241.756L1253.41 247.718L1236.74 233.935C1234.66 233.595 1232.68 233.275 1230.83 232.972L1217.11 241.756ZM1262.33 185.867C1262.54 185.696 1262.77 185.524 1262.98 185.353C1256.87 183.114 1250.94 177.298 1248.2 173.758C1241.24 174.386 1234.34 173.846 1227.51 172.677C1231.34 174.023 1235.12 175.495 1238.79 177.194C1240.55 176.864 1242.83 177.744 1245.26 181.276C1248.67 186.201 1256.66 186.424 1262.33 185.867ZM1238.31 185.606C1236.66 183.722 1235.62 182.161 1235.49 181.519C1235.26 180.416 1235.98 178.783 1237.3 177.84C1230.35 174.728 1223.07 172.406 1215.8 170.109C1212.6 169.291 1209.43 168.399 1206.27 167.493C1200.1 165.712 1193.96 164.014 1187.78 162.551C1186.41 162.688 1185.04 162.837 1183.66 162.986C1202.12 169.953 1220.22 178.031 1238.31 185.606ZM1101.79 168.958C1118.11 170.795 1134.4 169.102 1150.56 166.645C1159.69 165.26 1169.06 163.654 1178.51 162.424C1175.28 161.24 1172.04 160.106 1168.8 159.01C1165.83 158.621 1162.86 158.294 1159.84 158.092C1143.6 157.023 1127.26 158.191 1111.21 160.704C1105.75 161.556 1100.33 162.712 1094.92 163.917C1098.8 165.358 1101.14 166.284 1101.14 166.284C1101.09 167.169 1100.98 168.009 1100.84 168.826C1101.15 168.858 1101.47 168.914 1101.79 168.958ZM1015.83 169.367C1013.19 167.06 1011.86 165.466 1011.86 165.466C1011.36 166.719 1011.01 168.087 1010.76 169.511C1012.44 169.467 1014.15 169.423 1015.83 169.367ZM1004.17 169.628C1004.53 166.457 1005.14 163.678 1005.73 161.487C999.362 160.084 992.983 158.669 986.617 157.266C981.481 157.512 976.355 157.928 971.182 158.605C963.562 159.612 955.981 160.875 948.383 162.04C958.77 165.662 966.276 168.621 966.276 168.621C966.277 168.633 966.277 168.633 966.278 168.646C978.875 169.437 991.521 169.771 1004.17 169.628ZM882.866 159.131C881.894 159.062 880.933 158.98 879.971 158.886C881.067 159.181 882.149 159.477 883.242 159.736C883.11 159.547 882.988 159.345 882.866 159.131ZM864.053 155.225C849.937 150.226 836.338 143.716 823.517 135.949C824.234 140.066 829.474 143.738 834.463 150.182C834.885 150.735 835.192 151.405 835.428 152.139C844.723 153.946 854.312 154.877 864.053 155.225Z" fill="#244161"/>
</g>
<defs>
<linearGradient id="paint0_linear_12916_68874" x1="1440" y1="278" x2="3.51898e-05" y2="269.5" gradientUnits="userSpaceOnUse">
<stop stop-color="#A1B1C1" stop-opacity="0"/>
<stop offset="0.207444" stop-color="#A1B1C1" stop-opacity="0.928879"/>
<stop offset="0.889189" stop-color="#A1B1C1"/>
<stop offset="1" stop-color="#A1B1C1" stop-opacity="0"/>
</linearGradient>
<clipPath id="clip0_12916_68874">
<rect width="1440" height="312" fill="white"/>
</clipPath>
</defs>
</svg>
