<svg width="45" height="66" fill="none" xmlns="http://www.w3.org/2000/svg"><path d="M44.76 58.65a1 1 0 0 0-.11-1.41l-6.835-5.854a1 1 0 1 0-1.3 1.519l6.075 5.204-5.204 6.076a1 1 0 0 0 1.519 1.3l5.855-6.834ZM3 1a1 1 0 1 0-2 0h2Zm40.923 56.003c-11.714.905-20.05-.384-25.986-3.18-5.902-2.782-9.512-7.09-11.726-12.422-2.229-5.368-3.045-11.782-3.291-18.737C2.673 15.686 3 8.344 3 1H1C1 8.209.673 15.725.92 22.734c.25 7.032 1.077 13.733 3.444 19.433 2.382 5.737 6.319 10.448 12.72 13.465 6.368 3 15.09 4.285 26.993 3.365l-.154-1.994Z" fill="#A1B1C1" fill-opacity=".8"/></svg>