<svg width="210" height="130" fill="none" xmlns="http://www.w3.org/2000/svg"><path fill-rule="evenodd" clip-rule="evenodd" d="M10.12 22.037a3.312 3.312 0 0 1 3.309 3.315v34.225a3.312 3.312 0 0 1-3.308 3.314 3.312 3.312 0 0 1-3.309-3.314V25.352a3.312 3.312 0 0 1 3.309-3.315Z" fill="#8A6FE1"/><path d="M12.65 103.942C5.665 103.942 0 98.267 0 91.266V63.38c0-7 5.664-12.676 12.65-12.676 6.987 0 12.651 5.676 12.651 12.676v27.887c0 7-5.664 12.676-12.65 12.676Z" fill="url(#a)"/><path fill-rule="evenodd" clip-rule="evenodd" d="M199.88 22.037a3.311 3.311 0 0 1 3.308 3.315v34.225a3.311 3.311 0 0 1-3.308 3.314 3.311 3.311 0 0 1-3.308-3.314V25.352a3.311 3.311 0 0 1 3.308-3.315Z" fill="#8A6FE1"/><path d="M197.349 103.942c-6.986 0-12.65-5.675-12.65-12.676V63.38c0-7 5.664-12.676 12.65-12.676 6.987 0 12.651 5.676 12.651 12.676v27.887c0 7-5.664 12.676-12.651 12.676Z" fill="url(#b)"/><path fill-rule="evenodd" clip-rule="evenodd" d="M194.819 89.998v-31.69C194.819 26.107 154.606 0 105 0S15.18 26.106 15.18 58.309v31.69c0 21.702 17.558 39.295 39.217 39.295h101.205c21.659 0 39.217-17.593 39.217-39.296Z" fill="url(#c)"/><path fill-rule="evenodd" clip-rule="evenodd" d="M170.717 74.55V59.334c0-15.968-29.154-28.912-65.117-28.912-35.963 0-65.118 12.944-65.118 28.912V74.55c0 7.564 6.12 13.695 13.668 13.695H157.05c7.549 0 13.668-6.131 13.668-13.695Z" fill="#fff"/><path fill-rule="evenodd" clip-rule="evenodd" d="M170.717 74.55V59.334c0-15.968-29.154-28.912-65.117-28.912-35.963 0-65.118 12.944-65.118 28.912V74.55c0 7.564 6.12 13.695 13.668 13.695H157.05c7.549 0 13.668-6.131 13.668-13.695Z" fill="url(#d)"/><path d="M40.482 76.055c.038.38.102.794.195 1.233 1.426 4.569 10.34 8.52 14.986 8.908h101.205c8.855 0 8.855-2.535 13.916-10.14-1.012 11.154-9.699 13.097-13.916 12.675H55.663c-10.132 0-14.046-7-14.986-11.443a4.126 4.126 0 0 1-.195-1.233Z" fill="#C0CDE8"/><path d="M49.624 129.279c-16.446 0-31.429-18.232-33.185-29.848 6.325 7.605 26.798 22.461 33.185 23.218h109.172c11.177 0 24.616-13.063 34.737-23.204-3.309 23.204-29.668 30.592-34.991 29.834H49.624Z" fill="#6249B0"/><path d="M41.747 53.239c13.915-27.887 107.53-32.957 127.771 0-54.398-36.76-107.53-16.479-127.771 0Z" fill="#C0CDE8"/><path d="M161.337 17.816c-.493 1.31-6.192.368-12.729-2.103-6.537-2.472-11.437-5.537-10.943-6.847.493-1.31 6.192-.369 12.729 2.103 6.537 2.471 11.436 5.537 10.943 6.847ZM207.825 62.696c-.902.698-3.046-.571-4.789-2.834-1.743-2.263-2.425-4.663-1.523-5.36.902-.698 3.046.57 4.789 2.834 1.744 2.263 2.425 4.663 1.523 5.36ZM8.48 54.63c.843.769-.03 3.106-1.951 5.22-1.921 2.113-4.161 3.203-5.004 2.435-.842-.769.032-3.105 1.953-5.22 1.92-2.113 4.16-3.203 5.003-2.435Z" fill="#fff" fill-opacity=".59"/><path d="M111.54 98.69h-11.388c-2.858 0-5.48 2.532-3.879 4.9.758 1.12 1.94 2.313 3.777 3.447 3.357 2.073 8.192 2.049 11.593 0 1.448-.873 2.624-2.132 3.478-3.491 1.52-2.419-.723-4.857-3.581-4.857Z" fill="#fff"/><defs><linearGradient id="a" x1="195" y1="40.416" x2="21.189" y2="64.991" gradientUnits="userSpaceOnUse"><stop stop-color="#896EE0"/><stop offset=".802" stop-color="#7154D0"/></linearGradient><linearGradient id="b" x1="85" y1="60.624" x2="98.31" y2="130.604" gradientUnits="userSpaceOnUse"><stop stop-color="#826AD2"/><stop offset="1" stop-color="#9E87EA"/></linearGradient><linearGradient id="c" x1="180.25" y1="4.311" x2="92.139" y2="163.774" gradientUnits="userSpaceOnUse"><stop stop-color="#9F88EA"/><stop offset="1" stop-color="#7D60DA"/></linearGradient><linearGradient id="d" x1="138.75" y1="3.695" x2="27.986" y2="121.723" gradientUnits="userSpaceOnUse"><stop stop-color="#fff"/><stop offset="1" stop-color="#DBE3FF"/></linearGradient></defs></svg>