<svg width="549" height="505" viewBox="0 0 549 505" fill="none" xmlns="http://www.w3.org/2000/svg">
<g clip-path="url(#clip0_12901_65501)">
<path d="M382.032 293.271C383.683 296.934 385.895 300.293 388.667 303.171C390.992 305.598 393.742 307.678 396.702 309.211C410.868 309.005 424.368 302.754 430.141 288.574C434.782 277.15 431.807 263.068 422.923 254.533C414.961 246.888 404.12 244.9 393.562 246.785C390.643 247.295 387.771 247.582 384.945 247.645C379.17 257.621 376.794 269.554 378.426 280.917C379.048 285.185 380.22 289.393 382.032 293.271Z" fill="url(#paint0_linear_12901_65501)"/>
<path d="M320.702 232.858C321.582 246.584 327.216 259.734 335.238 270.938C347.32 287.846 364.429 303.91 385.388 308.153C389.109 308.9 392.922 309.289 396.702 309.211C393.733 307.651 390.992 305.598 388.667 303.171C385.922 300.284 383.702 296.898 382.032 293.271C377.697 292.845 373.412 291.568 369.527 289.682C362.69 286.38 356.836 281.234 351.886 275.463C338.357 259.626 331.431 238.431 332.915 217.666C330.669 217.121 328.284 217.248 326.234 218.309C321.351 220.866 320.348 227.397 320.702 232.858Z" fill="#6249B0"/>
<path d="M332.915 217.666C331.431 238.431 338.357 259.626 351.886 275.463C356.836 281.234 362.69 286.38 369.527 289.682C373.448 291.586 377.697 292.845 382.032 293.271C380.211 289.366 379.039 285.158 378.426 280.917C376.785 269.527 379.17 257.621 384.945 247.645C377.286 247.773 369.918 246.047 362.778 242.187C357.459 239.311 352.739 235.612 348.327 231.573C344.381 227.948 341.9 222.948 337.546 219.814C336.202 218.824 334.578 218.075 332.915 217.666Z" fill="url(#paint1_linear_12901_65501)"/>
<path d="M345.541 230.425C356.98 242.087 369.128 246.509 381.861 248.055C377.425 253.895 375.268 263.847 375.503 271.135C360.741 265.872 349.145 247.522 345.541 230.425Z" fill="url(#paint2_linear_12901_65501)"/>
<path d="M440 257.5C440 343.38 370.156 413 284 413C197.844 413 128 343.38 128 257.5C128 171.62 197.844 102 284 102C370.156 102 440 171.62 440 257.5Z" fill="#A1B1C1" fill-opacity="0.1"/>
<path fill-rule="evenodd" clip-rule="evenodd" d="M157.148 76.7026C159.117 76.7026 160.713 78.2989 160.713 80.268V117.08C160.713 119.049 159.117 120.645 157.148 120.645C155.179 120.645 153.582 119.049 153.582 117.08V80.268C153.582 78.2989 155.179 76.7026 157.148 76.7026Z" fill="#8A6FE1"/>
<path d="M159.874 164.799C152.345 164.799 146.24 158.695 146.24 151.165L146.24 121.17C146.24 113.64 152.345 107.536 159.874 107.536C167.404 107.536 173.508 113.64 173.508 121.17L173.508 151.165C173.508 158.695 167.404 164.799 159.874 164.799Z" fill="url(#paint3_linear_12901_65501)"/>
<path fill-rule="evenodd" clip-rule="evenodd" d="M361.657 76.7026C363.626 76.7026 365.223 78.2989 365.223 80.268V117.08C365.223 119.049 363.626 120.645 361.657 120.645C359.688 120.645 358.092 119.049 358.092 117.08V80.268C358.092 78.2989 359.688 76.7026 361.657 76.7026Z" fill="#8A6FE1"/>
<path d="M358.93 164.799C351.401 164.799 345.296 158.695 345.296 151.165L345.296 121.17C345.296 113.64 351.401 107.536 358.93 107.536C366.46 107.536 372.564 113.64 372.564 121.17L372.564 151.165C372.564 158.695 366.46 164.799 358.93 164.799Z" fill="url(#paint4_linear_12901_65501)"/>
<path fill-rule="evenodd" clip-rule="evenodd" d="M356.204 149.801C356.204 138.649 356.204 126.869 356.204 115.716C356.204 81.079 312.864 53 259.402 53C205.941 53 162.601 81.079 162.601 115.716C162.601 126.869 162.601 138.649 162.601 149.801C162.601 173.144 181.524 192.066 204.866 192.066H313.938C337.281 192.066 356.204 173.144 356.204 149.801Z" fill="url(#paint5_linear_12901_65501)"/>
<path fill-rule="evenodd" clip-rule="evenodd" d="M330.228 133.185C330.228 127.912 330.228 122.092 330.228 116.819C330.228 99.6441 298.807 85.7214 260.048 85.7214C221.29 85.7214 189.869 99.6441 189.869 116.819C189.869 122.092 189.869 127.912 189.869 133.185C189.869 141.321 196.464 147.916 204.599 147.916H315.497C323.633 147.916 330.228 141.321 330.228 133.185Z" fill="white"/>
<path fill-rule="evenodd" clip-rule="evenodd" d="M330.228 133.185C330.228 127.912 330.228 122.092 330.228 116.819C330.228 99.6441 298.807 85.7214 260.048 85.7214C221.29 85.7214 189.869 99.6441 189.869 116.819C189.869 122.092 189.869 127.912 189.869 133.185C189.869 141.321 196.464 147.916 204.599 147.916H315.497C323.633 147.916 330.228 141.321 330.228 133.185Z" fill="url(#paint6_linear_12901_65501)"/>
<path d="M189.869 134.804C189.91 135.212 189.979 135.658 190.079 136.13C191.616 141.044 201.222 145.294 206.23 145.711H315.302C324.846 145.711 324.846 142.984 330.299 134.804C329.208 146.802 319.846 148.892 315.302 148.438H206.23C195.311 148.438 191.092 140.909 190.079 136.13C189.942 135.692 189.869 135.25 189.869 134.804Z" fill="#C0CDE8"/>
<path d="M199.722 192.051C181.997 192.051 165.85 172.441 163.957 159.947C170.774 168.127 192.838 184.105 199.722 184.92H317.38C329.425 184.92 343.91 170.869 354.817 159.962C351.251 184.92 322.842 192.866 317.106 192.051H199.722Z" fill="#6249B0"/>
<path d="M191.232 110.263C206.23 80.2682 307.121 74.8145 328.935 110.263C270.309 70.7244 213.047 92.5387 191.232 110.263Z" fill="#C0CDE8"/>
<path d="M285.307 103.446C285.307 117.752 274.93 129.35 262.129 129.35C249.329 129.35 238.951 117.752 238.951 103.446C238.951 89.139 249.329 77.5411 262.129 77.5411C274.93 77.5411 285.307 89.139 285.307 103.446Z" fill="white"/>
<path d="M282.58 103.446C282.58 116.247 273.424 126.624 262.129 126.624C250.834 126.624 241.678 116.247 241.678 103.446C241.678 90.6452 250.834 80.2681 262.129 80.2681C273.424 80.2681 282.58 90.6452 282.58 103.446Z" fill="url(#paint7_linear_12901_65501)"/>
<path d="M271.361 93.5437C271.361 98.8146 267.698 103.087 263.18 103.087C258.662 103.087 255 98.8146 255 93.5437C255 88.2728 258.662 83.9999 263.18 83.9999C267.698 83.9999 271.361 88.2728 271.361 93.5437Z" fill="white" fill-opacity="0.43"/>
<path d="M266.907 89.4535C266.907 92.4655 264.466 94.9071 261.454 94.9071C258.442 94.9071 256 92.4655 256 89.4535C256 86.4416 258.442 83.9999 261.454 83.9999C264.466 83.9999 266.907 86.4416 266.907 89.4535Z" fill="white"/>
<path d="M279.18 106.09C279.18 108.349 277.349 110.18 275.09 110.18C272.831 110.18 271 108.349 271 106.09C271 103.831 272.831 102 275.09 102C277.349 102 279.18 103.831 279.18 106.09Z" fill="white" fill-opacity="0.48"/>
<path d="M320.118 72.1621C319.587 73.5711 313.445 72.5584 306.4 69.9002C299.355 67.2419 294.075 63.9448 294.606 62.5358C295.138 61.1268 301.28 62.1395 308.325 64.7977C315.37 67.4559 320.65 70.7531 320.118 72.1621Z" fill="white" fill-opacity="0.21"/>
<path d="M370.22 120.435C369.248 121.186 366.937 119.821 365.059 117.387C363.18 114.953 362.445 112.371 363.417 111.621C364.389 110.871 366.7 112.236 368.579 114.67C370.457 117.104 371.192 119.685 370.22 120.435Z" fill="white" fill-opacity="0.29"/>
<path d="M155.381 111.76C156.289 112.586 155.347 115.1 153.277 117.373C151.207 119.647 148.792 120.819 147.884 119.993C146.977 119.166 147.919 116.653 149.989 114.379C152.058 112.106 154.473 110.933 155.381 111.76Z" fill="white" fill-opacity="0.28"/>
<path fill-rule="evenodd" clip-rule="evenodd" d="M171.157 244.651C171.157 223.664 188.17 206.651 209.157 206.651H309.648C330.635 206.651 347.648 223.664 347.648 244.651V253.782C347.648 266.099 345.468 278.86 345.569 291.177C345.571 291.378 345.572 291.58 345.572 291.782C345.572 299.938 344.22 307.804 341.712 315.204C329.353 351.657 303.646 398.651 265.719 405.214C263.71 405.562 261.655 405.742 259.565 405.742C257.572 405.742 255.611 405.578 253.69 405.261C215.657 398.986 189.7 351.929 177.184 315.47C174.617 307.993 173.233 300.035 173.233 291.782C173.233 291.58 173.234 291.378 173.236 291.177C173.337 278.86 171.157 266.099 171.157 253.782V244.651Z" fill="url(#paint8_linear_12901_65501)"/>
<path d="M217 384.5C193.5 344.5 183.5 248 214 206.5C203 205.5 180.9 208.5 162.5 240.5C151.436 259.741 165.121 297.008 179 326.5C191 352 213 382.5 217 384.5Z" fill="#6249B0" fill-opacity="0.31"/>
<path d="M330.475 223.177C329.943 224.586 323.801 223.574 316.756 220.916C309.711 218.257 304.431 214.96 304.963 213.551C305.494 212.142 311.636 213.155 318.681 215.813C325.726 218.471 331.007 221.768 330.475 223.177Z" fill="white" fill-opacity="0.19"/>
<g filter="url(#filter0_f_12901_65501)">
<path d="M316.502 438.166C316.502 445.62 290.938 451.662 259.402 451.662C227.867 451.662 202.302 445.62 202.302 438.166C202.302 430.712 227.867 424.669 259.402 424.669C290.938 424.669 316.502 430.712 316.502 438.166Z" fill="#163556" fill-opacity="0.1"/>
</g>
<path d="M176.72 70.7592C176.72 70.7592 165.976 51.3099 182.25 34.0074C198.524 16.7049 232.239 43.1718 223.228 51.4332C197.487 75.0597 176.72 70.7592 176.72 70.7592Z" fill="#E24D43"/>
<path d="M194.174 16.5085C200.27 22.1883 200.626 31.7789 194.957 37.9312C189.289 44.0836 179.752 44.4756 173.655 38.7958C167.558 33.1161 167.203 23.5255 172.871 17.3731C178.54 11.2207 188.077 10.8287 194.174 16.5085Z" fill="#EAF0F8"/>
<path d="M181.736 88.3391C181.736 88.3391 194.504 88.3583 210.978 79.9581C218.966 75.8835 228.026 71.1908 236.728 62.1935C236.728 62.1935 237.718 48.0705 224.297 46.1342C224.297 46.1342 203.297 62.8802 175.689 68.175C175.689 68.175 171.444 83.1246 181.736 88.3391Z" fill="#EAF0F8"/>
<path d="M180.723 69.3413C180.001 69.3196 179.274 69.9448 179.289 70.7077C179.399 74.3917 180.681 77.855 182.938 80.7389C183.405 81.3317 184.406 81.2603 184.911 80.765C185.496 80.1926 185.408 79.3793 184.937 78.7778C183.175 76.5264 182.157 73.6208 182.067 70.7808C182.056 70.0266 181.508 69.366 180.723 69.3413Z" fill="white"/>
<path d="M190.455 67.8774C189.734 67.8557 189.007 68.481 189.021 69.2438C189.137 73.3411 190.578 77.2122 193.116 80.4075C193.583 81.0004 194.584 80.929 195.089 80.4336C195.674 79.8612 195.595 79.0442 195.115 78.4465C193.068 75.8749 191.899 72.6002 191.808 69.3131C191.789 68.5627 191.237 67.8935 190.455 67.8774Z" fill="white"/>
<path d="M207.263 73.5469C205.198 70.9106 203.659 67.8524 202.729 64.6274C202.522 63.8979 201.793 63.4117 201.04 63.6014C200.334 63.7806 199.811 64.5646 200.021 65.3028C201.101 69.0331 202.884 72.4607 205.265 75.508C205.731 76.1008 206.732 76.0294 207.238 75.5341C207.81 74.9568 207.722 74.1436 207.263 73.5469Z" fill="white"/>
<path d="M213.857 58.2998C213.421 57.6829 212.663 57.3656 211.959 57.7621C211.356 58.1037 210.986 59.0483 211.425 59.6739C213.402 62.506 215.088 65.5713 216.339 68.7989C216.619 69.5063 217.228 70.0251 218.028 69.8248C218.687 69.6562 219.322 68.8434 219.047 68.1235C217.697 64.6485 215.984 61.3563 213.857 58.2998Z" fill="white"/>
<path d="M225.034 51.046C224.523 50.4936 223.597 50.5005 223.07 51.016C222.52 51.5518 222.529 52.4421 223.04 52.9945C225.071 55.1991 226.37 57.8754 226.911 60.8264C227.054 61.5741 227.894 62.0315 228.6 61.8524C229.366 61.6675 229.753 60.9025 229.619 60.151C228.984 56.7528 227.375 53.5805 225.034 51.046Z" fill="white"/>
<path d="M142.01 353.776C127.121 373.681 108.947 381.485 108.947 381.485C108.947 381.485 111.616 390.27 116.723 398.323C121.83 406.376 131.523 409.91 131.523 409.91C131.523 409.91 154.945 384.955 165.803 379.843" fill="#4F1F1F"/>
<path d="M113.978 393.519C113.978 393.519 120.409 388.352 124.957 387.701C129.505 387.051 129.146 389.01 132.896 388.473C136.647 387.937 140.818 388.135 135.096 390.498C129.373 392.853 124.811 389.131 122.434 392.309C120.057 395.487 116.73 398.322 116.73 398.322" stroke="#6B3232" stroke-miterlimit="10"/>
<path d="M117.797 399.855C117.797 399.855 119.468 398.422 122.963 396.008C126.459 393.594 128.098 396.17 133.828 393.861C139.559 391.558 153.339 382.05 145.108 382.439C136.879 382.835 136.404 385.915 127.886 384.903C121.037 384.09 112.85 391.233 112.85 391.233" stroke="#6B3232" stroke-miterlimit="10"/>
<path d="M111.986 388.95C111.986 388.95 114.452 387.337 120.205 382.227C128.381 374.964 130.282 382.046 140.032 374.645C149.782 367.244 142.625 370.674 133.148 373.54C123.677 376.405 110.314 385.354 110.314 385.354" stroke="#6B3232" stroke-miterlimit="10"/>
<path d="M109.296 382.56C109.296 382.56 128.234 374.971 131.215 370.985C134.196 367 135.331 366.42 141.573 365.527" stroke="#6B3232" stroke-miterlimit="10"/>
<path d="M122.397 404.555C124.959 397.637 125.709 402.457 134.763 395.742C143.811 389.028 159.309 383.677 158.656 379.106" stroke="#6B3232" stroke-miterlimit="10"/>
<path d="M126.137 407.189C135.118 402.028 145.792 390.464 155.725 386.596" stroke="#6B3232" stroke-miterlimit="10"/>
<path d="M149.332 297.71C153.088 297.348 156.782 296.469 160.445 295.601C164.823 294.564 169.365 293.449 172.852 290.598C168.882 288.381 165.741 284.712 164.155 280.443C171.1 282.254 178.493 282.969 185.447 281.172C179.467 278.354 175.343 272.466 173.286 266.174C178.091 268.123 183.924 268.131 189.042 268.174C191.891 268.198 201.748 267.893 205.774 266.792C200.973 263.326 194.384 258.687 194.864 252.215C208.037 255.339 221.904 255.465 235.124 252.576C231.181 249.601 229.438 246.305 229.642 241.429C240.724 244.893 252.608 245.727 264.062 243.846C261.747 240.827 260.666 236.89 261.107 233.113C266.078 234.855 278.594 237.898 287.824 235.048C284.803 232.925 282.317 230.025 280.685 226.706C291.675 229.003 303.171 228.12 314.204 226.346C309.848 238.827 308.465 252.338 310.212 265.448C307.052 262.867 304.497 259.538 302.82 255.808C298.863 263.64 296.48 272.279 295.87 281.042C293.972 280.046 292.324 278.59 291.103 276.823C284.836 289.907 282.536 306.131 286.995 320.093C282.621 318.616 278.494 316.429 274.806 313.64C271.495 324.252 270.675 335.633 272.42 346.614C267.132 346.413 264.356 342.712 260.215 337.884C255.918 348.334 253.673 359.629 253.655 370.929C249.839 370.396 246.378 367.825 244.76 364.322C239.279 373.356 237.436 384.547 239.727 394.87C234.858 393.139 229.221 389.746 225.65 380.867C219.738 392.1 217.475 409.478 215.812 422.072C209.988 420.384 205.339 414.214 201.757 409.624C198.465 419.013 197.397 429.175 198.674 439.043C198.53 437.945 190.418 434.036 189.166 433.137C186.166 430.971 183.372 428.512 181.03 425.632C174.888 418.058 173.77 409.441 171.993 400.171C169.807 402.849 164.88 418.155 164.824 422.605C149.848 406.453 146.843 378.484 146.761 378.475C135.973 377.396 125.751 371.484 119.423 362.655C124.455 361.767 129.481 360.886 134.513 359.998C118.416 355.708 104.818 342.979 99.4509 327.184C104.093 327.383 108.735 327.575 113.377 327.774C107.136 323.119 102.676 316.113 101.106 308.478C115.339 311.862 130.224 312.476 144.679 310.273C139.013 307.525 134.363 302.716 131.816 296.946C136.535 297.586 141.528 297.93 146.281 297.87C147.298 297.873 148.318 297.815 149.332 297.71Z" fill="#00765A"/>
<g opacity="0.25">
<path d="M260.217 337.898C260.217 337.898 252.57 328.503 254.901 315.692C250.34 318.178 244.544 325.337 242.715 328.915C240.128 318.54 240.706 307.396 244.353 297.343C235.778 302.803 229.711 312.063 228.122 322.118C230.261 319.904 232.64 317.919 235.21 316.231C233.418 326.315 236.065 337.112 242.311 345.225C244.657 340.137 247.542 335.295 250.903 330.811C248.169 334.458 256.119 341.463 258.616 342.65" fill="#00765A"/>
</g>
<g opacity="0.25">
<path d="M235.118 252.577C237.543 254.583 240.283 255.539 243.288 256.471C240.622 258.234 237.533 259.35 234.361 259.702C237.761 263.908 243.786 264.603 249.173 264.978C252.998 265.24 256.816 265.509 260.64 265.771C258.061 268.055 254.479 268.776 251.054 269.145C241.788 270.147 232.306 269.177 223.43 266.322C225.789 265.088 228.584 263.279 230.944 262.052C227.961 261.555 223.548 259.059 221.064 256.886C222.894 256.132 225.231 255.495 227.378 253.907" fill="#00765A"/>
</g>
<g opacity="0.25">
<path d="M291.104 276.83C285.101 271.305 284.519 259.949 286.669 254.619C281.197 258.26 275.04 260.874 268.623 262.284C271.247 264.031 274.695 263.821 277.791 263.224C278.124 263.156 278.492 263.096 278.769 263.293C279.09 263.516 279.128 263.969 279.129 264.353C279.143 266.704 278.864 269.083 279.335 271.388C279.806 273.693 281.473 280.782 288.742 282.419" fill="#00765A"/>
</g>
<g opacity="0.25">
<path d="M142.676 309.009C150.045 314.305 158.913 317.478 167.961 318.051C163.881 320.327 159.337 321.759 154.696 322.227C164 327.32 175.018 327.888 185.609 328.341C176.881 335.171 166.64 340.04 155.84 342.495C167.112 346.437 179.42 345.539 191.316 344.586C187.425 346.254 173.37 347.962 172.998 352.841C172.831 354.962 174.056 356.943 175.414 358.583C176.771 360.222 178.349 361.756 179.13 363.734C171.28 364.715 163.294 362.446 156.294 358.743C149.295 355.046 143.127 349.969 137.012 344.932C134.542 342.899 132.048 340.836 130.091 338.298C126.673 333.873 125.125 328.318 123.653 322.92C122.893 320.144 122.155 317.101 123.312 314.469C124.433 311.915 127.164 310.365 129.91 309.905C132.657 309.452 135.467 309.912 138.217 310.375" fill="#00765A"/>
</g>
<g opacity="0.25">
<path d="M202.174 409.436C194.961 398.274 192.502 384.146 195.521 371.203C191.952 375.408 188.928 380.08 186.56 385.064C185.532 380.276 185.419 375.298 186.242 370.475C181.903 375.922 179.87 383.014 179.933 389.989C179.996 396.963 182.047 403.822 185.171 410.055C186.667 405.23 187.88 400.311 188.797 395.34C188.972 402.723 194.622 411.514 199.461 417.084" fill="#00765A"/>
</g>
<path d="M310.361 242.083C311.963 242.373 313.8 243.458 313.793 244.821C313.793 246.183 312.689 247.358 311.416 247.81C310.135 248.263 308.724 248.128 307.399 247.852C298.086 245.895 291.494 237.617 282.887 233.543C280.911 232.612 278.763 231.888 276.586 232.044C274.409 232.201 271.218 233.122 270.589 235.545" stroke="#488ECC" stroke-width="1.5" stroke-miterlimit="10"/>
<path d="M272.255 325.242C274.509 325.432 275.903 327.841 274.937 329.179C273.972 330.517 272.026 330.6 270.388 330.389C260.424 329.098 252.036 321.805 246.897 313.15C234.909 292.964 231.681 272.28 224.014 256.862C219.348 247.472 209.344 249.853 208.093 254.603" stroke="#488ECC" stroke-width="1.5" stroke-miterlimit="10"/>
<path d="M257.082 346.88C260.025 348.407 262.639 354.882 258.497 356.768C254.354 358.649 244.665 356.233 241.131 354.467C227.018 347.406 218.141 337.681 206.804 326.752C195.765 316.11 185.652 304.331 172.287 296.145C164.451 291.348 158.815 292.154 160.51 295.963" stroke="#488ECC" stroke-width="1.5" stroke-miterlimit="10"/>
<path d="M221.155 394.156C223.035 395.828 222.648 399.092 220.92 400.93C219.199 402.767 216.588 403.464 214.091 403.788C200.077 405.638 186.445 398.508 175.01 390.181C163.574 381.847 152.935 371.936 139.757 366.798C135.162 365.001 129.705 364.521 124.848 365.405C119.635 366.346 114.872 370.95 118.247 376.204" stroke="#488ECC" stroke-width="1.5" stroke-miterlimit="10"/>
<path d="M148.798 380.772C145.973 381.176 143.355 379.209 142.95 376.378C142.545 373.547 144.507 370.924 147.332 370.52C150.156 370.116 152.775 372.084 153.18 374.915C153.585 377.746 151.623 380.368 148.798 380.772Z" fill="#FFAC33"/>
<path d="M191.767 405.943C189.855 406.217 188.084 404.886 187.81 402.97C187.536 401.055 188.863 399.281 190.774 399.007C192.685 398.734 194.457 400.065 194.731 401.98C195.005 403.896 193.678 405.67 191.767 405.943Z" fill="#FFAC33"/>
<path d="M214.167 408.821C213.314 406.092 214.83 403.187 217.553 402.334C220.276 401.48 223.175 403.001 224.029 405.73C224.882 408.459 223.366 411.364 220.643 412.217C217.92 413.071 215.021 411.55 214.167 408.821Z" fill="#FFAC33"/>
<path d="M238.943 361.271C236.118 361.675 233.5 359.708 233.095 356.877C232.69 354.046 234.651 351.423 237.476 351.019C240.301 350.615 242.919 352.582 243.324 355.413C243.729 358.244 241.767 360.867 238.943 361.271Z" fill="#FFAC33"/>
<path d="M238.431 357.697C236.833 357.926 235.352 356.813 235.123 355.211C234.894 353.61 236.004 352.126 237.602 351.898C239.2 351.669 240.681 352.782 240.91 354.384C241.139 355.985 240.029 357.469 238.431 357.697Z" fill="#FFDA71"/>
<path d="M219.231 408.917C217.633 409.146 216.151 408.033 215.922 406.431C215.693 404.83 216.803 403.346 218.401 403.117C219.999 402.889 221.48 404.002 221.709 405.603C221.939 407.205 220.829 408.688 219.231 408.917Z" fill="#FFDA71"/>
<path d="M148.994 377.394C147.396 377.623 145.915 376.51 145.686 374.908C145.457 373.306 146.566 371.823 148.165 371.594C149.763 371.366 151.244 372.479 151.473 374.08C151.702 375.682 150.592 377.165 148.994 377.394Z" fill="#FFDA71"/>
<path d="M202.278 323.305C199.994 321.589 199.53 318.343 201.241 316.056C202.952 313.768 206.19 313.305 208.474 315.021C210.758 316.737 211.222 319.982 209.511 322.27C207.8 324.557 204.562 325.021 202.278 323.305Z" fill="#FFAC33"/>
<path d="M202.29 318.23C202.519 319.835 204.003 320.944 205.598 320.716C207.2 320.487 208.305 319.001 208.077 317.402C207.847 315.797 206.363 314.688 204.768 314.916C203.172 315.138 202.06 316.625 202.29 318.23Z" fill="#FFDA71"/>
<path d="M224.803 262.425C222.892 262.698 221.12 261.367 220.846 259.452C220.572 257.536 221.899 255.762 223.811 255.489C225.722 255.215 227.493 256.546 227.767 258.462C228.041 260.377 226.714 262.151 224.803 262.425Z" fill="#FFAC33"/>
<path d="M300.521 248.951C300.755 250.589 302.271 251.734 303.912 251.499C305.547 251.265 306.688 249.747 306.453 248.102C306.219 246.464 304.703 245.319 303.062 245.554C301.421 245.789 300.287 247.313 300.521 248.951Z" fill="#FFAC33"/>
<path d="M288.356 241.348C288.59 242.986 290.106 244.131 291.747 243.897C293.382 243.663 294.523 242.144 294.288 240.5C294.053 238.861 292.538 237.717 290.897 237.951C289.255 238.186 288.121 239.71 288.356 241.348Z" fill="#FFAC33"/>
<path d="M278.411 233.098C276.773 233.332 275.255 232.191 275.02 230.55C274.785 228.908 275.923 227.387 277.561 227.153C279.199 226.918 280.717 228.059 280.952 229.701C281.187 231.343 280.05 232.863 278.411 233.098Z" fill="#FFAC33"/>
<path d="M252.313 328.54C252.587 330.455 254.358 331.786 256.27 331.512C258.181 331.239 259.508 329.465 259.234 327.549C258.96 325.634 257.189 324.303 255.278 324.577C253.366 324.85 252.038 326.617 252.313 328.54Z" fill="#FFAC33"/>
<path d="M230.397 289.727C230.671 291.642 232.442 292.973 234.353 292.7C236.264 292.426 237.591 290.652 237.317 288.737C237.043 286.821 235.272 285.49 233.361 285.764C231.448 286.031 230.122 287.805 230.397 289.727Z" fill="#FFAC33"/>
<path d="M120.99 367.682C121.264 369.598 123.035 370.929 124.946 370.655C126.858 370.382 128.185 368.608 127.911 366.692C127.637 364.777 125.866 363.446 123.954 363.719C122.043 363.993 120.716 365.767 120.99 367.682Z" fill="#FFAC33"/>
<path d="M169.092 392.679C167.181 392.952 165.41 391.621 165.136 389.706C164.862 387.79 166.189 386.016 168.1 385.743C170.011 385.469 171.783 386.8 172.056 388.716C172.33 390.631 171.003 392.405 169.092 392.679Z" fill="#FFAC33"/>
<path d="M168.098 299.306C166.187 299.579 164.415 298.248 164.141 296.333C163.867 294.418 165.194 292.643 167.106 292.37C169.017 292.097 170.788 293.428 171.062 295.343C171.336 297.258 170.009 299.033 168.098 299.306Z" fill="#FFAC33"/>
<path d="M213.167 339.492C213.441 341.407 215.212 342.738 217.123 342.464C219.035 342.191 220.362 340.417 220.088 338.502C219.814 336.586 218.043 335.255 216.131 335.529C214.219 335.795 212.893 337.576 213.167 339.492Z" fill="#FFAC33"/>
<path d="M217.306 340.355C216.214 340.512 215.202 339.751 215.045 338.657C214.889 337.562 215.647 336.548 216.739 336.392C217.831 336.236 218.843 336.996 219 338.091C219.156 339.185 218.398 340.199 217.306 340.355Z" fill="#FFDA71"/>
<path d="M190.004 401.753C190.127 402.619 190.926 403.219 191.79 403.095C192.653 402.972 193.252 402.172 193.128 401.306C193.004 400.441 192.205 399.841 191.342 399.964C190.479 400.094 189.88 400.888 190.004 401.753Z" fill="#FFDA71"/>
<path d="M169.269 390.436C168.406 390.559 167.607 389.958 167.483 389.094C167.359 388.229 167.958 387.428 168.821 387.305C169.684 387.181 170.484 387.782 170.607 388.647C170.731 389.511 170.132 390.312 169.269 390.436Z" fill="#FFDA71"/>
<path d="M122.762 366.485C122.886 367.351 123.685 367.951 124.549 367.827C125.412 367.704 126.01 366.904 125.887 366.038C125.763 365.173 124.964 364.573 124.101 364.696C123.238 364.826 122.64 365.626 122.762 366.485Z" fill="#FFDA71"/>
<path d="M177.795 305.691C178.069 307.606 179.84 308.937 181.752 308.664C183.663 308.39 184.99 306.616 184.716 304.701C184.442 302.785 182.671 301.454 180.76 301.728C178.848 302.001 177.521 303.775 177.795 305.691Z" fill="#FFAC33"/>
<path d="M181.941 306.554C180.849 306.71 179.837 305.949 179.68 304.855C179.524 303.761 180.282 302.747 181.374 302.59C182.466 302.434 183.478 303.195 183.635 304.289C183.791 305.384 183.033 306.398 181.941 306.554Z" fill="#FFDA71"/>
<path d="M290.933 241.074C291.036 241.794 291.699 242.292 292.418 242.19C293.136 242.087 293.633 241.423 293.53 240.702C293.427 239.982 292.764 239.484 292.045 239.587C291.333 239.689 290.83 240.354 290.933 241.074Z" fill="#FFDA71"/>
<path d="M256.688 329.262C255.596 329.418 254.583 328.658 254.427 327.563C254.27 326.469 255.029 325.455 256.121 325.299C257.213 325.142 258.225 325.903 258.382 326.997C258.538 328.092 257.78 329.106 256.688 329.262Z" fill="#FFDA71"/>
<path d="M231.781 288.78C231.938 289.877 232.948 290.636 234.042 290.479C235.136 290.323 235.893 289.311 235.736 288.215C235.579 287.118 234.569 286.359 233.475 286.516C232.381 286.672 231.624 287.684 231.781 288.78Z" fill="#FFDA71"/>
<path d="M167.942 297.137C166.85 297.294 165.838 296.533 165.681 295.439C165.525 294.344 166.283 293.33 167.375 293.174C168.467 293.018 169.48 293.778 169.636 294.873C169.793 295.967 169.034 296.981 167.942 297.137Z" fill="#FFDA71"/>
<path d="M224.554 260.687C223.462 260.844 222.45 260.083 222.293 258.989C222.137 257.894 222.895 256.88 223.987 256.724C225.079 256.568 226.092 257.328 226.248 258.423C226.405 259.517 225.646 260.531 224.554 260.687Z" fill="#FFDA71"/>
<path d="M278.27 232.107C277.578 232.206 276.937 231.724 276.838 231.031C276.739 230.338 277.219 229.696 277.911 229.597C278.602 229.498 279.243 229.98 279.343 230.673C279.442 231.366 278.961 232.008 278.27 232.107Z" fill="#FFDA71"/>
<path d="M304.066 249.091C303.298 249.201 302.586 248.666 302.476 247.896C302.365 247.126 302.899 246.413 303.667 246.303C304.435 246.193 305.147 246.728 305.257 247.498C305.367 248.268 304.834 248.981 304.066 249.091Z" fill="#FFDA71"/>
<path d="M213.126 273.99L206.605 285.156" stroke="white" stroke-miterlimit="10"/>
<path d="M212.362 273.54C212.113 273.96 212.258 274.506 212.676 274.749C213.096 274.999 213.64 274.854 213.882 274.435C214.132 274.015 213.987 273.47 213.568 273.226C213.149 272.976 212.612 273.12 212.362 273.54Z" fill="white"/>
<path d="M205.841 284.706C205.592 285.126 205.737 285.671 206.155 285.915C206.574 286.165 207.119 286.019 207.361 285.6C207.611 285.181 207.465 284.635 207.047 284.392C206.628 284.141 206.09 284.286 205.841 284.706Z" fill="white"/>
<path d="M216.325 279.613L203.405 279.527" stroke="white" stroke-miterlimit="10"/>
<path d="M216.326 278.73C215.841 278.725 215.44 279.119 215.437 279.612C215.432 280.098 215.826 280.5 216.318 280.504C216.803 280.509 217.204 280.114 217.207 279.622C217.211 279.129 216.818 278.734 216.326 278.73Z" fill="white"/>
<path d="M203.413 278.642C202.928 278.638 202.527 279.032 202.524 279.525C202.519 280.011 202.913 280.413 203.405 280.417C203.89 280.421 204.291 280.027 204.294 279.534C204.292 279.049 203.898 278.647 203.413 278.642Z" fill="white"/>
<path d="M213.061 285.196L206.669 273.944" stroke="white" stroke-miterlimit="10"/>
<path d="M213.825 284.757C213.583 284.333 213.044 284.181 212.621 284.423C212.198 284.666 212.047 285.207 212.289 285.63C212.531 286.054 213.071 286.206 213.494 285.964C213.924 285.727 214.069 285.187 213.825 284.757Z" fill="white"/>
<path d="M207.434 273.51C207.192 273.087 206.653 272.935 206.23 273.177C205.807 273.42 205.656 273.96 205.898 274.384C206.14 274.808 206.68 274.96 207.103 274.717C207.532 274.474 207.677 273.934 207.434 273.51Z" fill="white"/>
<path d="M213.363 277.576L206.368 281.57" stroke="white" stroke-miterlimit="10"/>
<path d="M213.093 277.096C212.825 277.249 212.739 277.585 212.884 277.847C213.037 278.115 213.372 278.202 213.634 278.057C213.901 277.904 213.988 277.568 213.842 277.306C213.696 277.037 213.36 276.943 213.093 277.096Z" fill="white"/>
<path d="M206.091 281.091C205.823 281.243 205.737 281.579 205.882 281.842C206.035 282.11 206.37 282.197 206.632 282.051C206.899 281.898 206.985 281.563 206.84 281.3C206.694 281.031 206.358 280.938 206.091 281.091Z" fill="white"/>
<path d="M213.342 281.61L206.388 277.529" stroke="white" stroke-miterlimit="10"/>
<path d="M213.624 281.139C213.36 280.988 213.022 281.07 212.872 281.334C212.721 281.598 212.81 281.936 213.067 282.088C213.331 282.239 213.668 282.15 213.819 281.893C213.97 281.628 213.881 281.291 213.624 281.139Z" fill="white"/>
<path d="M206.67 277.051C206.406 276.9 206.068 276.982 205.917 277.246C205.767 277.51 205.849 277.849 206.113 278C206.376 278.151 206.714 278.069 206.865 277.805C207.016 277.547 206.928 277.21 206.67 277.051Z" fill="white"/>
<path d="M209.841 283.608L209.889 275.532" stroke="white" stroke-miterlimit="10"/>
<path d="M210.392 283.61C210.396 283.306 210.152 283.058 209.842 283.055C209.539 283.051 209.292 283.295 209.289 283.606C209.285 283.91 209.529 284.158 209.839 284.161C210.142 284.165 210.39 283.92 210.392 283.61Z" fill="white"/>
<path d="M210.442 275.541C210.446 275.237 210.202 274.989 209.892 274.986C209.589 274.982 209.341 275.226 209.339 275.537C209.335 275.841 209.579 276.089 209.889 276.092C210.191 276.089 210.439 275.844 210.442 275.541Z" fill="white"/>
<path d="M255.358 291.805L250.323 300.425" stroke="white" stroke-miterlimit="10"/>
<path d="M254.771 291.457C254.581 291.781 254.689 292.204 255.012 292.394C255.335 292.583 255.757 292.476 255.946 292.152C256.135 291.829 256.028 291.406 255.705 291.216C255.374 291.021 254.96 291.134 254.771 291.457Z" fill="white"/>
<path d="M249.735 300.078C249.546 300.402 249.653 300.824 249.977 301.014C250.3 301.204 250.721 301.096 250.911 300.773C251.1 300.449 250.992 300.026 250.669 299.837C250.338 299.641 249.924 299.754 249.735 300.078Z" fill="white"/>
<path d="M257.822 296.144L247.852 296.081" stroke="white" stroke-miterlimit="10"/>
<path d="M257.825 295.463C257.449 295.463 257.142 295.763 257.142 296.14C257.142 296.518 257.442 296.825 257.819 296.825C258.195 296.825 258.502 296.525 258.502 296.148C258.508 295.769 258.202 295.463 257.825 295.463Z" fill="white"/>
<path d="M247.855 295.399C247.478 295.399 247.172 295.699 247.172 296.077C247.172 296.454 247.471 296.762 247.848 296.762C248.225 296.762 248.532 296.462 248.531 296.084C248.538 295.706 248.232 295.399 247.855 295.399Z" fill="white"/>
<path d="M255.304 300.454L250.369 291.77" stroke="white" stroke-miterlimit="10"/>
<path d="M255.902 300.119C255.713 299.789 255.301 299.68 254.971 299.862C254.641 300.05 254.532 300.464 254.714 300.795C254.902 301.125 255.315 301.235 255.645 301.053C255.968 300.865 256.083 300.444 255.902 300.119Z" fill="white"/>
<path d="M250.966 291.429C250.778 291.098 250.365 290.989 250.035 291.171C249.705 291.36 249.596 291.773 249.778 292.104C249.967 292.435 250.379 292.544 250.71 292.362C251.033 292.181 251.148 291.76 250.966 291.429Z" fill="white"/>
<path d="M255.539 294.57L250.135 297.655" stroke="white" stroke-miterlimit="10"/>
<path d="M255.331 294.202C255.126 294.319 255.056 294.578 255.172 294.784C255.289 294.99 255.548 295.06 255.754 294.943C255.959 294.826 256.029 294.567 255.912 294.361C255.795 294.156 255.536 294.085 255.331 294.202Z" fill="white"/>
<path d="M249.927 297.28C249.721 297.397 249.651 297.657 249.768 297.862C249.885 298.068 250.144 298.139 250.349 298.022C250.554 297.905 250.625 297.645 250.508 297.44C250.392 297.241 250.133 297.17 249.927 297.28Z" fill="white"/>
<path d="M255.52 297.687L250.153 294.538" stroke="white" stroke-miterlimit="10"/>
<path d="M255.737 297.319C255.531 297.2 255.273 297.27 255.153 297.47C255.034 297.675 255.105 297.935 255.304 298.055C255.509 298.174 255.768 298.103 255.888 297.904C256.007 297.705 255.942 297.438 255.737 297.319Z" fill="white"/>
<path d="M250.37 294.17C250.164 294.051 249.905 294.122 249.786 294.321C249.667 294.527 249.738 294.786 249.937 294.906C250.142 295.025 250.401 294.954 250.521 294.755C250.639 294.549 250.575 294.289 250.37 294.17Z" fill="white"/>
<path d="M252.822 299.232L252.859 292.998" stroke="white" stroke-miterlimit="10"/>
<path d="M253.246 299.232C253.246 298.996 253.058 298.807 252.821 298.801C252.586 298.801 252.398 298.989 252.391 299.226C252.391 299.462 252.58 299.651 252.816 299.658C253.051 299.658 253.246 299.468 253.246 299.232Z" fill="white"/>
<path d="M253.283 292.998C253.282 292.762 253.094 292.574 252.858 292.567C252.622 292.567 252.434 292.756 252.428 292.993C252.421 293.229 252.616 293.417 252.852 293.424C253.088 293.424 253.283 293.234 253.283 292.998Z" fill="white"/>
<path d="M164.24 312.254L159.204 320.875" stroke="white" stroke-miterlimit="10"/>
<path d="M163.652 311.907C163.463 312.23 163.57 312.653 163.893 312.843C164.216 313.033 164.638 312.925 164.827 312.601C165.016 312.278 164.909 311.855 164.586 311.665C164.256 311.477 163.841 311.583 163.652 311.907Z" fill="white"/>
<path d="M158.616 320.527C158.427 320.851 158.535 321.274 158.858 321.464C159.181 321.653 159.603 321.546 159.792 321.222C159.981 320.898 159.873 320.476 159.55 320.286C159.221 320.097 158.805 320.204 158.616 320.527Z" fill="white"/>
<path d="M166.711 316.599L156.733 316.53" stroke="white" stroke-miterlimit="10"/>
<path d="M166.713 315.911C166.337 315.911 166.03 316.211 166.03 316.589C166.03 316.966 166.33 317.274 166.706 317.274C167.083 317.274 167.39 316.974 167.39 316.596C167.39 316.225 167.091 315.918 166.713 315.911Z" fill="white"/>
<path d="M156.743 315.848C156.366 315.848 156.059 316.148 156.06 316.525C156.06 316.903 156.359 317.21 156.736 317.21C157.113 317.21 157.419 316.91 157.419 316.533C157.42 316.162 157.113 315.849 156.743 315.848Z" fill="white"/>
<path d="M164.186 320.91L159.251 312.22" stroke="white" stroke-miterlimit="10"/>
<path d="M164.783 320.569C164.595 320.238 164.182 320.129 163.852 320.311C163.522 320.5 163.413 320.913 163.595 321.244C163.777 321.575 164.196 321.684 164.527 321.502C164.856 321.313 164.965 320.9 164.783 320.569Z" fill="white"/>
<path d="M159.848 311.885C159.66 311.554 159.247 311.445 158.917 311.627C158.587 311.816 158.478 312.229 158.66 312.56C158.849 312.89 159.261 313 159.592 312.818C159.921 312.629 160.029 312.209 159.848 311.885Z" fill="white"/>
<path d="M164.427 315.025L159.016 318.104" stroke="white" stroke-miterlimit="10"/>
<path d="M164.213 314.651C164.007 314.768 163.937 315.028 164.054 315.233C164.171 315.439 164.43 315.51 164.635 315.393C164.84 315.276 164.91 315.016 164.794 314.811C164.677 314.605 164.418 314.534 164.213 314.651Z" fill="white"/>
<path d="M158.809 317.736C158.604 317.853 158.533 318.113 158.65 318.318C158.767 318.524 159.026 318.595 159.231 318.478C159.436 318.361 159.507 318.101 159.39 317.896C159.273 317.69 159.014 317.619 158.809 317.736Z" fill="white"/>
<path d="M164.409 318.142L159.034 314.987" stroke="white" stroke-miterlimit="10"/>
<path d="M164.619 317.775C164.414 317.656 164.155 317.726 164.035 317.925C163.917 318.131 163.987 318.391 164.186 318.511C164.391 318.629 164.65 318.559 164.77 318.36C164.889 318.161 164.824 317.893 164.619 317.775Z" fill="white"/>
<path d="M159.251 314.619C159.046 314.5 158.787 314.571 158.667 314.77C158.548 314.969 158.619 315.235 158.818 315.355C159.023 315.474 159.282 315.403 159.402 315.204C159.52 314.999 159.456 314.738 159.251 314.619Z" fill="white"/>
<path d="M161.704 319.681L161.74 313.448" stroke="white" stroke-miterlimit="10"/>
<path d="M162.127 319.681C162.127 319.445 161.939 319.257 161.702 319.25C161.467 319.25 161.279 319.439 161.272 319.676C161.272 319.911 161.461 320.1 161.697 320.107C161.933 320.107 162.127 319.917 162.127 319.681Z" fill="white"/>
<path d="M162.164 313.448C162.164 313.212 161.975 313.023 161.739 313.016C161.503 313.016 161.315 313.205 161.309 313.442C161.309 313.678 161.497 313.867 161.734 313.873C161.969 313.873 162.164 313.684 162.164 313.448Z" fill="white"/>
<path d="M211.057 292.77L206.903 299.889" stroke="white" stroke-miterlimit="10"/>
<path d="M210.573 292.488C210.417 292.76 210.506 293.105 210.778 293.261C211.049 293.418 211.393 293.328 211.549 293.057C211.705 292.785 211.615 292.44 211.344 292.284C211.073 292.127 210.729 292.217 210.573 292.488Z" fill="white"/>
<path d="M206.412 299.602C206.255 299.874 206.345 300.218 206.616 300.375C206.888 300.532 207.231 300.442 207.387 300.17C207.544 299.899 207.454 299.554 207.183 299.397C206.919 299.246 206.575 299.336 206.412 299.602Z" fill="white"/>
<path d="M213.097 296.354L204.864 296.305" stroke="white" stroke-miterlimit="10"/>
<path d="M213.097 295.794C212.788 295.791 212.534 296.043 212.532 296.354C212.529 296.664 212.781 296.918 213.09 296.921C213.4 296.924 213.653 296.672 213.656 296.361C213.659 296.051 213.407 295.797 213.097 295.794Z" fill="white"/>
<path d="M204.863 295.739C204.554 295.736 204.3 295.988 204.298 296.298C204.295 296.609 204.547 296.862 204.856 296.865C205.166 296.868 205.419 296.616 205.422 296.306C205.431 295.994 205.18 295.741 204.863 295.739Z" fill="white"/>
<path d="M211.016 299.914L206.944 292.745" stroke="white" stroke-miterlimit="10"/>
<path d="M211.508 299.635C211.355 299.367 211.011 299.268 210.737 299.421C210.47 299.574 210.371 299.919 210.525 300.193C210.678 300.461 211.021 300.56 211.295 300.407C211.563 300.254 211.661 299.909 211.508 299.635Z" fill="white"/>
<path d="M207.429 292.466C207.276 292.198 206.932 292.099 206.658 292.253C206.391 292.406 206.292 292.75 206.446 293.025C206.599 293.293 206.942 293.392 207.216 293.238C207.489 293.078 207.588 292.733 207.429 292.466Z" fill="white"/>
<path d="M211.21 295.06L206.75 297.599" stroke="white" stroke-miterlimit="10"/>
<path d="M211.038 294.754C210.871 294.852 210.813 295.063 210.905 295.232C211.003 295.4 211.213 295.457 211.381 295.366C211.549 295.268 211.606 295.057 211.515 294.888C211.423 294.713 211.206 294.656 211.038 294.754Z" fill="white"/>
<path d="M206.572 297.294C206.405 297.392 206.347 297.602 206.439 297.771C206.537 297.939 206.747 297.997 206.915 297.905C207.083 297.807 207.14 297.597 207.049 297.428C206.957 297.259 206.741 297.202 206.572 297.294Z" fill="white"/>
<path d="M211.194 297.63L206.766 295.028" stroke="white" stroke-miterlimit="10"/>
<path d="M211.373 297.328C211.204 297.231 210.991 297.289 210.893 297.451C210.796 297.62 210.853 297.834 211.015 297.932C211.184 298.03 211.398 297.972 211.496 297.81C211.599 297.64 211.542 297.426 211.373 297.328Z" fill="white"/>
<path d="M206.938 294.727C206.77 294.63 206.556 294.688 206.458 294.85C206.361 295.019 206.419 295.233 206.581 295.331C206.743 295.429 206.963 295.371 207.061 295.209C207.164 295.039 207.107 294.824 206.938 294.727Z" fill="white"/>
<path d="M208.961 298.9L208.993 293.759" stroke="white" stroke-miterlimit="10"/>
<path d="M209.318 298.903C209.317 298.708 209.16 298.548 208.971 298.548C208.776 298.549 208.617 298.707 208.617 298.896C208.619 299.091 208.776 299.25 208.964 299.25C209.153 299.257 209.313 299.099 209.318 298.903Z" fill="white"/>
<path d="M209.342 293.757C209.341 293.561 209.184 293.402 208.995 293.402C208.8 293.403 208.641 293.56 208.641 293.749C208.642 293.944 208.8 294.104 208.988 294.104C209.184 294.109 209.343 293.952 209.342 293.757Z" fill="white"/>
<path d="M169.719 370.351L165.565 377.47" stroke="white" stroke-miterlimit="10"/>
<path d="M169.234 370.07C169.078 370.342 169.168 370.686 169.439 370.843C169.71 370.999 170.054 370.91 170.21 370.638C170.366 370.366 170.277 370.022 170.006 369.865C169.734 369.709 169.391 369.798 169.234 370.07Z" fill="white"/>
<path d="M165.08 377.183C164.923 377.454 165.013 377.799 165.284 377.955C165.556 378.112 165.899 378.023 166.055 377.751C166.212 377.479 166.122 377.135 165.851 376.978C165.58 376.828 165.237 376.917 165.08 377.183Z" fill="white"/>
<path d="M171.759 373.942L163.525 373.886" stroke="white" stroke-miterlimit="10"/>
<path d="M171.759 373.376C171.449 373.373 171.196 373.625 171.193 373.935C171.191 374.246 171.442 374.5 171.752 374.502C172.062 374.505 172.315 374.253 172.318 373.943C172.32 373.632 172.075 373.378 171.759 373.376Z" fill="white"/>
<path d="M163.531 373.319C163.222 373.316 162.968 373.568 162.966 373.879C162.963 374.189 163.215 374.443 163.524 374.446C163.834 374.449 164.087 374.197 164.09 373.886C164.093 373.576 163.841 373.322 163.531 373.319Z" fill="white"/>
<path d="M169.678 377.495L165.605 370.326" stroke="white" stroke-miterlimit="10"/>
<path d="M170.169 377.216C170.017 376.948 169.673 376.849 169.399 377.003C169.132 377.156 169.033 377.5 169.186 377.775C169.339 378.043 169.683 378.142 169.957 377.988C170.231 377.834 170.323 377.491 170.169 377.216Z" fill="white"/>
<path d="M166.097 370.047C165.944 369.779 165.6 369.68 165.326 369.834C165.059 369.986 164.96 370.331 165.114 370.605C165.267 370.873 165.61 370.973 165.884 370.819C166.152 370.666 166.25 370.322 166.097 370.047Z" fill="white"/>
<path d="M169.871 372.641L165.413 375.187" stroke="white" stroke-miterlimit="10"/>
<path d="M169.7 372.336C169.532 372.434 169.475 372.644 169.566 372.813C169.664 372.981 169.874 373.039 170.043 372.947C170.21 372.849 170.268 372.639 170.176 372.47C170.084 372.294 169.867 372.238 169.7 372.336Z" fill="white"/>
<path d="M165.235 374.882C165.067 374.98 165.01 375.191 165.101 375.359C165.199 375.527 165.409 375.585 165.578 375.494C165.745 375.395 165.803 375.185 165.711 375.016C165.62 374.847 165.402 374.784 165.235 374.882Z" fill="white"/>
<path d="M169.856 375.212L165.428 372.61" stroke="white" stroke-miterlimit="10"/>
<path d="M170.034 374.91C169.866 374.813 169.652 374.87 169.554 375.033C169.457 375.201 169.515 375.416 169.677 375.514C169.846 375.611 170.059 375.553 170.157 375.391C170.255 375.229 170.203 375.007 170.034 374.91Z" fill="white"/>
<path d="M165.606 372.308C165.438 372.211 165.224 372.268 165.126 372.43C165.029 372.599 165.087 372.814 165.249 372.912C165.417 373.009 165.631 372.951 165.729 372.789C165.826 372.62 165.768 372.406 165.606 372.308Z" fill="white"/>
<path d="M167.63 376.487L167.654 371.341" stroke="white" stroke-miterlimit="10"/>
<path d="M167.98 376.485C167.979 376.289 167.821 376.13 167.633 376.13C167.438 376.131 167.279 376.288 167.279 376.477C167.28 376.672 167.437 376.832 167.626 376.832C167.822 376.838 167.974 376.681 167.98 376.485Z" fill="white"/>
<path d="M168.011 371.344C168.01 371.148 167.853 370.989 167.664 370.989C167.469 370.99 167.31 371.147 167.31 371.336C167.311 371.531 167.469 371.691 167.657 371.691C167.845 371.691 168.004 371.533 168.011 371.344Z" fill="white"/>
<path d="M281.369 242.159L277.269 249.183" stroke="white" stroke-miterlimit="10"/>
<path d="M280.885 241.878C280.728 242.143 280.816 242.481 281.081 242.638C281.346 242.796 281.683 242.707 281.84 242.442C281.997 242.177 281.908 241.839 281.644 241.682C281.386 241.523 281.042 241.613 280.885 241.878Z" fill="white"/>
<path d="M276.791 248.901C276.634 249.166 276.723 249.504 276.987 249.661C277.252 249.819 277.589 249.73 277.746 249.465C277.903 249.2 277.815 248.862 277.55 248.705C277.285 248.547 276.942 248.637 276.791 248.901Z" fill="white"/>
<path d="M283.375 245.694L275.256 245.642" stroke="white" stroke-miterlimit="10"/>
<path d="M283.383 245.14C283.073 245.137 282.826 245.388 282.823 245.692C282.82 246.003 283.071 246.25 283.374 246.254C283.684 246.257 283.93 246.006 283.934 245.702C283.937 245.391 283.686 245.144 283.383 245.14Z" fill="white"/>
<path d="M275.264 245.088C274.954 245.085 274.707 245.336 274.704 245.64C274.701 245.951 274.952 246.198 275.255 246.202C275.565 246.205 275.811 245.954 275.815 245.65C275.818 245.339 275.567 245.092 275.264 245.088Z" fill="white"/>
<path d="M281.328 249.209L277.309 242.133" stroke="white" stroke-miterlimit="10"/>
<path d="M281.806 248.932C281.654 248.664 281.318 248.57 281.05 248.723C280.783 248.876 280.69 249.213 280.842 249.481C280.995 249.749 281.331 249.842 281.599 249.689C281.866 249.537 281.959 249.2 281.806 248.932Z" fill="white"/>
<path d="M277.789 241.862C277.636 241.594 277.3 241.501 277.032 241.654C276.765 241.807 276.672 242.143 276.825 242.411C276.977 242.679 277.314 242.773 277.581 242.62C277.848 242.467 277.94 242.124 277.789 241.862Z" fill="white"/>
<path d="M281.517 244.416L277.114 246.927" stroke="white" stroke-miterlimit="10"/>
<path d="M281.346 244.117C281.179 244.215 281.122 244.426 281.219 244.587C281.317 244.755 281.527 244.813 281.688 244.715C281.855 244.617 281.913 244.407 281.815 244.246C281.724 244.077 281.514 244.019 281.346 244.117Z" fill="white"/>
<path d="M276.943 246.621C276.775 246.719 276.718 246.93 276.815 247.091C276.913 247.259 277.123 247.317 277.284 247.219C277.451 247.121 277.509 246.911 277.412 246.749C277.321 246.587 277.111 246.53 276.943 246.621Z" fill="white"/>
<path d="M281.503 246.953L277.134 244.389" stroke="white" stroke-miterlimit="10"/>
<path d="M281.675 246.652C281.513 246.554 281.3 246.611 281.202 246.773C281.104 246.936 281.161 247.15 281.323 247.248C281.485 247.346 281.699 247.289 281.797 247.126C281.902 246.963 281.844 246.749 281.675 246.652Z" fill="white"/>
<path d="M277.307 244.088C277.145 243.99 276.931 244.048 276.833 244.21C276.735 244.372 276.793 244.587 276.955 244.685C277.117 244.783 277.33 244.725 277.428 244.563C277.526 244.401 277.469 244.187 277.307 244.088Z" fill="white"/>
<path d="M279.302 248.211L279.329 243.132" stroke="white" stroke-miterlimit="10"/>
<path d="M279.652 248.209C279.651 248.02 279.501 247.859 279.306 247.86C279.117 247.86 278.957 248.011 278.958 248.207C278.959 248.395 279.109 248.556 279.304 248.555C279.493 248.555 279.646 248.405 279.652 248.209Z" fill="white"/>
<path d="M279.679 243.136C279.679 242.947 279.528 242.786 279.333 242.787C279.145 242.787 278.985 242.938 278.986 243.134C278.986 243.322 279.137 243.483 279.332 243.482C279.52 243.482 279.679 243.324 279.679 243.136Z" fill="white"/>
<path d="M214.752 363.741L206.988 377.032" stroke="white" stroke-miterlimit="10"/>
<path d="M213.849 363.209C213.557 363.709 213.724 364.359 214.224 364.652C214.723 364.945 215.372 364.778 215.663 364.278C215.955 363.778 215.788 363.127 215.289 362.835C214.782 362.537 214.14 362.703 213.849 363.209Z" fill="white"/>
<path d="M206.085 376.5C205.793 377.001 205.96 377.651 206.46 377.943C206.959 378.236 207.608 378.069 207.899 377.569C208.191 377.069 208.024 376.419 207.525 376.126C207.018 375.828 206.377 376 206.085 376.5Z" fill="white"/>
<path d="M218.562 370.435L203.185 370.336" stroke="white" stroke-miterlimit="10"/>
<path d="M218.566 369.383C217.987 369.378 217.51 369.851 217.512 370.43C217.508 371.011 217.98 371.489 218.558 371.487C219.137 371.492 219.614 371.019 219.612 370.44C219.616 369.86 219.145 369.388 218.566 369.383Z" fill="white"/>
<path d="M203.19 369.284C202.611 369.279 202.133 369.752 202.136 370.331C202.131 370.912 202.603 371.39 203.181 371.388C203.76 371.393 204.238 370.92 204.235 370.341C204.24 369.761 203.769 369.289 203.19 369.284Z" fill="white"/>
<path d="M214.677 377.085L207.064 363.688" stroke="white" stroke-miterlimit="10"/>
<path d="M215.591 376.563C215.304 376.058 214.66 375.881 214.156 376.168C213.652 376.456 213.476 377.101 213.763 377.606C214.05 378.111 214.695 378.289 215.198 378.001C215.702 377.713 215.879 377.068 215.591 376.563Z" fill="white"/>
<path d="M207.979 363.173C207.691 362.668 207.047 362.49 206.543 362.778C206.04 363.066 205.863 363.711 206.151 364.216C206.438 364.721 207.082 364.898 207.586 364.611C208.089 364.316 208.266 363.678 207.979 363.173Z" fill="white"/>
<path d="M215.041 368.013L206.708 372.765" stroke="white" stroke-miterlimit="10"/>
<path d="M214.717 367.44C214.399 367.62 214.295 368.019 214.468 368.338C214.642 368.657 215.047 368.761 215.365 368.587C215.682 368.407 215.787 368.008 215.613 367.689C215.427 367.372 215.027 367.26 214.717 367.44Z" fill="white"/>
<path d="M206.377 372.192C206.059 372.372 205.955 372.771 206.129 373.09C206.309 373.408 206.707 373.513 207.025 373.339C207.342 373.159 207.447 372.76 207.273 372.441C207.093 372.123 206.694 372.012 206.377 372.192Z" fill="white"/>
<path d="M215.008 372.817L206.732 367.955" stroke="white" stroke-miterlimit="10"/>
<path d="M215.344 372.25C215.029 372.066 214.627 372.171 214.45 372.486C214.266 372.802 214.371 373.205 214.686 373.383C215.001 373.567 215.403 373.462 215.58 373.147C215.758 372.838 215.653 372.435 215.344 372.25Z" fill="white"/>
<path d="M207.062 367.389C206.746 367.205 206.344 367.309 206.167 367.625C205.984 367.941 206.089 368.344 206.403 368.521C206.719 368.705 207.121 368.6 207.298 368.285C207.482 367.976 207.377 367.573 207.062 367.389Z" fill="white"/>
<path d="M210.842 375.193L210.899 365.579" stroke="white" stroke-miterlimit="10"/>
<path d="M211.501 375.193C211.503 374.829 211.211 374.534 210.848 374.532C210.485 374.53 210.19 374.821 210.188 375.185C210.187 375.55 210.478 375.845 210.841 375.847C211.205 375.849 211.499 375.557 211.501 375.193Z" fill="white"/>
<path d="M211.553 365.587C211.554 365.223 211.263 364.927 210.9 364.925C210.536 364.923 210.242 365.215 210.24 365.579C210.238 365.943 210.529 366.239 210.893 366.241C211.256 366.243 211.551 365.951 211.553 365.587Z" fill="white"/>
<path d="M253.026 154C258.233 156.77 264.235 157.789 270 156.877C269.425 163.846 267.396 170.834 263.677 176.624C263.254 177.267 262.713 177.982 261.969 178C261.344 178.017 260.803 177.553 260.346 177.088C255.072 171.674 252.722 161.774 253.026 154Z" fill="white"/>
<ellipse cx="167.394" cy="325.413" rx="30" ry="43.5" transform="rotate(-47.9444 167.394 325.413)" fill="#005641" fill-opacity="0.54"/>
<path d="M147.7 326.678C143.534 329.257 139.171 331.575 134.644 333.632C138.088 337.223 141.762 340.618 145.634 343.753C154.426 350.902 165.317 357.171 176.734 358.477C190.676 360.109 201.043 350.772 207.506 339.443C210.458 334.35 211.935 328.767 210.13 323.021C207.539 314.696 201.142 307.775 194.613 302.29C193.76 301.539 188.314 297.523 182.934 293.899C173.814 306.893 161.709 318.091 147.7 326.678Z" fill="url(#paint9_linear_12901_65501)"/>
<path d="M108.071 288.773C107.546 289.72 110.105 294.879 110.498 295.923C115.846 309.962 124.244 322.793 134.644 333.599C139.171 331.542 143.534 329.224 147.7 326.645C135.234 315.969 125.064 303.041 117.978 288.806C122.21 273.853 128.181 259.292 135.989 245.58C125.163 259.194 116.338 274.604 108.071 288.773Z" fill="#6249B0"/>
<path d="M135.989 245.613C128.181 259.325 122.243 273.886 117.978 288.839C125.064 303.073 135.201 316.002 147.7 326.678C161.709 318.091 173.814 306.893 182.934 293.899C177.488 290.21 172.141 286.847 171.649 287.663C183.557 268.434 190.676 246.756 192.251 224.718C192.645 219.135 187.002 214.467 180.867 214.042C174.765 213.618 168.959 216.458 163.907 219.625C153.113 226.416 143.993 235.492 135.989 245.613Z" fill="url(#paint10_linear_12901_65501)"/>
<path d="M147.34 293.507C158.559 270.784 172.666 249.367 188.97 229.942C187.133 250.706 179.654 271.176 168.237 288.643C172.403 289.884 176.045 291.581 179.293 294.487C175.618 300.461 170.566 305.587 164.628 309.374C159.773 303.889 153.081 298.013 147.34 293.507Z" fill="url(#paint11_linear_12901_65501)"/>
<circle cx="253" cy="273" r="3" fill="#FFEFEF"/>
<circle cx="238" cy="328" r="3" fill="#FFEFEF"/>
<circle cx="265" cy="310" r="3" fill="#FFEFEF"/>
<circle cx="191" cy="386" r="3" fill="#FFEFEF"/>
<circle cx="148" cy="358" r="3" fill="#FFEFEF"/>
<circle cx="274.5" cy="276.5" r="1.5" fill="#FFEFEF"/>
<circle cx="288" cy="263" r="2" fill="#FFEFEF"/>
<circle cx="245.5" cy="254.5" r="1.5" fill="#FFEFEF"/>
<circle cx="302.5" cy="234.5" r="1.5" fill="#FFEFEF"/>
<circle cx="223.5" cy="315.5" r="1.5" fill="#FFEFEF"/>
<circle cx="270.5" cy="259.5" r="1.5" fill="#FFEFEF"/>
<circle cx="189.5" cy="417.5" r="1.5" fill="#FFEFEF"/>
<circle cx="122.5" cy="333.5" r="1.5" fill="#FFEFEF"/>
<circle cx="194.5" cy="368.5" r="1.5" fill="#FFEFEF"/>
<path fill-rule="evenodd" clip-rule="evenodd" d="M431.301 102H499.483C526.714 102 549 79.7299 549 52.5052C549 25.2805 526.714 3 499.483 3H429.517C402.286 3 380 25.2805 380 52.5052C380.006 67.6973 386.945 81.3465 397.809 90.444C396.643 98.6896 393.153 115.976 384 121C384 121 419.888 114.991 431.301 102Z" fill="url(#paint12_linear_12901_65501)"/>
<path d="M434.91 70.62C434.94 71.17 433.33 71.51 430.08 71.66C426.84 71.81 425.2 71.61 425.18 71.06L424.67 59.98L417.93 60.29L418.44 71.37C418.47 71.92 416.86 72.26 413.61 72.41C410.37 72.56 408.73 72.36 408.71 71.81L407.24 39.87C407.21 39.2 408.81 38.78 412.06 38.63C415.3 38.48 416.94 38.74 416.97 39.42L417.49 50.74L424.23 50.43L423.71 39.21C423.69 38.76 424.48 38.4 426.07 38.14C426.9 38.04 427.72 37.97 428.52 37.93L430.98 37.91C432.59 38.03 433.41 38.31 433.43 38.76L434.91 70.62Z" fill="url(#paint13_linear_12901_65501)"/>
<path d="M457.67 69.09C455.7 70.37 453.13 71.09 449.95 71.23C446.77 71.38 444.04 70.42 441.76 68.35C439.48 66.28 438.25 63.33 438.07 59.49C437.89 55.65 438.8 52.51 440.8 50.07C442.8 47.63 445.4 46.33 448.61 46.19C451.82 46.04 454.34 46.75 456.17 48.3C458 49.86 458.96 51.81 459.07 54.15C459.31 59.35 456.44 62.09 450.47 62.37L447.15 62.52C447.19 63.48 447.49 64.14 448.04 64.48C448.59 64.83 449.37 64.97 450.4 64.93C452.65 64.83 454.76 64.22 456.74 63.09C456.77 63.06 456.92 63.27 457.2 63.74C458.03 65.09 458.47 66.23 458.52 67.18C458.54 68.14 458.27 68.77 457.67 69.09ZM451.01 55.44C450.95 54.09 450.26 53.45 448.94 53.51C448.33 53.54 447.82 53.75 447.4 54.14C446.98 54.53 446.79 55.08 446.82 55.78L446.89 57.27L449.49 57.15C450.55 57.1 451.06 56.53 451.01 55.44Z" fill="url(#paint14_linear_12901_65501)"/>
<path d="M471.68 69.36C471.69 69.65 470.06 69.87 466.79 70.02C464.22 70.11 462.93 70.04 462.92 69.81L461.41 37C461.39 36.52 462.93 36.21 466.05 36.06C468.78 36.03 470.16 36.13 470.17 36.35L471.68 69.36Z" fill="url(#paint15_linear_12901_65501)"/>
<path d="M484.78 68.76C484.79 69.05 483.16 69.27 479.89 69.42C477.32 69.51 476.03 69.44 476.02 69.21L474.51 36.4C474.49 35.92 476.03 35.61 479.15 35.46C481.88 35.43 483.26 35.53 483.27 35.75L484.78 68.76Z" fill="url(#paint16_linear_12901_65501)"/>
<path d="M491.1 66.01C488.99 63.89 487.85 60.87 487.67 56.95C487.49 53.03 488.35 49.92 490.26 47.61C492.17 45.3 494.82 44.07 498.22 43.91C501.62 43.75 504.37 44.74 506.47 46.86C508.56 48.98 509.7 52.01 509.88 55.92C510.06 59.84 509.21 62.95 507.32 65.26C505.43 67.57 502.78 68.8 499.38 68.96C495.97 69.11 493.21 68.13 491.1 66.01ZM498.61 51.95C496.8 52.03 495.96 53.55 496.09 56.51C496.23 59.46 497.2 60.9 499.02 60.82C500.83 60.74 501.67 59.22 501.54 56.26C501.4 53.3 500.43 51.87 498.61 51.95Z" fill="url(#paint17_linear_12901_65501)"/>
<path d="M513.52 60.58C513.51 60.36 514.99 60.17 517.96 60.04C520.93 59.9 522.42 59.93 522.43 60.12L522.75 67.06C522.76 67.38 521.29 67.61 518.32 67.75C515.35 67.89 513.86 67.86 513.85 67.67L513.52 60.58ZM521.33 57.33C521.34 57.52 520.19 57.67 517.9 57.78C515.6 57.89 514.45 57.86 514.44 57.7L512.39 33.99C512.38 33.73 513.84 33.54 516.78 33.4C519.72 33.26 521.19 33.31 521.2 33.53L521.33 57.33Z" fill="url(#paint18_linear_12901_65501)"/>
</g>
<defs>
<filter id="filter0_f_12901_65501" x="198.302" y="420.669" width="122.2" height="34.9928" filterUnits="userSpaceOnUse" color-interpolation-filters="sRGB">
<feFlood flood-opacity="0" result="BackgroundImageFix"/>
<feBlend mode="normal" in="SourceGraphic" in2="BackgroundImageFix" result="shape"/>
<feGaussianBlur stdDeviation="2" result="effect1_foregroundBlur_12901_65501"/>
</filter>
<linearGradient id="paint0_linear_12901_65501" x1="430.514" y1="266.523" x2="378.559" y2="283.576" gradientUnits="userSpaceOnUse">
<stop stop-color="#3E6785"/>
<stop offset="1" stop-color="#1D2243"/>
</linearGradient>
<linearGradient id="paint1_linear_12901_65501" x1="334.357" y1="220.159" x2="403.094" y2="236.121" gradientUnits="userSpaceOnUse">
<stop stop-color="#9F88EA"/>
<stop offset="1" stop-color="#7D60DA"/>
</linearGradient>
<linearGradient id="paint2_linear_12901_65501" x1="350.245" y1="225.255" x2="400.429" y2="271.005" gradientUnits="userSpaceOnUse">
<stop stop-color="white" stop-opacity="0.49"/>
<stop offset="1" stop-color="white" stop-opacity="0"/>
</linearGradient>
<linearGradient id="paint3_linear_12901_65501" x1="154.762" y1="111.626" x2="163.315" y2="158.404" gradientUnits="userSpaceOnUse">
<stop stop-color="#896EE0"/>
<stop offset="0.802083" stop-color="#7154D0"/>
</linearGradient>
<linearGradient id="paint4_linear_12901_65501" x1="358.078" y1="141.621" x2="373.043" y2="139.42" gradientUnits="userSpaceOnUse">
<stop stop-color="#826AD2"/>
<stop offset="1" stop-color="#9E87EA"/>
</linearGradient>
<linearGradient id="paint5_linear_12901_65501" x1="328.777" y1="57.6356" x2="226.863" y2="215.773" gradientUnits="userSpaceOnUse">
<stop stop-color="#9F88EA"/>
<stop offset="1" stop-color="#7D60DA"/>
</linearGradient>
<linearGradient id="paint6_linear_12901_65501" x1="282.606" y1="87.4984" x2="233.1" y2="160.817" gradientUnits="userSpaceOnUse">
<stop stop-color="white"/>
<stop offset="1" stop-color="#DBE3FF"/>
</linearGradient>
<linearGradient id="paint7_linear_12901_65501" x1="267.707" y1="83.8339" x2="259.127" y2="124.99" gradientUnits="userSpaceOnUse">
<stop stop-color="#305780"/>
<stop offset="1" stop-color="#163556"/>
</linearGradient>
<linearGradient id="paint8_linear_12901_65501" x1="322.645" y1="213.088" x2="167.28" y2="371.359" gradientUnits="userSpaceOnUse">
<stop stop-color="#9F88EA"/>
<stop offset="1" stop-color="#7D60DA"/>
</linearGradient>
<linearGradient id="paint9_linear_12901_65501" x1="210.913" y1="326.265" x2="134.637" y2="326.265" gradientUnits="userSpaceOnUse">
<stop stop-color="#3E6785"/>
<stop offset="1" stop-color="#1D2243"/>
</linearGradient>
<linearGradient id="paint10_linear_12901_65501" x1="128.503" y1="217.643" x2="213.167" y2="281.791" gradientUnits="userSpaceOnUse">
<stop stop-color="#9F88EA"/>
<stop offset="1" stop-color="#7D60DA"/>
</linearGradient>
<linearGradient id="paint11_linear_12901_65501" x1="156.491" y1="224.243" x2="215.806" y2="314.118" gradientUnits="userSpaceOnUse">
<stop stop-color="white" stop-opacity="0.49"/>
<stop offset="1" stop-color="white" stop-opacity="0"/>
</linearGradient>
<linearGradient id="paint12_linear_12901_65501" x1="380" y1="65.0025" x2="548.994" y2="65.0025" gradientUnits="userSpaceOnUse">
<stop stop-color="#7D60DA" stop-opacity="0.13"/>
<stop offset="0.5053" stop-color="#7D60DA" stop-opacity="0"/>
<stop offset="1" stop-color="#7D60DA" stop-opacity="0.13"/>
</linearGradient>
<linearGradient id="paint13_linear_12901_65501" x1="430.99" y1="39.0616" x2="403.367" y2="63.7211" gradientUnits="userSpaceOnUse">
<stop stop-color="#9F88EA"/>
<stop offset="1" stop-color="#7D60DA"/>
</linearGradient>
<linearGradient id="paint14_linear_12901_65501" x1="456.104" y1="47.0062" x2="435.971" y2="65.8315" gradientUnits="userSpaceOnUse">
<stop stop-color="#9F88EA"/>
<stop offset="1" stop-color="#7D60DA"/>
</linearGradient>
<linearGradient id="paint15_linear_12901_65501" x1="470.225" y1="37.1883" x2="453.677" y2="42.759" gradientUnits="userSpaceOnUse">
<stop stop-color="#9F88EA"/>
<stop offset="1" stop-color="#7D60DA"/>
</linearGradient>
<linearGradient id="paint16_linear_12901_65501" x1="483.325" y1="36.5882" x2="466.777" y2="42.159" gradientUnits="userSpaceOnUse">
<stop stop-color="#9F88EA"/>
<stop offset="1" stop-color="#7D60DA"/>
</linearGradient>
<linearGradient id="paint17_linear_12901_65501" x1="506.75" y1="44.7294" x2="486.568" y2="64.6908" gradientUnits="userSpaceOnUse">
<stop stop-color="#9F88EA"/>
<stop offset="1" stop-color="#7D60DA"/>
</linearGradient>
<linearGradient id="paint18_linear_12901_65501" x1="521.282" y1="34.4721" x2="504.569" y2="40.0637" gradientUnits="userSpaceOnUse">
<stop stop-color="#9F88EA"/>
<stop offset="1" stop-color="#7D60DA"/>
</linearGradient>
<clipPath id="clip0_12901_65501">
<rect width="549" height="505" fill="white"/>
</clipPath>
</defs>
</svg>
