<svg width="1306" height="814" viewBox="0 0 1306 814" fill="none" xmlns="http://www.w3.org/2000/svg"  xmlns:xlink="http://www.w3.org/1999/xlink">
<svg
  id="snow1">
<path d="M436.311 123.594C436.614 122.202 435.929 120.82 434.734 120.201C435.164 118.218 435.594 116.238 436.026 114.256L438.613 118.386C438.836 118.744 439.302 118.848 439.654 118.621C440.005 118.395 440.108 117.92 439.885 117.562L436.487 112.139C436.829 110.565 437.171 108.991 437.514 107.415C438.781 108.384 440.048 109.352 441.315 110.321L442.205 116.688C442.213 116.744 442.225 116.796 442.244 116.847C442.364 117.178 442.699 117.391 443.057 117.339C443.468 117.28 443.755 116.89 443.696 116.472L443.019 111.622C444.614 112.842 446.208 114.06 447.804 115.278C447.293 116.54 447.657 118.042 448.778 118.899C450.107 119.914 451.999 119.64 452.997 118.288C453.995 116.936 453.726 115.009 452.397 113.994C451.276 113.137 449.757 113.202 448.709 114.053C447.115 112.833 445.521 111.615 443.924 110.396L448.689 109.707C449.102 109.647 449.386 109.258 449.328 108.839C449.268 108.419 448.888 108.129 448.476 108.188L442.22 109.094C440.996 108.159 439.772 107.223 438.55 106.288C440.002 105.74 441.454 105.194 442.908 104.646L448.648 107.333C449.025 107.51 449.472 107.342 449.647 106.956C449.82 106.571 449.656 106.115 449.277 105.939L444.905 103.894C446.775 103.189 448.644 102.486 450.515 101.781C451.281 102.901 452.718 103.404 454.032 102.91C455.591 102.322 456.39 100.554 455.812 98.9682C455.234 97.382 453.498 96.5689 451.939 97.1569C450.626 97.6525 449.854 98.9856 449.99 100.343C448.12 101.048 446.249 101.753 444.38 102.456L446.39 98.0067C446.563 97.6211 446.398 97.1657 446.019 96.9894C445.642 96.8114 445.193 96.9807 445.02 97.3663L442.381 103.208C440.909 103.763 439.436 104.318 437.963 104.873C438.303 103.313 438.642 101.753 438.982 100.193L444.31 96.7347C444.662 96.5061 444.764 96.0349 444.54 95.6755C444.317 95.3195 443.851 95.2131 443.499 95.4417L439.441 98.0748C439.872 96.0925 440.304 94.1103 440.734 92.1298C442.075 92.0809 443.268 91.123 443.571 89.7305C443.931 88.0798 442.903 86.4378 441.281 86.0731C439.659 85.7067 438.046 86.7536 437.687 88.4044C437.384 89.7968 438.07 91.1788 439.265 91.7982C438.834 93.7805 438.402 95.7627 437.972 97.7432L435.385 93.613C435.162 93.2553 434.696 93.1506 434.344 93.3792C434.039 93.5763 433.923 93.9602 434.043 94.2918C434.062 94.3424 434.084 94.3912 434.115 94.4383L437.513 99.8598C437.17 101.434 436.829 103.008 436.486 104.583C435.219 103.615 433.952 102.647 432.685 101.678L431.795 95.3108C431.737 94.892 431.355 94.5989 430.943 94.6599C430.532 94.7193 430.245 95.1084 430.304 95.5272L430.981 100.376C429.386 99.1584 427.79 97.9387 426.196 96.7207C426.707 95.4591 426.343 93.9567 425.222 93.1C423.893 92.0844 422.001 92.3584 421.003 93.7107C420.005 95.063 420.274 96.9912 421.603 98.005C422.724 98.8617 424.243 98.7972 425.291 97.9457C426.885 99.1636 428.479 100.383 430.076 101.601L425.311 102.291C424.9 102.35 424.614 102.739 424.672 103.158C424.68 103.214 424.692 103.266 424.711 103.317C424.831 103.648 425.166 103.861 425.524 103.809L431.78 102.903C433.004 103.838 434.228 104.774 435.45 105.709C433.998 106.257 432.546 106.803 431.092 107.351L425.352 104.665C424.974 104.489 424.526 104.657 424.353 105.042C424.18 105.428 424.344 105.883 424.723 106.06L429.095 108.105C427.225 108.81 425.356 109.513 423.485 110.218C422.721 109.098 421.281 108.595 419.968 109.091C418.409 109.679 417.61 111.446 418.188 113.032C418.766 114.618 420.502 115.432 422.061 114.844C423.374 114.348 424.146 113.013 424.01 111.656C425.88 110.952 427.751 110.247 429.62 109.542L427.61 113.992C427.525 114.186 427.521 114.395 427.588 114.578C427.655 114.763 427.79 114.92 427.981 115.009C428.359 115.187 428.807 115.018 428.98 114.632L431.619 108.79C433.091 108.236 434.564 107.681 436.037 107.126C435.697 108.686 435.358 110.246 435.018 111.807L429.69 115.266C429.385 115.463 429.268 115.847 429.388 116.178C429.407 116.229 429.431 116.278 429.46 116.325C429.685 116.681 430.149 116.787 430.501 116.559L434.557 113.926C434.127 115.908 433.696 117.888 433.264 119.871C431.924 119.92 430.729 120.878 430.427 122.27C430.067 123.921 431.096 125.563 432.717 125.927C434.339 126.292 435.953 125.247 436.311 123.594ZM436.976 106.03C436.973 106.016 436.969 106.002 436.966 105.99C436.973 105.983 436.979 105.976 436.986 105.967C436.997 105.969 437.009 105.969 437.019 105.969C437.022 105.983 437.026 105.997 437.031 106.009C437.024 106.016 437.015 106.023 437.01 106.032C436.998 106.03 436.988 106.03 436.976 106.03Z" fill="#A1B1C1" fill-opacity="0.3"/>
<path d="M78.3108 560.594C78.6143 559.202 77.9285 557.82 76.7336 557.201C77.1639 555.218 77.5942 553.238 78.0262 551.256L80.6132 555.386C80.8361 555.744 81.3024 555.848 81.6539 555.621C82.0053 555.395 82.1082 554.92 81.8853 554.562L78.4874 549.139C78.8286 547.565 79.1714 545.991 79.5143 544.415C80.7813 545.384 82.0482 546.352 83.3151 547.321L84.2049 553.688C84.2135 553.744 84.2255 553.796 84.2443 553.847C84.3643 554.178 84.6986 554.391 85.0569 554.339C85.4684 554.28 85.7547 553.89 85.6964 553.472L85.0192 548.622C86.6136 549.842 88.208 551.06 89.8041 552.278C89.2932 553.54 89.6567 555.042 90.7779 555.899C92.1065 556.914 93.9992 556.64 94.997 555.288C95.9948 553.936 95.7256 552.009 94.3969 550.994C93.2757 550.137 91.7568 550.202 90.7093 551.053C89.1149 549.833 87.5205 548.615 85.9244 547.396L90.6887 546.707C91.1019 546.647 91.3865 546.258 91.3282 545.839C91.2682 545.419 90.8876 545.129 90.4761 545.188L84.2203 546.094C82.9963 545.159 81.7722 544.223 80.5498 543.288C82.0019 542.74 83.454 542.194 84.9078 541.646L90.6476 544.333C91.0247 544.51 91.4722 544.342 91.6471 543.956C91.8202 543.571 91.6556 543.115 91.2767 542.939L86.9051 540.894C88.7755 540.189 90.6441 539.486 92.5145 538.781C93.2809 539.901 94.7175 540.404 96.0325 539.91C97.5908 539.322 98.3898 537.554 97.812 535.968C97.2343 534.382 95.4976 533.569 93.9392 534.157C92.626 534.653 91.8545 535.986 91.9899 537.343C90.1195 538.048 88.2491 538.753 86.3805 539.456L88.3897 535.007C88.5629 534.621 88.3983 534.166 88.0194 533.989C87.6422 533.811 87.1931 533.981 87.0199 534.366L84.3815 540.208C82.9088 540.763 81.4362 541.318 79.9635 541.873C80.3029 540.313 80.6424 538.753 80.9818 537.193L86.3102 533.735C86.6616 533.506 86.7645 533.035 86.5399 532.675C86.317 532.32 85.8507 532.213 85.4993 532.442L81.4413 535.075C81.8716 533.093 82.3036 531.11 82.7339 529.13C84.0746 529.081 85.2678 528.123 85.5713 526.731C85.9313 525.08 84.9026 523.438 83.2808 523.073C81.659 522.707 80.0458 523.754 79.6875 525.404C79.384 526.797 80.0698 528.179 81.2647 528.798C80.8344 530.78 80.4024 532.763 79.9721 534.743L77.3851 530.613C77.1622 530.255 76.6959 530.151 76.3444 530.379C76.0393 530.576 75.9227 530.96 76.0427 531.292C76.0615 531.342 76.0838 531.391 76.1147 531.438L79.5126 536.86C79.1697 538.434 78.8286 540.008 78.4857 541.583C77.2188 540.615 75.9518 539.647 74.6849 538.678L73.7951 532.311C73.7368 531.892 73.3545 531.599 72.9431 531.66C72.5316 531.719 72.2453 532.108 72.3036 532.527L72.9808 537.376C71.3864 536.158 69.7903 534.939 68.1959 533.721C68.7068 532.459 68.3434 530.957 67.2221 530.1C65.8935 529.084 64.0008 529.358 63.003 530.711C62.0053 532.063 62.2744 533.991 63.6031 535.005C64.7243 535.862 66.2432 535.797 67.2907 534.946C68.8851 536.164 70.4795 537.383 72.0756 538.601L67.3113 539.291C66.8998 539.35 66.6135 539.739 66.6718 540.158C66.6804 540.214 66.6924 540.266 66.7113 540.317C66.8313 540.648 67.1656 540.861 67.5239 540.809L73.7797 539.903C75.0038 540.838 76.2278 541.774 77.4502 542.709C75.9981 543.257 74.546 543.803 73.0922 544.351L67.3524 541.665C66.9736 541.489 66.5261 541.657 66.3529 542.042C66.1798 542.428 66.3444 542.883 66.7233 543.06L71.095 545.105C69.2246 545.81 67.3559 546.513 65.4855 547.218C64.7208 546.098 63.2808 545.595 61.9675 546.091C60.4092 546.679 59.6102 548.446 60.188 550.032C60.7657 551.618 62.5024 552.432 64.0608 551.844C65.374 551.348 66.1455 550.013 66.0101 548.656C67.8805 547.952 69.7509 547.247 71.6196 546.542L69.6103 550.992C69.5246 551.186 69.5211 551.395 69.588 551.578C69.6549 551.763 69.7903 551.92 69.9806 552.009C70.3595 552.187 70.8069 552.018 70.9801 551.632L73.6185 545.79C75.0912 545.236 76.5639 544.681 78.0365 544.126C77.6971 545.686 77.3576 547.246 77.0182 548.807L71.6898 552.266C71.3847 552.463 71.2681 552.847 71.3881 553.178C71.407 553.229 71.431 553.278 71.4601 553.325C71.6847 553.681 72.1493 553.787 72.5007 553.559L76.557 550.926C76.1267 552.908 75.6964 554.888 75.2643 556.871C73.9237 556.92 72.7288 557.878 72.427 559.27C72.067 560.921 73.0956 562.563 74.7175 562.927C76.3393 563.292 77.9525 562.247 78.3108 560.594ZM78.976 543.03C78.9726 543.016 78.9691 543.002 78.9657 542.99C78.9726 542.983 78.9794 542.976 78.9863 542.967C78.9966 542.969 79.0086 542.969 79.0189 542.969C79.0223 542.983 79.0257 542.997 79.0309 543.009C79.024 543.016 79.0154 543.023 79.0103 543.032C78.9983 543.03 78.988 543.03 78.976 543.03Z" fill="#A1B1C1" fill-opacity="0.3"/>
<path d="M482.388 82.0365C482.388 82.0287 482.386 82.0183 482.386 82.0104C482.391 82.0052 482.396 82.0026 482.401 82C482.407 82.0026 482.414 82.0026 482.422 82.0052C482.422 82.013 482.425 82.0235 482.425 82.0313C482.42 82.0365 482.414 82.0391 482.409 82.0417C482.404 82.0391 482.396 82.0391 482.388 82.0365ZM415.212 265.529C415.399 264.676 414.974 263.831 414.229 263.453C414.497 262.24 414.766 261.029 415.032 259.816L416.64 262.341C416.779 262.56 417.071 262.623 417.287 262.485C417.506 262.347 417.569 262.057 417.43 261.838L415.316 258.52C415.53 257.557 415.741 256.595 415.955 255.63C416.742 256.222 417.532 256.814 418.319 257.406L418.872 261.301C418.877 261.335 418.885 261.366 418.898 261.397C418.974 261.601 419.182 261.728 419.404 261.697C419.66 261.661 419.84 261.423 419.803 261.168L419.381 258.202C420.374 258.948 421.365 259.694 422.358 260.437C422.04 261.209 422.267 262.127 422.963 262.652C423.79 263.273 424.968 263.106 425.589 262.279C426.209 261.452 426.042 260.273 425.216 259.652C424.52 259.128 423.573 259.167 422.921 259.689C421.928 258.943 420.937 258.199 419.944 257.453L422.908 257.031C423.164 256.994 423.344 256.757 423.307 256.501C423.271 256.243 423.033 256.065 422.778 256.102L418.885 256.655C418.124 256.084 417.363 255.51 416.601 254.939C417.506 254.605 418.408 254.268 419.313 253.934L422.885 255.578C423.12 255.685 423.398 255.583 423.508 255.348C423.615 255.113 423.513 254.834 423.279 254.727L420.559 253.475C421.722 253.045 422.887 252.615 424.05 252.182C424.527 252.868 425.422 253.175 426.24 252.873C427.21 252.513 427.708 251.433 427.349 250.463C426.989 249.492 425.909 248.994 424.939 249.354C424.121 249.657 423.644 250.473 423.727 251.302C422.564 251.733 421.399 252.163 420.236 252.596L421.487 249.876C421.597 249.641 421.493 249.362 421.258 249.252C421.023 249.143 420.744 249.247 420.637 249.482L418.995 253.055C418.08 253.394 417.162 253.734 416.244 254.073C416.455 253.118 416.666 252.163 416.878 251.209L420.194 249.093C420.413 248.955 420.476 248.665 420.338 248.446C420.199 248.227 419.907 248.165 419.691 248.303L417.167 249.915C417.436 248.702 417.704 247.492 417.97 246.279C418.804 246.25 419.548 245.663 419.735 244.81C419.959 243.801 419.318 242.796 418.309 242.575C417.3 242.35 416.296 242.989 416.072 244.002C415.884 244.854 416.309 245.7 417.052 246.078C416.784 247.291 416.515 248.501 416.249 249.714L414.638 247.189C414.5 246.97 414.208 246.907 413.991 247.046C413.801 247.166 413.728 247.4 413.804 247.604C413.814 247.635 413.83 247.664 413.848 247.695L415.962 251.01C415.749 251.973 415.538 252.935 415.324 253.9C414.534 253.308 413.746 252.716 412.959 252.124L412.404 248.23C412.367 247.974 412.13 247.794 411.874 247.831C411.619 247.867 411.439 248.105 411.475 248.36L411.898 251.326C410.904 250.58 409.914 249.834 408.92 249.091C409.238 248.318 409.011 247.4 408.315 246.876C407.489 246.255 406.31 246.422 405.69 247.249C405.069 248.076 405.236 249.255 406.063 249.876C406.761 250.4 407.705 250.361 408.357 249.839C409.35 250.585 410.341 251.329 411.335 252.075L408.37 252.497C408.115 252.534 407.935 252.771 407.971 253.027C407.976 253.061 407.984 253.092 407.995 253.123C408.07 253.327 408.279 253.457 408.5 253.423L412.393 252.87C413.154 253.441 413.916 254.015 414.677 254.587C413.772 254.92 412.87 255.257 411.966 255.591L408.394 253.947C408.159 253.838 407.88 253.942 407.77 254.177C407.663 254.412 407.765 254.691 408 254.798L410.719 256.05C409.556 256.48 408.391 256.911 407.228 257.344C406.751 256.658 405.857 256.35 405.038 256.655C404.068 257.015 403.57 258.095 403.93 259.065C404.29 260.036 405.369 260.531 406.339 260.174C407.155 259.871 407.635 259.055 407.551 258.225C408.714 257.795 409.88 257.364 411.043 256.934L409.791 259.655C409.736 259.772 409.736 259.9 409.778 260.015C409.82 260.127 409.903 260.223 410.023 260.278C410.258 260.388 410.537 260.283 410.644 260.049L412.286 256.475C413.204 256.136 414.119 255.797 415.034 255.458C414.823 256.412 414.612 257.367 414.401 258.322L411.084 260.437C410.894 260.557 410.821 260.792 410.897 260.995C410.907 261.027 410.923 261.055 410.941 261.084C411.079 261.303 411.371 261.366 411.587 261.228L414.111 259.616C413.843 260.828 413.574 262.039 413.308 263.252C412.474 263.28 411.731 263.867 411.543 264.72C411.319 265.73 411.96 266.734 412.969 266.958C413.986 267.18 414.99 266.538 415.212 265.529ZM415.626 254.785C415.624 254.777 415.621 254.769 415.618 254.759C415.624 254.753 415.626 254.751 415.631 254.746C415.639 254.746 415.644 254.746 415.652 254.748C415.655 254.756 415.657 254.766 415.66 254.774C415.655 254.78 415.652 254.782 415.647 254.787C415.642 254.785 415.634 254.785 415.626 254.785Z" fill="#A1B1C1" fill-opacity="0.2"/>
<path d="M74.9897 66.4255C74.8672 65.7186 74.2779 65.21 73.5974 65.1552C73.4227 64.151 73.248 63.1441 73.0734 62.1399L75.0836 63.5562C75.2583 63.6788 75.4981 63.6371 75.6207 63.4623C75.7432 63.2876 75.7015 63.0476 75.5268 62.925L72.8856 61.0652C72.7474 60.267 72.6093 59.4688 72.4685 58.6706C73.2533 58.8741 74.0354 59.0776 74.8202 59.281L76.455 62.0668C76.4707 62.0903 76.4863 62.1138 76.5045 62.132C76.6245 62.2625 76.8252 62.2964 76.9843 62.2025C77.1668 62.0955 77.2294 61.8581 77.1199 61.6756L75.8736 59.5549C76.8591 59.8131 77.8473 60.0688 78.8329 60.3244C78.8329 61.0104 79.2917 61.639 79.9853 61.819C80.8066 62.0329 81.6487 61.5373 81.8625 60.7157C82.0763 59.894 81.5809 59.0515 80.7596 58.8376C80.0661 58.6576 79.3595 58.9811 79.0284 59.581C78.0402 59.3254 77.0547 59.0697 76.0691 58.8115L78.1889 57.5647C78.3714 57.4577 78.4339 57.2204 78.327 57.0378C78.2175 56.8552 77.9829 56.7926 77.8004 56.8995L75.0158 58.5376C74.2597 58.342 73.501 58.1437 72.7448 57.9481C73.3263 57.4108 73.9103 56.8734 74.4917 56.3387L77.7195 56.4717C77.9333 56.4796 78.1106 56.3152 78.1211 56.104C78.1289 55.8901 77.9646 55.7127 77.7508 55.7023L75.2948 55.6005C76.0457 54.9093 76.794 54.2181 77.5449 53.5268C78.1211 53.8972 78.898 53.8529 79.4247 53.3677C80.0505 52.7913 80.0896 51.8131 79.5134 51.1897C78.9372 50.5637 77.962 50.5245 77.3363 51.101C76.8096 51.5862 76.7001 52.3557 77.0234 52.9608C76.2725 53.652 75.5242 54.3433 74.7733 55.0345L74.875 52.5774C74.8828 52.3635 74.7186 52.1861 74.5048 52.1757C74.2936 52.1678 74.1137 52.3322 74.1032 52.5435L73.9703 55.7727C73.381 56.3178 72.7892 56.8604 72.1999 57.4056C72.0617 56.6152 71.9262 55.8249 71.788 55.0319L73.647 52.3896C73.7695 52.2148 73.7278 51.9774 73.5531 51.8522C73.3784 51.7296 73.1385 51.7714 73.016 51.9461L71.6002 53.9598C71.4256 52.9556 71.2509 51.9513 71.0762 50.9445C71.7019 50.6628 72.0826 49.9846 71.96 49.2777C71.814 48.4404 71.0162 47.877 70.1793 48.0231C69.3423 48.1691 68.7792 48.9673 68.9252 49.8046C69.0477 50.5115 69.637 51.0201 70.3175 51.0749C70.4921 52.0792 70.6668 53.086 70.8415 54.0903L68.8287 52.6739C68.654 52.5513 68.4141 52.593 68.2916 52.7678C68.1847 52.9191 68.2029 53.1199 68.3229 53.2503C68.3411 53.2712 68.362 53.2895 68.3855 53.3051L71.0266 55.1649C71.1648 55.9631 71.303 56.7613 71.4438 57.5595C70.659 57.356 69.8768 57.1525 69.092 56.9491L67.4546 54.1633C67.3478 53.9807 67.1105 53.9181 66.928 54.0277C66.7455 54.1346 66.6829 54.372 66.7924 54.5546L68.0387 56.6752C67.0531 56.417 66.065 56.1613 65.0794 55.9057C65.0794 55.2197 64.6205 54.5911 63.927 54.4111C63.1057 54.1972 62.2609 54.6928 62.0497 55.5145C61.8359 56.3361 62.3313 57.1786 63.1526 57.3925C63.8462 57.5725 64.5527 57.2464 64.8865 56.6491C65.872 56.9074 66.8602 57.163 67.8457 57.4186L65.726 58.6654C65.5435 58.7724 65.4809 59.0097 65.5878 59.1923C65.6009 59.2158 65.6191 59.2393 65.6374 59.2575C65.7573 59.388 65.9555 59.4219 66.1145 59.328L68.8991 57.6899C69.6552 57.8881 70.4139 58.0838 71.17 58.2794C70.5886 58.8167 70.0046 59.3514 69.4232 59.8888L66.1953 59.761C65.9841 59.7531 65.8042 59.9175 65.7938 60.1288C65.786 60.3426 65.9502 60.52 66.1614 60.5305L68.6201 60.6322C67.8692 61.3234 67.1209 62.0147 66.37 62.7059C65.7938 62.3329 65.0194 62.3798 64.4928 62.865C63.867 63.4415 63.8279 64.4196 64.4041 65.043C64.9803 65.6691 65.9555 65.7082 66.5812 65.1317C67.1079 64.6466 67.2174 63.8771 66.8941 63.2719C67.645 62.5807 68.3933 61.8894 69.1442 61.1982L69.0425 63.6554C69.0373 63.7623 69.0764 63.8614 69.1442 63.9318C69.212 64.0049 69.3058 64.0518 69.4127 64.0544C69.6265 64.0623 69.8038 63.8979 69.8142 63.684L69.9472 60.4574C70.5365 59.9123 71.1283 59.3697 71.7176 58.8245C71.8558 59.6149 71.9913 60.4079 72.1295 61.1982L70.2705 63.8405C70.1636 63.9918 70.1819 64.1927 70.3018 64.3231C70.3201 64.344 70.3409 64.3622 70.3644 64.3779C70.5391 64.5005 70.7789 64.4587 70.9015 64.284L72.3172 62.2729C72.4919 63.2771 72.6666 64.2814 72.8413 65.2856C72.2182 65.5699 71.8349 66.2455 71.9574 66.9524C72.1034 67.7897 72.9013 68.3531 73.7382 68.2071C74.5725 68.0636 75.1357 67.2628 74.9897 66.4255Z" fill="#A1B1C1" fill-opacity="0.3"/>
<path d="M232.094 164.397C232.295 163.495 231.841 162.597 231.054 162.196C231.338 160.91 231.622 159.624 231.906 158.338L233.614 161.016C233.763 161.249 234.07 161.316 234.3 161.168C234.532 161.022 234.599 160.714 234.451 160.482L232.209 156.963C232.435 155.943 232.66 154.921 232.886 153.898C233.723 154.527 234.558 155.155 235.395 155.781L235.981 159.913C235.987 159.95 235.994 159.984 236.007 160.017C236.086 160.231 236.307 160.37 236.545 160.338C236.816 160.299 237.006 160.046 236.967 159.775L236.518 156.629C237.572 157.422 238.625 158.21 239.676 159.003C239.34 159.822 239.579 160.797 240.317 161.353C241.193 162.013 242.445 161.836 243.102 160.957C243.761 160.077 243.582 158.828 242.706 158.171C241.965 157.615 240.964 157.657 240.273 158.207C239.22 157.417 238.166 156.627 237.113 155.834L240.257 155.385C240.528 155.346 240.719 155.095 240.68 154.821C240.641 154.548 240.39 154.36 240.116 154.399L235.987 154.986C235.178 154.378 234.37 153.773 233.562 153.165C234.521 152.81 235.481 152.453 236.438 152.101L240.229 153.843C240.479 153.958 240.774 153.849 240.888 153.598C241.003 153.348 240.893 153.053 240.643 152.938L237.757 151.611C238.99 151.154 240.226 150.695 241.462 150.238C241.968 150.966 242.917 151.292 243.785 150.971C244.815 150.591 245.341 149.443 244.961 148.413C244.58 147.382 243.433 146.855 242.403 147.236C241.535 147.557 241.026 148.423 241.115 149.305C239.879 149.761 238.646 150.22 237.41 150.677L238.737 147.789C238.852 147.539 238.742 147.244 238.492 147.129C238.242 147.014 237.947 147.124 237.832 147.374L236.091 151.167C235.118 151.527 234.146 151.887 233.173 152.247C233.398 151.235 233.622 150.223 233.846 149.211L237.363 146.965C237.595 146.816 237.663 146.511 237.514 146.279C237.366 146.047 237.058 145.979 236.829 146.128L234.151 147.836C234.435 146.55 234.719 145.264 235.004 143.978C235.887 143.947 236.677 143.324 236.876 142.421C237.113 141.349 236.435 140.285 235.363 140.047C234.292 139.81 233.228 140.488 232.991 141.56C232.79 142.463 233.244 143.36 234.031 143.762C233.747 145.048 233.463 146.334 233.178 147.62L231.471 144.938C231.325 144.706 231.017 144.638 230.785 144.787C230.584 144.915 230.506 145.162 230.587 145.379C230.6 145.413 230.616 145.444 230.634 145.475L232.876 148.994C232.652 150.017 232.425 151.037 232.198 152.059C231.361 151.431 230.527 150.802 229.69 150.173L229.103 146.042C229.064 145.77 228.811 145.58 228.54 145.619C228.269 145.658 228.079 145.911 228.118 146.182L228.566 149.328C227.513 148.535 226.46 147.747 225.409 146.954C225.745 146.135 225.505 145.16 224.767 144.604C223.889 143.944 222.64 144.122 221.98 145.001C221.321 145.877 221.5 147.129 222.376 147.787C223.117 148.342 224.121 148.3 224.812 147.747C225.865 148.54 226.916 149.328 227.969 150.121L224.825 150.57C224.554 150.609 224.363 150.859 224.402 151.133C224.408 151.17 224.415 151.204 224.428 151.235C224.509 151.449 224.728 151.587 224.966 151.556L229.095 150.969C229.904 151.577 230.712 152.182 231.52 152.79C230.561 153.144 229.601 153.499 228.644 153.856L224.853 152.114C224.606 151.999 224.308 152.109 224.194 152.359C224.079 152.61 224.189 152.904 224.439 153.019L227.325 154.347C226.089 154.803 224.856 155.26 223.62 155.719C223.114 154.991 222.165 154.665 221.3 154.986C220.27 155.367 219.743 156.517 220.124 157.545C220.504 158.575 221.652 159.102 222.682 158.721C223.55 158.4 224.058 157.534 223.97 156.653C225.205 156.196 226.439 155.737 227.675 155.281L226.347 158.168C226.29 158.293 226.287 158.429 226.332 158.549C226.376 158.669 226.467 158.771 226.59 158.828C226.84 158.943 227.135 158.833 227.25 158.583L228.991 154.793C229.964 154.433 230.936 154.073 231.909 153.713C231.685 154.725 231.46 155.74 231.236 156.752L227.719 158.995C227.518 159.123 227.44 159.371 227.521 159.587C227.534 159.621 227.549 159.652 227.568 159.681C227.714 159.913 228.024 159.981 228.253 159.832L230.931 158.124C230.647 159.41 230.363 160.696 230.078 161.982C229.195 162.013 228.405 162.636 228.204 163.539C227.967 164.611 228.644 165.675 229.716 165.913C230.793 166.147 231.857 165.469 232.094 164.397ZM232.534 152.998C232.532 152.99 232.529 152.98 232.527 152.972C232.532 152.967 232.534 152.964 232.54 152.956C232.548 152.959 232.555 152.959 232.561 152.959C232.563 152.967 232.566 152.977 232.568 152.985C232.563 152.99 232.558 152.993 232.553 153.001C232.55 152.998 232.542 152.998 232.534 152.998Z" fill="#A1B1C1" fill-opacity="0.3"/>
<path d="M318.094 515.397C318.295 514.495 317.841 513.597 317.054 513.196C317.338 511.91 317.622 510.624 317.906 509.338L319.614 512.016C319.763 512.249 320.07 512.316 320.3 512.168C320.532 512.022 320.599 511.714 320.451 511.482L318.209 507.963C318.435 506.943 318.66 505.921 318.886 504.898C319.723 505.527 320.558 506.155 321.395 506.781L321.981 510.913C321.987 510.95 321.994 510.984 322.007 511.017C322.086 511.231 322.307 511.37 322.545 511.338C322.816 511.299 323.006 511.046 322.967 510.775L322.518 507.629C323.572 508.422 324.625 509.21 325.676 510.003C325.34 510.822 325.579 511.797 326.317 512.353C327.193 513.013 328.445 512.836 329.102 511.957C329.761 511.077 329.582 509.828 328.706 509.171C327.965 508.615 326.964 508.657 326.273 509.207C325.22 508.417 324.166 507.627 323.113 506.834L326.257 506.385C326.528 506.346 326.719 506.095 326.68 505.821C326.641 505.548 326.39 505.36 326.116 505.399L321.987 505.986C321.178 505.378 320.37 504.773 319.562 504.165C320.521 503.81 321.481 503.453 322.438 503.101L326.229 504.843C326.479 504.958 326.774 504.849 326.888 504.598C327.003 504.348 326.893 504.053 326.643 503.938L323.757 502.611C324.99 502.154 326.226 501.695 327.462 501.238C327.968 501.966 328.917 502.292 329.785 501.971C330.815 501.591 331.341 500.443 330.961 499.413C330.58 498.382 329.433 497.855 328.403 498.236C327.535 498.557 327.026 499.423 327.115 500.305C325.879 500.761 324.646 501.22 323.41 501.677L324.737 498.789C324.852 498.539 324.742 498.244 324.492 498.129C324.242 498.014 323.947 498.124 323.832 498.374L322.091 502.167C321.118 502.527 320.146 502.887 319.173 503.247C319.398 502.235 319.622 501.223 319.846 500.211L323.363 497.965C323.595 497.816 323.663 497.511 323.514 497.279C323.366 497.047 323.058 496.979 322.829 497.128L320.151 498.836C320.435 497.55 320.719 496.264 321.004 494.978C321.887 494.947 322.677 494.324 322.876 493.421C323.113 492.349 322.435 491.285 321.363 491.047C320.292 490.81 319.228 491.488 318.991 492.56C318.79 493.463 319.244 494.36 320.031 494.762C319.747 496.048 319.463 497.334 319.178 498.62L317.471 495.938C317.325 495.706 317.017 495.638 316.785 495.787C316.584 495.915 316.506 496.162 316.587 496.379C316.6 496.413 316.616 496.444 316.634 496.475L318.876 499.994C318.652 501.017 318.425 502.037 318.198 503.059C317.361 502.431 316.527 501.802 315.69 501.173L315.103 497.042C315.064 496.77 314.811 496.58 314.54 496.619C314.269 496.658 314.079 496.911 314.118 497.182L314.566 500.328C313.513 499.535 312.46 498.747 311.409 497.954C311.745 497.135 311.505 496.16 310.767 495.604C309.889 494.944 308.64 495.122 307.98 496.001C307.321 496.877 307.5 498.129 308.376 498.787C309.117 499.342 310.121 499.3 310.812 498.747C311.865 499.54 312.916 500.328 313.969 501.121L310.825 501.57C310.554 501.609 310.363 501.859 310.402 502.133C310.408 502.17 310.415 502.204 310.428 502.235C310.509 502.449 310.728 502.587 310.966 502.556L315.095 501.969C315.904 502.577 316.712 503.182 317.52 503.79C316.561 504.144 315.601 504.499 314.644 504.856L310.853 503.114C310.606 502.999 310.308 503.109 310.194 503.359C310.079 503.61 310.189 503.904 310.439 504.019L313.325 505.347C312.089 505.803 310.856 506.26 309.62 506.719C309.114 505.991 308.165 505.665 307.3 505.986C306.27 506.367 305.743 507.517 306.124 508.545C306.504 509.575 307.652 510.102 308.682 509.721C309.55 509.4 310.058 508.534 309.97 507.653C311.205 507.196 312.439 506.737 313.675 506.281L312.347 509.168C312.29 509.293 312.287 509.429 312.332 509.549C312.376 509.669 312.467 509.771 312.59 509.828C312.84 509.943 313.135 509.833 313.25 509.583L314.991 505.793C315.964 505.433 316.936 505.073 317.909 504.713C317.685 505.725 317.46 506.74 317.236 507.752L313.719 509.995C313.518 510.123 313.44 510.371 313.521 510.587C313.534 510.621 313.549 510.652 313.568 510.681C313.714 510.913 314.024 510.981 314.253 510.832L316.931 509.124C316.647 510.41 316.363 511.696 316.078 512.982C315.195 513.013 314.405 513.636 314.204 514.539C313.967 515.611 314.644 516.675 315.716 516.913C316.793 517.147 317.857 516.469 318.094 515.397ZM318.534 503.998C318.532 503.99 318.529 503.98 318.527 503.972C318.532 503.967 318.534 503.964 318.54 503.956C318.548 503.959 318.555 503.959 318.561 503.959C318.563 503.967 318.566 503.977 318.568 503.985C318.563 503.99 318.558 503.993 318.553 504.001C318.55 503.998 318.542 503.998 318.534 503.998Z" fill="#A1B1C1" fill-opacity="0.3"/>
</svg>
  <animate
    xlink:href="#snow1"
    attributeName="y"
    dur="12s"
    begin="0s"
    values="0; 100%"
    keyTimes="0; 1"
    keySplines="0.07183908045977011 0.5114285714285715 0.33620689655172414 0.82;0.07183908045977011 0.5114285714285715 0.33620689655172414 0.82"
    repeatCount="indefinite"
    fill="freeze"
  ></animate>
  <animate
    xlink:href="#snow1"
    attributeName="x"
    dur="12s"
    begin="0s"
    values="0; -20%"
    keyTimes="0; 1"
    keySplines="0.07183908045977011 0.5114285714285715 0.33620689655172414 0.82;0.07183908045977011 0.5114285714285715 0.33620689655172414 0.82"
    repeatCount="indefinite"
    fill="freeze"
  ></animate>
  <animate
    xlink:href="#snow1"
    attributeName="opacity"
    dur="12s"
    begin="0s"
    values="0; 1; 1; 0"
    keyTimes="0; 0.1; 0.8; 1"
    keySplines="0.07183908045977011 0.5114285714285715 0.33620689655172414 0.82;0.07183908045977011 0.5114285714285715 0.33620689655172414 0.82"
    repeatCount="indefinite"
    fill="freeze"
  ></animate>
<svg
  id="snow2">
<path d="M855.094 738.397C855.295 737.495 854.841 736.597 854.054 736.196C854.338 734.91 854.622 733.624 854.906 732.338L856.614 735.016C856.763 735.249 857.07 735.316 857.3 735.168C857.532 735.022 857.599 734.714 857.451 734.482L855.209 730.963C855.435 729.943 855.66 728.921 855.886 727.898C856.723 728.527 857.558 729.155 858.395 729.781L858.981 733.913C858.987 733.95 858.994 733.984 859.007 734.017C859.086 734.231 859.307 734.37 859.545 734.338C859.816 734.299 860.006 734.046 859.967 733.775L859.518 730.629C860.572 731.422 861.625 732.21 862.676 733.003C862.34 733.822 862.579 734.797 863.317 735.353C864.193 736.013 865.445 735.836 866.102 734.957C866.761 734.077 866.582 732.828 865.706 732.171C864.965 731.615 863.964 731.657 863.273 732.207C862.22 731.417 861.166 730.627 860.113 729.834L863.257 729.385C863.528 729.346 863.719 729.095 863.68 728.821C863.641 728.548 863.39 728.36 863.116 728.399L858.987 728.986C858.178 728.378 857.37 727.773 856.562 727.165C857.521 726.81 858.481 726.453 859.438 726.101L863.229 727.843C863.479 727.958 863.774 727.849 863.888 727.598C864.003 727.348 863.893 727.053 863.643 726.938L860.757 725.611C861.99 725.154 863.226 724.695 864.462 724.238C864.968 724.966 865.917 725.292 866.785 724.971C867.815 724.591 868.341 723.443 867.961 722.413C867.58 721.382 866.433 720.855 865.403 721.236C864.535 721.557 864.026 722.423 864.115 723.305C862.879 723.761 861.646 724.22 860.41 724.677L861.737 721.789C861.852 721.539 861.742 721.244 861.492 721.129C861.242 721.014 860.947 721.124 860.832 721.374L859.091 725.167C858.118 725.527 857.146 725.887 856.173 726.247C856.398 725.235 856.622 724.223 856.846 723.211L860.363 720.965C860.595 720.816 860.663 720.511 860.514 720.279C860.366 720.047 860.058 719.979 859.829 720.128L857.151 721.836C857.435 720.55 857.719 719.264 858.004 717.978C858.887 717.947 859.677 717.324 859.876 716.421C860.113 715.349 859.435 714.285 858.363 714.047C857.292 713.81 856.228 714.488 855.991 715.56C855.79 716.463 856.244 717.36 857.031 717.762C856.747 719.048 856.463 720.334 856.178 721.62L854.471 718.938C854.325 718.706 854.017 718.638 853.785 718.787C853.584 718.915 853.506 719.162 853.587 719.379C853.6 719.413 853.616 719.444 853.634 719.475L855.876 722.994C855.652 724.017 855.425 725.037 855.198 726.059C854.361 725.431 853.527 724.802 852.69 724.173L852.103 720.042C852.064 719.77 851.811 719.58 851.54 719.619C851.269 719.658 851.079 719.911 851.118 720.182L851.566 723.328C850.513 722.535 849.46 721.747 848.409 720.954C848.745 720.135 848.505 719.16 847.767 718.604C846.889 717.944 845.64 718.122 844.98 719.001C844.321 719.877 844.5 721.129 845.376 721.787C846.117 722.342 847.121 722.3 847.812 721.747C848.865 722.54 849.916 723.328 850.969 724.121L847.825 724.57C847.554 724.609 847.363 724.859 847.402 725.133C847.408 725.17 847.415 725.204 847.428 725.235C847.509 725.449 847.728 725.587 847.966 725.556L852.095 724.969C852.904 725.577 853.712 726.182 854.52 726.79C853.561 727.144 852.601 727.499 851.644 727.856L847.853 726.114C847.606 725.999 847.308 726.109 847.194 726.359C847.079 726.61 847.189 726.904 847.439 727.019L850.325 728.347C849.089 728.803 847.856 729.26 846.62 729.719C846.114 728.991 845.165 728.665 844.3 728.986C843.27 729.367 842.743 730.517 843.124 731.545C843.504 732.575 844.652 733.102 845.682 732.721C846.55 732.4 847.058 731.534 846.97 730.653C848.205 730.196 849.439 729.737 850.675 729.281L849.347 732.168C849.29 732.293 849.287 732.429 849.332 732.549C849.376 732.669 849.467 732.771 849.59 732.828C849.84 732.943 850.135 732.833 850.25 732.583L851.991 728.793C852.964 728.433 853.936 728.073 854.909 727.713C854.685 728.725 854.46 729.74 854.236 730.752L850.719 732.995C850.518 733.123 850.44 733.371 850.521 733.587C850.534 733.621 850.549 733.652 850.568 733.681C850.714 733.913 851.024 733.981 851.253 733.832L853.931 732.124C853.647 733.41 853.363 734.696 853.078 735.982C852.195 736.013 851.405 736.636 851.204 737.539C850.967 738.611 851.644 739.675 852.716 739.913C853.793 740.147 854.857 739.469 855.094 738.397ZM855.534 726.998C855.532 726.99 855.529 726.98 855.527 726.972C855.532 726.967 855.534 726.964 855.54 726.956C855.548 726.959 855.555 726.959 855.561 726.959C855.563 726.967 855.566 726.977 855.568 726.985C855.563 726.99 855.558 726.993 855.553 727.001C855.55 726.998 855.542 726.998 855.534 726.998Z" fill="#A1B1C1" fill-opacity="0.3"/>
<path d="M272.094 755.397C272.295 754.495 271.841 753.597 271.054 753.196C271.338 751.91 271.622 750.624 271.906 749.338L273.614 752.016C273.763 752.249 274.07 752.316 274.3 752.168C274.532 752.022 274.599 751.714 274.451 751.482L272.209 747.963C272.435 746.943 272.66 745.921 272.886 744.898C273.723 745.527 274.558 746.155 275.395 746.781L275.981 750.913C275.987 750.95 275.994 750.984 276.007 751.017C276.086 751.231 276.307 751.37 276.545 751.338C276.816 751.299 277.006 751.046 276.967 750.775L276.518 747.629C277.572 748.422 278.625 749.21 279.676 750.003C279.34 750.822 279.579 751.797 280.317 752.353C281.193 753.013 282.445 752.836 283.102 751.957C283.761 751.077 283.582 749.828 282.706 749.171C281.965 748.615 280.964 748.657 280.273 749.207C279.22 748.417 278.166 747.627 277.113 746.834L280.257 746.385C280.528 746.346 280.719 746.095 280.68 745.821C280.641 745.548 280.39 745.36 280.116 745.399L275.987 745.986C275.178 745.378 274.37 744.773 273.562 744.165C274.521 743.81 275.481 743.453 276.438 743.101L280.229 744.843C280.479 744.958 280.774 744.849 280.888 744.598C281.003 744.348 280.893 744.053 280.643 743.938L277.757 742.611C278.99 742.154 280.226 741.695 281.462 741.238C281.968 741.966 282.917 742.292 283.785 741.971C284.815 741.591 285.341 740.443 284.961 739.413C284.58 738.382 283.433 737.855 282.403 738.236C281.535 738.557 281.026 739.423 281.115 740.305C279.879 740.761 278.646 741.22 277.41 741.677L278.737 738.789C278.852 738.539 278.742 738.244 278.492 738.129C278.242 738.014 277.947 738.124 277.832 738.374L276.091 742.167C275.118 742.527 274.146 742.887 273.173 743.247C273.398 742.235 273.622 741.223 273.846 740.211L277.363 737.965C277.595 737.816 277.663 737.511 277.514 737.279C277.366 737.047 277.058 736.979 276.829 737.128L274.151 738.836C274.435 737.55 274.719 736.264 275.004 734.978C275.887 734.947 276.677 734.324 276.876 733.421C277.113 732.349 276.435 731.285 275.363 731.047C274.292 730.81 273.228 731.488 272.991 732.56C272.79 733.463 273.244 734.36 274.031 734.762C273.747 736.048 273.463 737.334 273.178 738.62L271.471 735.938C271.325 735.706 271.017 735.638 270.785 735.787C270.584 735.915 270.506 736.162 270.587 736.379C270.6 736.413 270.616 736.444 270.634 736.475L272.876 739.994C272.652 741.017 272.425 742.037 272.198 743.059C271.361 742.431 270.527 741.802 269.69 741.173L269.103 737.042C269.064 736.77 268.811 736.58 268.54 736.619C268.269 736.658 268.079 736.911 268.118 737.182L268.566 740.328C267.513 739.535 266.46 738.747 265.409 737.954C265.745 737.135 265.505 736.16 264.767 735.604C263.889 734.944 262.64 735.122 261.98 736.001C261.321 736.877 261.5 738.129 262.376 738.787C263.117 739.342 264.121 739.3 264.812 738.747C265.865 739.54 266.916 740.328 267.969 741.121L264.825 741.57C264.554 741.609 264.363 741.859 264.402 742.133C264.408 742.17 264.415 742.204 264.428 742.235C264.509 742.449 264.728 742.587 264.966 742.556L269.095 741.969C269.904 742.577 270.712 743.182 271.52 743.79C270.561 744.144 269.601 744.499 268.644 744.856L264.853 743.114C264.606 742.999 264.308 743.109 264.194 743.359C264.079 743.61 264.189 743.904 264.439 744.019L267.325 745.347C266.089 745.803 264.856 746.26 263.62 746.719C263.114 745.991 262.165 745.665 261.3 745.986C260.27 746.367 259.743 747.517 260.124 748.545C260.504 749.575 261.652 750.102 262.682 749.721C263.55 749.4 264.058 748.534 263.97 747.653C265.205 747.196 266.439 746.737 267.675 746.281L266.347 749.168C266.29 749.293 266.287 749.429 266.332 749.549C266.376 749.669 266.467 749.771 266.59 749.828C266.84 749.943 267.135 749.833 267.25 749.583L268.991 745.793C269.964 745.433 270.936 745.073 271.909 744.713C271.685 745.725 271.46 746.74 271.236 747.752L267.719 749.995C267.518 750.123 267.44 750.371 267.521 750.587C267.534 750.621 267.549 750.652 267.568 750.681C267.714 750.913 268.024 750.981 268.253 750.832L270.931 749.124C270.647 750.41 270.363 751.696 270.078 752.982C269.195 753.013 268.405 753.636 268.204 754.539C267.967 755.611 268.644 756.675 269.716 756.913C270.793 757.147 271.857 756.469 272.094 755.397ZM272.534 743.998C272.532 743.99 272.529 743.98 272.527 743.972C272.532 743.967 272.534 743.964 272.54 743.956C272.548 743.959 272.555 743.959 272.561 743.959C272.563 743.967 272.566 743.977 272.568 743.985C272.563 743.99 272.558 743.993 272.553 744.001C272.55 743.998 272.542 743.998 272.534 743.998Z" fill="#A1B1C1" fill-opacity="0.3"/>
<path d="M718.094 47.397C718.295 46.4945 717.841 45.5972 717.054 45.1955C717.338 43.9096 717.622 42.6236 717.906 41.3376L719.614 44.0165C719.763 44.2486 720.07 44.3165 720.3 44.1678C720.532 44.0217 720.599 43.7139 720.451 43.4818L718.209 39.963C718.435 38.9431 718.66 37.9206 718.886 36.8981C719.723 37.5267 720.558 38.1554 721.395 38.7814L721.981 42.9131C721.987 42.9497 721.994 42.9836 722.007 43.0175C722.086 43.2314 722.307 43.3696 722.545 43.3383C722.816 43.2992 723.006 43.0462 722.967 42.7749L722.518 39.6291C723.572 40.4221 724.625 41.2098 725.676 42.0028C725.34 42.8218 725.579 43.7974 726.317 44.353C727.193 45.0129 728.445 44.8355 729.102 43.9565C729.761 43.0775 729.582 41.828 728.706 41.1707C727.965 40.6151 726.964 40.6568 726.273 41.2072C725.22 40.4169 724.166 39.6265 723.113 38.8336L726.257 38.3849C726.528 38.3458 726.719 38.0954 726.68 37.8215C726.641 37.5476 726.39 37.3598 726.116 37.3989L721.987 37.9858C721.178 37.3781 720.37 36.7729 719.562 36.1651C720.521 35.8104 721.481 35.453 722.438 35.1009L726.229 36.8433C726.479 36.9581 726.774 36.8485 726.888 36.5981C727.003 36.3477 726.893 36.053 726.643 35.9382L723.757 34.6105C724.99 34.154 726.226 33.695 727.462 33.2385C727.968 33.9662 728.917 34.2923 729.785 33.9715C730.815 33.5906 731.341 32.4429 730.961 31.4126C730.58 30.3823 729.433 29.8554 728.403 30.2362C727.535 30.557 727.026 31.423 727.115 32.3047C725.879 32.7611 724.646 33.2202 723.41 33.6767L724.737 30.7892C724.852 30.5388 724.742 30.244 724.492 30.1292C724.242 30.0145 723.947 30.124 723.832 30.3744L722.091 34.1671C721.118 34.527 720.146 34.887 719.173 35.247C719.398 34.2349 719.622 33.2228 719.846 32.2108L723.363 29.9649C723.595 29.8162 723.663 29.511 723.514 29.2789C723.366 29.0467 723.058 28.9789 722.829 29.1276L720.151 30.8361C720.435 29.5502 720.719 28.2642 721.004 26.9783C721.887 26.947 722.677 26.3235 722.876 25.421C723.113 24.349 722.435 23.2847 721.363 23.0474C720.292 22.81 719.228 23.4882 718.991 24.5602C718.79 25.4628 719.244 26.3601 720.031 26.7618C719.747 28.0477 719.463 29.3337 719.178 30.6196L717.471 27.9382C717.325 27.706 717.017 27.6382 716.785 27.7869C716.584 27.9147 716.506 28.1625 716.587 28.379C716.6 28.4129 716.616 28.4442 716.634 28.4755L718.876 31.9943C718.652 33.0168 718.425 34.0367 718.198 35.0592C717.361 34.4305 716.527 33.8019 715.69 33.1733L715.103 29.0415C715.064 28.7702 714.811 28.5798 714.54 28.619C714.269 28.6581 714.079 28.9111 714.118 29.1824L714.566 32.3281C713.513 31.5352 712.46 30.7474 711.409 29.9545C711.745 29.1354 711.505 28.1599 710.767 27.6043C709.889 26.9444 708.64 27.1217 707.98 28.0008C707.321 28.8772 707.5 30.1292 708.376 30.7866C709.117 31.3422 710.121 31.3004 710.812 30.7474C711.865 31.5404 712.916 32.3281 713.969 33.1211L710.825 33.5698C710.554 33.6089 710.363 33.8593 710.402 34.1332C710.408 34.1697 710.415 34.2036 710.428 34.2349C710.509 34.4488 710.728 34.587 710.966 34.5557L715.095 33.9688C715.904 34.5766 716.712 35.1818 717.52 35.7895C716.561 36.1443 715.601 36.499 714.644 36.8564L710.853 35.1139C710.606 34.9992 710.308 35.1087 710.194 35.3591C710.079 35.6095 710.189 35.9043 710.439 36.0191L713.325 37.3467C712.089 37.8032 710.856 38.2597 709.62 38.7188C709.114 37.991 708.165 37.665 707.3 37.9858C706.27 38.3666 705.743 39.517 706.124 40.5447C706.504 41.575 707.652 42.1019 708.682 41.7211C709.55 41.4002 710.058 40.5343 709.97 39.6526C711.205 39.1961 712.439 38.737 713.675 38.2806L712.347 41.1681C712.29 41.2933 712.287 41.4289 712.332 41.5489C712.376 41.6689 712.467 41.7706 712.59 41.828C712.84 41.9428 713.135 41.8332 713.25 41.5828L714.991 37.7928C715.964 37.4328 716.936 37.0729 717.909 36.7129C717.685 37.725 717.46 38.7396 717.236 39.7517L713.719 41.995C713.518 42.1228 713.44 42.3706 713.521 42.5871C713.534 42.621 713.549 42.6523 713.568 42.681C713.714 42.9131 714.024 42.981 714.253 42.8323L716.931 41.1238C716.647 42.4097 716.363 43.6957 716.078 44.9816C715.195 45.0129 714.405 45.6363 714.204 46.5388C713.967 47.6109 714.644 48.6751 715.716 48.9125C716.793 49.1473 717.857 48.4691 718.094 47.397ZM718.534 35.9982C718.532 35.9904 718.529 35.9799 718.527 35.9721C718.532 35.9669 718.534 35.9643 718.54 35.9565C718.548 35.9591 718.555 35.9591 718.561 35.9591C718.563 35.9669 718.566 35.9773 718.568 35.9852C718.563 35.9904 718.558 35.993 718.553 36.0008C718.55 35.9982 718.542 35.9982 718.534 35.9982Z" fill="#A1B1C1" fill-opacity="0.3"/>
<path d="M1185.09 53.397C1185.29 52.4945 1184.84 51.5972 1184.05 51.1955C1184.34 49.9096 1184.62 48.6236 1184.91 47.3376L1186.61 50.0165C1186.76 50.2486 1187.07 50.3165 1187.3 50.1678C1187.53 50.0217 1187.6 49.7139 1187.45 49.4818L1185.21 45.963C1185.44 44.9431 1185.66 43.9206 1185.89 42.8981C1186.72 43.5267 1187.56 44.1554 1188.39 44.7814L1188.98 48.9131C1188.99 48.9497 1188.99 48.9836 1189.01 49.0175C1189.09 49.2314 1189.31 49.3696 1189.54 49.3383C1189.82 49.2992 1190.01 49.0462 1189.97 48.7749L1189.52 45.6291C1190.57 46.4221 1191.63 47.2098 1192.68 48.0028C1192.34 48.8218 1192.58 49.7974 1193.32 50.353C1194.19 51.0129 1195.44 50.8355 1196.1 49.9565C1196.76 49.0775 1196.58 47.828 1195.71 47.1707C1194.97 46.6151 1193.96 46.6568 1193.27 47.2072C1192.22 46.4169 1191.17 45.6265 1190.11 44.8336L1193.26 44.3849C1193.53 44.3458 1193.72 44.0954 1193.68 43.8215C1193.64 43.5476 1193.39 43.3598 1193.12 43.3989L1188.99 43.9858C1188.18 43.3781 1187.37 42.7729 1186.56 42.1651C1187.52 41.8104 1188.48 41.453 1189.44 41.1009L1193.23 42.8433C1193.48 42.9581 1193.77 42.8485 1193.89 42.5981C1194 42.3477 1193.89 42.053 1193.64 41.9382L1190.76 40.6105C1191.99 40.154 1193.23 39.695 1194.46 39.2385C1194.97 39.9662 1195.92 40.2923 1196.78 39.9715C1197.81 39.5906 1198.34 38.4429 1197.96 37.4126C1197.58 36.3823 1196.43 35.8554 1195.4 36.2362C1194.53 36.557 1194.03 37.423 1194.12 38.3047C1192.88 38.7611 1191.65 39.2202 1190.41 39.6767L1191.74 36.7892C1191.85 36.5388 1191.74 36.244 1191.49 36.1292C1191.24 36.0145 1190.95 36.124 1190.83 36.3744L1189.09 40.1671C1188.12 40.527 1187.15 40.887 1186.17 41.247C1186.4 40.2349 1186.62 39.2228 1186.85 38.2108L1190.36 35.9649C1190.6 35.8162 1190.66 35.511 1190.51 35.2789C1190.37 35.0467 1190.06 34.9789 1189.83 35.1276L1187.15 36.8361C1187.44 35.5502 1187.72 34.2642 1188 32.9783C1188.89 32.947 1189.68 32.3235 1189.88 31.421C1190.11 30.349 1189.43 29.2847 1188.36 29.0474C1187.29 28.81 1186.23 29.4882 1185.99 30.5602C1185.79 31.4628 1186.24 32.3601 1187.03 32.7618C1186.75 34.0477 1186.46 35.3337 1186.18 36.6196L1184.47 33.9382C1184.32 33.706 1184.02 33.6382 1183.78 33.7869C1183.58 33.9147 1183.51 34.1625 1183.59 34.379C1183.6 34.4129 1183.62 34.4442 1183.63 34.4755L1185.88 37.9943C1185.65 39.0168 1185.42 40.0367 1185.2 41.0592C1184.36 40.4305 1183.53 39.8019 1182.69 39.1733L1182.1 35.0415C1182.06 34.7702 1181.81 34.5798 1181.54 34.619C1181.27 34.6581 1181.08 34.9111 1181.12 35.1824L1181.57 38.3281C1180.51 37.5352 1179.46 36.7474 1178.41 35.9545C1178.75 35.1354 1178.51 34.1599 1177.77 33.6043C1176.89 32.9444 1175.64 33.1217 1174.98 34.0008C1174.32 34.8772 1174.5 36.1292 1175.38 36.7866C1176.12 37.3422 1177.12 37.3004 1177.81 36.7474C1178.87 37.5404 1179.92 38.3281 1180.97 39.1211L1177.82 39.5698C1177.55 39.6089 1177.36 39.8593 1177.4 40.1332C1177.41 40.1697 1177.42 40.2036 1177.43 40.2349C1177.51 40.4488 1177.73 40.587 1177.97 40.5557L1182.1 39.9688C1182.9 40.5766 1183.71 41.1818 1184.52 41.7895C1183.56 42.1443 1182.6 42.499 1181.64 42.8564L1177.85 41.1139C1177.61 40.9992 1177.31 41.1087 1177.19 41.3591C1177.08 41.6095 1177.19 41.9043 1177.44 42.0191L1180.33 43.3467C1179.09 43.8032 1177.86 44.2597 1176.62 44.7188C1176.11 43.991 1175.17 43.665 1174.3 43.9858C1173.27 44.3666 1172.74 45.517 1173.12 46.5447C1173.5 47.575 1174.65 48.1019 1175.68 47.7211C1176.55 47.4002 1177.06 46.5343 1176.97 45.6526C1178.21 45.1961 1179.44 44.737 1180.67 44.2806L1179.35 47.1681C1179.29 47.2933 1179.29 47.4289 1179.33 47.5489C1179.38 47.6689 1179.47 47.7706 1179.59 47.828C1179.84 47.9428 1180.13 47.8332 1180.25 47.5828L1181.99 43.7928C1182.96 43.4328 1183.94 43.0729 1184.91 42.7129C1184.68 43.725 1184.46 44.7396 1184.24 45.7517L1180.72 47.995C1180.52 48.1228 1180.44 48.3706 1180.52 48.5871C1180.53 48.621 1180.55 48.6523 1180.57 48.681C1180.71 48.9131 1181.02 48.981 1181.25 48.8323L1183.93 47.1238C1183.65 48.4097 1183.36 49.6957 1183.08 50.9816C1182.19 51.0129 1181.4 51.6363 1181.2 52.5388C1180.97 53.6109 1181.64 54.6751 1182.72 54.9125C1183.79 55.1473 1184.86 54.4691 1185.09 53.397ZM1185.53 41.9982C1185.53 41.9904 1185.53 41.9799 1185.53 41.9721C1185.53 41.9669 1185.53 41.9643 1185.54 41.9565C1185.55 41.9591 1185.56 41.9591 1185.56 41.9591C1185.56 41.9669 1185.57 41.9773 1185.57 41.9852C1185.56 41.9904 1185.56 41.993 1185.55 42.0008C1185.55 41.9982 1185.54 41.9982 1185.53 41.9982Z" fill="#A1B1C1" fill-opacity="0.3"/>
<path d="M540.874 492.834C541.154 491.582 540.521 490.338 539.423 489.781C539.819 487.997 540.216 486.214 540.612 484.431L542.995 488.146C543.203 488.468 543.632 488.562 543.952 488.356C544.276 488.153 544.37 487.726 544.163 487.404L541.034 482.524C541.351 481.11 541.664 479.692 541.98 478.274C543.148 479.146 544.312 480.018 545.48 480.886L546.298 486.616C546.306 486.666 546.317 486.713 546.335 486.76C546.444 487.057 546.753 487.249 547.084 487.205C547.463 487.151 547.728 486.8 547.673 486.424L547.048 482.061C548.517 483.161 549.987 484.253 551.453 485.353C550.984 486.489 551.319 487.842 552.348 488.612C553.571 489.528 555.317 489.282 556.233 488.063C557.154 486.844 556.903 485.111 555.68 484.199C554.647 483.429 553.25 483.487 552.286 484.25C550.817 483.154 549.347 482.058 547.877 480.958L552.265 480.336C552.643 480.282 552.908 479.934 552.854 479.554C552.799 479.175 552.45 478.914 552.068 478.968L546.306 479.782C545.178 478.94 544.05 478.1 542.922 477.257C544.261 476.765 545.6 476.27 546.935 475.782L552.224 478.198C552.574 478.357 552.985 478.205 553.145 477.858C553.305 477.511 553.152 477.102 552.803 476.943L548.776 475.102C550.496 474.468 552.221 473.832 553.945 473.199C554.651 474.208 555.975 474.66 557.187 474.215C558.624 473.687 559.358 472.095 558.827 470.667C558.296 469.238 556.695 468.507 555.258 469.035C554.047 469.48 553.338 470.681 553.461 471.904C551.737 472.537 550.016 473.173 548.292 473.806L550.144 469.802C550.304 469.455 550.151 469.046 549.802 468.887C549.452 468.728 549.041 468.88 548.881 469.227L546.451 474.487C545.094 474.986 543.737 475.485 542.38 475.984C542.693 474.581 543.006 473.177 543.319 471.774L548.226 468.659C548.55 468.453 548.645 468.03 548.437 467.708C548.23 467.386 547.801 467.292 547.481 467.498L543.745 469.867C544.141 468.084 544.538 466.3 544.934 464.517C546.167 464.474 547.27 463.609 547.546 462.357C547.877 460.871 546.931 459.395 545.436 459.066C543.941 458.736 542.457 459.677 542.126 461.164C541.846 462.415 542.479 463.66 543.577 464.217C543.181 466 542.784 467.784 542.388 469.567L540.005 465.848C539.801 465.526 539.372 465.432 539.048 465.638C538.768 465.816 538.659 466.159 538.772 466.46C538.79 466.507 538.812 466.55 538.837 466.593L541.966 471.473C541.653 472.891 541.336 474.306 541.02 475.724C539.852 474.852 538.688 473.98 537.52 473.108L536.702 467.378C536.647 467.002 536.294 466.738 535.916 466.792C535.537 466.847 535.272 467.198 535.327 467.574L535.952 471.936C534.483 470.837 533.013 469.744 531.547 468.644C532.016 467.509 531.681 466.156 530.652 465.385C529.426 464.47 527.683 464.716 526.763 465.935C525.843 467.151 526.094 468.887 527.316 469.798C528.349 470.569 529.75 470.511 530.714 469.744C532.183 470.844 533.649 471.936 535.119 473.036L530.732 473.658C530.354 473.712 530.088 474.06 530.143 474.44C530.15 474.49 530.161 474.537 530.179 474.581C530.292 474.877 530.597 475.069 530.928 475.026L536.691 474.212C537.818 475.054 538.946 475.894 540.074 476.737C538.735 477.229 537.396 477.72 536.061 478.216L530.772 475.8C530.426 475.64 530.012 475.792 529.851 476.14C529.691 476.487 529.844 476.896 530.193 477.055L534.221 478.896C532.496 479.529 530.776 480.162 529.051 480.799C528.345 479.79 527.021 479.337 525.813 479.782C524.376 480.311 523.642 481.906 524.173 483.331C524.704 484.76 526.305 485.491 527.741 484.962C528.953 484.518 529.662 483.317 529.539 482.094C531.263 481.461 532.984 480.824 534.708 480.191L532.856 484.196C532.776 484.369 532.773 484.557 532.835 484.724C532.896 484.89 533.024 485.031 533.195 485.111C533.544 485.27 533.955 485.118 534.115 484.771L536.545 479.515C537.902 479.016 539.259 478.516 540.616 478.017C540.303 479.421 539.99 480.828 539.677 482.231L534.77 485.342C534.49 485.52 534.381 485.863 534.493 486.163C534.512 486.21 534.533 486.254 534.559 486.294C534.763 486.616 535.196 486.71 535.516 486.503L539.252 484.134C538.855 485.917 538.459 487.701 538.062 489.484C536.829 489.528 535.727 490.392 535.447 491.644C535.115 493.131 536.061 494.606 537.557 494.936C539.059 495.261 540.543 494.321 540.874 492.834ZM541.489 477.026C541.485 477.015 541.482 477.001 541.478 476.99C541.485 476.983 541.489 476.979 541.496 476.968C541.507 476.972 541.518 476.972 541.525 476.972C541.529 476.983 541.533 476.997 541.536 477.008C541.529 477.015 541.522 477.019 541.515 477.03C541.511 477.026 541.5 477.026 541.489 477.026Z" fill="#A1B1C1" fill-opacity="0.3"/>
<path d="M285.809 493.046C285.768 494.297 286.771 495.397 288.011 495.462C289.25 495.527 290.321 494.535 290.36 493.284C290.401 492.029 289.398 490.932 288.158 490.867C286.918 490.802 285.85 491.794 285.809 493.046Z" fill="#A1B1C1" fill-opacity="0.3"/>
<path d="M175.975 426.042C175.912 427.971 177.454 429.661 179.363 429.763C181.271 429.862 182.915 428.338 182.978 426.41C183.041 424.482 181.498 422.791 179.59 422.689C177.682 422.591 176.038 424.117 175.975 426.042Z" fill="#A1B1C1" fill-opacity="0.3"/>
<path d="M420.98 238.573C420.85 242.621 427.066 242.946 427.194 238.897C427.328 234.852 421.111 234.525 420.98 238.573Z" fill="#A1B1C1" fill-opacity="0.3"/>
<path d="M123.96 225.803C123.803 230.676 131.288 231.069 131.446 226.195C131.601 221.322 124.118 220.93 123.96 225.803Z" fill="#A1B1C1" fill-opacity="0.3"/>
<path d="M365.3 238.505C365.212 241.24 369.414 241.462 369.501 238.724C369.588 235.99 365.387 235.77 365.3 238.505Z" fill="#A1B1C1" fill-opacity="0.3"/>
<path d="M172.996 161.564C172.933 163.501 175.909 163.659 175.972 161.718C176.035 159.784 173.059 159.626 172.996 161.564Z" fill="#A1B1C1" fill-opacity="0.3"/>
<path d="M243.283 471.918C243.213 474.112 246.581 474.288 246.654 472.094C246.724 469.9 243.353 469.724 243.283 471.918Z" fill="#A1B1C1" fill-opacity="0.3"/>
<path d="M330.123 178.709C330.014 182.102 335.223 182.374 335.332 178.981C335.441 175.591 330.232 175.319 330.123 178.709Z" fill="#A1B1C1" fill-opacity="0.3"/>
<path d="M23.5203 223.074C23.8738 223.124 24.2177 223.077 24.564 223.019C26.3149 222.722 26.4045 219.959 24.6778 219.48C24.3364 219.384 23.9949 219.304 23.6414 219.316C22.6291 219.35 21.7549 220.009 21.721 221.096C21.6847 222.187 22.5129 222.932 23.5203 223.074Z" fill="#A1B1C1" fill-opacity="0.3"/>
</svg>
 <animate
    xlink:href="#snow2"
    attributeName="y"
    dur="12s"
    begin="3s"
    values="0; 100%"
    keyTimes="0; 1"
    keySplines="0.07183908045977011 0.5114285714285715 0.33620689655172414 0.82;0.07183908045977011 0.5114285714285715 0.33620689655172414 0.82"
    repeatCount="indefinite"
    fill="freeze"
  ></animate>
  <animate
    xlink:href="#snow2"
    attributeName="x"
    dur="12s"
    begin="3s"
    values="0; -20%"
    keyTimes="0; 1"
    keySplines="0.07183908045977011 0.5114285714285715 0.33620689655172414 0.82;0.07183908045977011 0.5114285714285715 0.33620689655172414 0.82"
    repeatCount="indefinite"
    fill="freeze"
  ></animate>
  <animate
    xlink:href="#snow2"
    attributeName="opacity"
    dur="12s"
    begin="3s"
    values="0; 1; 1; 0"
    keyTimes="0; 0.1; 0.8; 1"
    keySplines="0.07183908045977011 0.5114285714285715 0.33620689655172414 0.82;0.07183908045977011 0.5114285714285715 0.33620689655172414 0.82"
    repeatCount="indefinite"
    fill="freeze"
  ></animate>
<path d="M162.183 192.049C162.15 192.005 162.118 191.962 162.084 191.919C162.171 192.833 162.258 193.745 162.343 194.66C163.159 193.544 163.058 191.94 162.108 190.899C161.016 189.7 159.127 189.601 157.96 190.683C156.793 191.764 156.732 193.671 157.824 194.87C158.774 195.911 160.348 196.149 161.517 195.423C160.621 195.259 159.728 195.095 158.834 194.932C158.875 194.969 158.914 195.006 158.955 195.043C159.406 195.463 159.871 195.744 160.498 195.778C161.082 195.809 161.655 195.602 162.082 195.207C162.508 194.811 162.76 194.252 162.779 193.662C162.801 193.028 162.559 192.537 162.183 192.049Z" fill="#A1B1C1" fill-opacity="0.3"/>
<path d="M100.957 310.441C100.88 312.836 104.556 313.027 104.633 310.632C104.711 308.24 101.035 308.046 100.957 310.441Z" fill="#A1B1C1" fill-opacity="0.3"/>
<path d="M48.5698 313.667C48.64 313.583 48.7126 313.497 48.7829 313.413C49.8266 312.165 49.381 310.036 47.497 309.937C45.6129 309.838 45.0317 311.915 45.9907 313.265C46.0561 313.358 46.1215 313.447 46.1869 313.54C46.6809 314.239 48.0297 314.31 48.5698 313.667Z" fill="#A1B1C1" fill-opacity="0.3"/>
<path d="M378.764 208.456C378.638 212.331 384.593 212.643 384.716 208.768C384.84 204.89 378.887 204.577 378.764 208.456Z" fill="#A1B1C1" fill-opacity="0.3"/>
<path d="M247.945 178.855C247.954 178.802 247.961 178.75 247.971 178.7C247.758 178.957 247.545 179.216 247.332 179.473C247.971 179.188 248.429 178.645 248.451 177.906C248.482 176.948 247.714 176.108 246.765 176.055C245.99 176.015 245.273 176.515 245.043 177.257C244.775 178.129 245.218 178.966 245.981 179.399C245.784 179.12 245.588 178.839 245.392 178.561C245.397 178.614 245.402 178.666 245.409 178.719C245.467 179.297 246.119 179.732 246.644 179.76C247.172 179.788 247.85 179.423 247.945 178.855Z" fill="#A1B1C1" fill-opacity="0.3"/>
<path d="M549.315 151.791C549.216 154.841 553.899 155.085 553.999 152.035C554.098 148.985 549.415 148.741 549.315 151.791Z" fill="#A1B1C1" fill-opacity="0.3"/>
<path d="M295.699 426.044C295.554 430.574 302.511 430.942 302.659 426.408C302.804 421.875 295.847 421.51 295.699 426.044Z" fill="#A1B1C1" fill-opacity="0.3"/>
<path d="M142.11 503.118C141.999 506.595 147.339 506.876 147.45 503.4C147.562 499.92 142.222 499.642 142.11 503.118Z" fill="#A1B1C1" fill-opacity="0.3"/>
<path d="M170.955 525.581C170.894 527.491 173.827 527.645 173.887 525.736C173.95 523.826 171.018 523.671 170.955 525.581Z" fill="#A1B1C1" fill-opacity="0.3"/>
<path d="M338.618 390.862C338.64 390.723 338.657 390.584 338.693 390.454C338.625 390.645 338.557 390.837 338.487 391.029C338.494 391.007 338.504 390.985 338.514 390.967C338.412 391.127 338.31 391.288 338.209 391.449C338.218 391.433 338.228 391.418 338.243 391.406C338.112 391.529 337.984 391.65 337.853 391.773C337.86 391.767 337.865 391.764 337.872 391.758C337.722 391.832 337.569 391.909 337.419 391.983C337.434 391.974 337.451 391.968 337.468 391.968C337.301 391.99 337.134 392.011 336.966 392.03C337.221 392.005 337.451 391.965 337.695 391.919C338.502 391.767 339.095 390.639 339.129 389.623C339.141 389.178 339.071 388.76 338.916 388.368C338.715 387.864 338.291 387.293 337.848 387.181C337.315 387.048 337.192 387.002 336.652 387.101C336.162 387.191 335.678 387.722 335.414 388.254C335.029 389.029 335.08 389.811 335.153 390.676C335.225 391.084 335.368 391.443 335.581 391.755C335.901 392.218 336.354 392.496 336.828 392.521C337.153 392.537 337.458 392.444 337.746 392.243C338.117 391.98 338.531 391.433 338.618 390.862Z" fill="#A1B1C1" fill-opacity="0.3"/>
<path d="M131.448 415.74C131.324 419.587 137.233 419.896 137.357 416.049C137.48 412.201 131.571 411.892 131.448 415.74Z" fill="#A1B1C1" fill-opacity="0.3"/>
<path d="M100.238 453.069C100.158 455.52 103.924 455.718 104.001 453.267C104.081 450.814 100.318 450.616 100.238 453.069Z" fill="#A1B1C1" fill-opacity="0.3"/>
<path d="M0.00133806 290.598C-0.085841 293.333 4.11571 293.556 4.20288 290.818C4.29006 288.08 0.0885171 287.86 0.00133806 290.598Z" fill="#A1B1C1" fill-opacity="0.3"/>
<path d="M139.529 368.549C139.442 371.284 143.643 371.506 143.731 368.768C143.82 366.031 139.619 365.811 139.529 368.549Z" fill="#A1B1C1" fill-opacity="0.3"/>
<animate
    xlink:href="#snow3"
    attributeName="y"
    dur="12s"
    begin="6s"
    values="0; 100%"
    keyTimes="0; 1"
    keySplines="0.07183908045977011 0.5114285714285715 0.33620689655172414 0.82;0.07183908045977011 0.5114285714285715 0.33620689655172414 0.82"
    repeatCount="indefinite"
    fill="freeze"
  ></animate>
  <animate
    xlink:href="#snow3"
    attributeName="x"
    dur="12s"
    begin="6s"
    values="0; -20%"
    keyTimes="0; 1"
    keySplines="0.07183908045977011 0.5114285714285715 0.33620689655172414 0.82;0.07183908045977011 0.5114285714285715 0.33620689655172414 0.82"
    repeatCount="indefinite"
    fill="freeze"
  ></animate>
  <animate
    xlink:href="#snow3"
    attributeName="opacity"
    dur="12s"
    begin="6s"
    values="0; 1; 1; 0"
    keyTimes="0; 0.1; 0.8; 1"
    keySplines="0.07183908045977011 0.5114285714285715 0.33620689655172414 0.82;0.07183908045977011 0.5114285714285715 0.33620689655172414 0.82"
    repeatCount="indefinite"
    fill="freeze"
  ></animate>
<svg
  id="snow3">
<path d="M330.617 98.1043C330.634 98.0765 330.651 98.0518 330.665 98.024C330.096 98.4257 329.525 98.8275 328.956 99.2323C330.45 99.0809 331.564 97.5945 331.61 96.139C331.668 94.3281 330.22 92.7366 328.423 92.6409C326.628 92.5481 325.081 93.982 325.023 95.7929C324.977 97.2484 325.992 98.846 327.471 99.155C326.929 98.6946 326.386 98.2341 325.846 97.7737C325.861 97.8015 325.875 97.8293 325.89 97.8571C326.849 99.7051 329.544 99.8472 330.617 98.1043Z" fill="#A1B1C1" fill-opacity="0.3"/>
<path d="M121.955 491.431C121.885 493.625 125.253 493.801 125.326 491.607C125.396 489.413 122.025 489.234 121.955 491.431Z" fill="#A1B1C1" fill-opacity="0.3"/>
<path d="M117.315 165.89C117.235 168.34 121.001 168.538 121.078 166.088C121.158 163.637 117.393 163.439 117.315 165.89Z" fill="#A1B1C1" fill-opacity="0.3"/>
<path d="M354.349 423.272C354.196 428.031 361.505 428.414 361.657 423.655C361.812 418.896 354.504 418.513 354.349 423.272Z" fill="#A1B1C1" fill-opacity="0.3"/>
<path d="M166.412 70.3652C165.903 70.7082 165.477 70.9647 165.167 71.524C164.76 72.2657 164.503 73.1773 164.762 74.0364C164.971 74.7348 165.114 75.0191 165.574 75.5784C165.782 75.8318 166.063 76.0141 166.31 76.2243C166.797 76.5395 167.325 76.7156 167.898 76.7465C168.736 76.7898 169.562 76.4931 170.172 75.9245C171.417 74.7688 171.526 72.6674 170.318 71.3912C170.289 71.3633 170.264 71.3324 170.238 71.2985C170.395 71.524 170.555 71.7496 170.715 71.9752C170.7 71.9567 170.691 71.9381 170.681 71.9165C170.78 72.1792 170.88 72.4387 170.976 72.7014C170.969 72.686 170.964 72.6674 170.962 72.6489C170.991 72.9363 171.02 73.2237 171.049 73.511C171.049 73.5018 171.049 73.4956 171.049 73.4863C171.003 73.7706 170.955 74.0518 170.909 74.3361C170.911 74.3269 170.913 74.3207 170.916 74.3145C170.8 74.5648 170.686 74.8151 170.57 75.0654C170.574 75.0592 170.579 75.0531 170.584 75.0438C170.41 75.2508 170.238 75.461 170.063 75.6711C170.071 75.6649 170.078 75.6587 170.085 75.6526C169.865 75.8102 169.644 75.9678 169.422 76.1223C169.431 76.1161 169.441 76.113 169.453 76.1068C170.988 75.3126 171.567 73.3071 170.741 71.7527C170.347 71.008 169.671 70.4332 168.879 70.1705C168.136 69.9202 167.085 69.914 166.412 70.3652Z" fill="#A1B1C1" fill-opacity="0.3"/>
<path d="M266.247 125.329C266.158 128.15 270.49 128.379 270.58 125.558C270.672 122.733 266.337 122.508 266.247 125.329Z" fill="#A1B1C1" fill-opacity="0.3"/>
<path d="M542.518 298.508C542.45 300.584 544.111 302.407 546.167 302.516C548.223 302.624 549.996 300.98 550.061 298.903C550.129 296.826 548.468 295.003 546.412 294.895C544.356 294.787 542.583 296.431 542.518 298.508Z" fill="#A1B1C1" fill-opacity="0.3"/>
<path d="M620.759 815.957C620.718 817.199 621.713 818.291 622.944 818.356C624.175 818.42 625.238 817.436 625.276 816.193C625.317 814.948 624.322 813.859 623.091 813.794C621.86 813.73 620.8 814.714 620.759 815.957Z" fill="#A1B1C1" fill-opacity="0.3"/>
<path d="M511.696 749.454C511.633 751.369 513.164 753.047 515.059 753.148C516.953 753.246 518.585 751.734 518.648 749.819C518.71 747.905 517.179 746.227 515.285 746.126C513.39 746.028 511.758 747.543 511.696 749.454Z" fill="#A1B1C1" fill-opacity="0.3"/>
<path d="M754.948 563.334C754.818 567.353 760.989 567.675 761.116 563.656C761.249 559.64 755.077 559.315 754.948 563.334Z" fill="#A1B1C1" fill-opacity="0.3"/>
<path d="M460.059 550.67C459.903 555.508 467.334 555.898 467.49 551.06C467.644 546.222 460.215 545.832 460.059 550.67Z" fill="#A1B1C1" fill-opacity="0.3"/>
<path d="M699.671 563.267C699.585 565.981 703.756 566.202 703.842 563.484C703.929 560.769 699.758 560.552 699.671 563.267Z" fill="#A1B1C1" fill-opacity="0.3"/>
<path d="M508.739 486.898C508.676 488.821 511.631 488.978 511.693 487.051C511.756 485.131 508.801 484.975 508.739 486.898Z" fill="#A1B1C1" fill-opacity="0.3"/>
<path d="M578.542 794.983C578.472 797.161 581.816 797.336 581.888 795.158C581.958 792.979 578.611 792.805 578.542 794.983Z" fill="#A1B1C1" fill-opacity="0.3"/>
<path d="M664.75 503.906C664.642 507.275 669.813 507.545 669.922 504.176C670.03 500.811 664.859 500.541 664.75 503.906Z" fill="#A1B1C1" fill-opacity="0.3"/>
<path d="M360.349 547.961C360.7 548.011 361.042 547.965 361.385 547.906C363.124 547.612 363.213 544.869 361.498 544.394C361.159 544.299 360.82 544.219 360.469 544.231C359.465 544.265 358.597 544.918 358.563 545.998C358.527 547.081 359.349 547.82 360.349 547.961Z" fill="#A1B1C1" fill-opacity="0.3"/>
<path d="M498.005 517.161C497.971 517.118 497.94 517.075 497.906 517.032C497.992 517.941 498.079 518.846 498.163 519.754C498.973 518.646 498.872 517.054 497.93 516.02C496.846 514.83 494.971 514.732 493.812 515.805C492.653 516.879 492.593 518.772 493.677 519.962C494.62 520.996 496.182 521.232 497.343 520.511C496.454 520.349 495.567 520.186 494.68 520.024C494.721 520.06 494.759 520.097 494.8 520.134C495.247 520.551 495.709 520.83 496.331 520.864C496.911 520.895 497.48 520.689 497.904 520.297C498.327 519.904 498.577 519.349 498.596 518.763C498.618 518.134 498.377 517.646 498.005 517.161Z" fill="#A1B1C1" fill-opacity="0.3"/>
</svg>
<path d="M437.223 634.693C437.146 637.07 440.796 637.261 440.873 634.883C440.95 632.509 437.3 632.315 437.223 634.693Z" fill="#A1B1C1" fill-opacity="0.3"/>
<path d="M385.217 637.896C385.286 637.813 385.358 637.727 385.428 637.644C386.464 636.405 386.022 634.291 384.152 634.193C382.281 634.095 381.704 636.156 382.656 637.497C382.721 637.589 382.786 637.678 382.851 637.77C383.341 638.463 384.681 638.534 385.217 637.896Z" fill="#A1B1C1" fill-opacity="0.3"/>
<path d="M713.038 533.436C712.913 537.283 718.825 537.592 718.947 533.745C719.07 529.895 713.161 529.586 713.038 533.436Z" fill="#A1B1C1" fill-opacity="0.3"/>
<path d="M583.17 504.051C583.179 503.999 583.186 503.946 583.196 503.897C582.984 504.152 582.773 504.41 582.561 504.664C583.196 504.382 583.65 503.842 583.672 503.109C583.703 502.158 582.941 501.323 581.999 501.271C581.229 501.231 580.518 501.728 580.289 502.465C580.023 503.33 580.463 504.161 581.22 504.591C581.025 504.314 580.83 504.035 580.636 503.759C580.64 503.811 580.645 503.864 580.652 503.916C580.71 504.489 581.357 504.922 581.879 504.95C582.403 504.977 583.076 504.615 583.17 504.051Z" fill="#A1B1C1" fill-opacity="0.3"/>
<path d="M882.349 477.183C882.251 480.211 886.9 480.454 886.999 477.426C887.097 474.398 882.448 474.156 882.349 477.183Z" fill="#A1B1C1" fill-opacity="0.3"/>
<path d="M630.577 749.442C630.433 753.939 637.34 754.304 637.486 749.804C637.631 745.304 630.724 744.942 630.577 749.442Z" fill="#A1B1C1" fill-opacity="0.3"/>
<path d="M673.184 714.516C673.205 714.378 673.222 714.24 673.258 714.111C673.191 714.301 673.124 714.491 673.054 714.681C673.061 714.66 673.071 714.638 673.08 714.62C672.979 714.78 672.879 714.939 672.778 715.099C672.787 715.083 672.797 715.068 672.811 715.056C672.681 715.178 672.554 715.298 672.424 715.421C672.431 715.415 672.436 715.412 672.443 715.405C672.294 715.479 672.143 715.556 671.994 715.629C672.008 715.62 672.025 715.614 672.042 715.614C671.876 715.635 671.71 715.657 671.544 715.675C671.797 715.651 672.025 715.611 672.268 715.565C673.068 715.415 673.657 714.295 673.691 713.286C673.703 712.844 673.633 712.43 673.48 712.04C673.28 711.54 672.859 710.973 672.419 710.862C671.89 710.73 671.768 710.684 671.232 710.782C670.746 710.871 670.265 711.399 670.003 711.927C669.621 712.697 669.672 713.473 669.744 714.332C669.816 714.737 669.958 715.092 670.169 715.402C670.486 715.862 670.936 716.139 671.407 716.163C671.729 716.178 672.032 716.086 672.318 715.887C672.686 715.626 673.097 715.083 673.184 714.516Z" fill="#A1B1C1" fill-opacity="0.3"/>
<path d="M467.492 739.226C467.37 743.046 473.236 743.353 473.358 739.533C473.481 735.714 467.615 735.407 467.492 739.226Z" fill="#A1B1C1" fill-opacity="0.3"/>
<path d="M436.509 776.285C436.43 778.718 440.168 778.914 440.245 776.481C440.324 774.045 436.589 773.849 436.509 776.285Z" fill="#A1B1C1" fill-opacity="0.3"/>
<path d="M337.001 614.995C336.915 617.71 341.086 617.931 341.172 615.213C341.259 612.495 337.088 612.277 337.001 614.995Z" fill="#A1B1C1" fill-opacity="0.3"/>
<path d="M475.515 692.379C475.428 695.094 479.599 695.315 479.686 692.597C479.775 689.879 475.604 689.661 475.515 692.379Z" fill="#A1B1C1" fill-opacity="0.3"/>
<path d="M665.241 423.887C665.258 423.859 665.275 423.835 665.289 423.807C664.724 424.206 664.157 424.605 663.592 425.006C665.075 424.856 666.181 423.381 666.227 421.936C666.284 420.138 664.847 418.558 663.063 418.463C661.281 418.371 659.745 419.794 659.688 421.592C659.642 423.037 660.649 424.623 662.118 424.93C661.58 424.473 661.041 424.016 660.505 423.558C660.519 423.586 660.534 423.614 660.548 423.641C661.5 425.476 664.176 425.617 665.241 423.887Z" fill="#A1B1C1" fill-opacity="0.3"/>
<path d="M458.069 814.368C457.999 816.546 461.343 816.721 461.415 814.543C461.485 812.365 458.138 812.187 458.069 814.368Z" fill="#A1B1C1" fill-opacity="0.3"/>
<path d="M453.462 491.193C453.383 493.625 457.121 493.822 457.198 491.389C457.278 488.956 453.539 488.76 453.462 491.193Z" fill="#A1B1C1" fill-opacity="0.3"/>
<path d="M688.8 746.69C688.649 751.415 695.904 751.795 696.056 747.071C696.21 742.346 688.954 741.966 688.8 746.69Z" fill="#A1B1C1" fill-opacity="0.3"/>
<path d="M502.202 396.363C501.697 396.703 501.274 396.958 500.966 397.513C500.562 398.249 500.308 399.154 500.565 400.007C500.772 400.7 500.913 400.983 501.37 401.538C501.577 401.789 501.856 401.97 502.101 402.179C502.584 402.492 503.108 402.667 503.678 402.697C504.51 402.74 505.33 402.446 505.935 401.881C507.171 400.734 507.279 398.648 506.08 397.381C506.051 397.353 506.027 397.323 506 397.289C506.157 397.513 506.315 397.737 506.474 397.961C506.459 397.942 506.45 397.924 506.44 397.903C506.539 398.163 506.637 398.421 506.734 398.682C506.726 398.666 506.722 398.648 506.719 398.63C506.748 398.915 506.777 399.2 506.806 399.486C506.806 399.476 506.806 399.47 506.806 399.461C506.76 399.743 506.712 400.022 506.666 400.305C506.669 400.295 506.671 400.289 506.673 400.283C506.558 400.532 506.445 400.78 506.33 401.029C506.334 401.022 506.339 401.016 506.344 401.007C506.171 401.213 506 401.421 505.827 401.63C505.834 401.624 505.842 401.618 505.849 401.611C505.63 401.768 505.411 401.924 505.19 402.078C505.2 402.072 505.209 402.069 505.221 402.062C506.746 401.274 507.32 399.283 506.5 397.74C506.109 397.001 505.438 396.43 504.652 396.169C503.914 395.921 502.87 395.915 502.202 396.363Z" fill="#A1B1C1" fill-opacity="0.3"/>
<path d="M601.339 450.914C601.25 453.715 605.551 453.942 605.64 451.141C605.731 448.337 601.428 448.113 601.339 450.914Z" fill="#A1B1C1" fill-opacity="0.3"/>
<path d="M988.271 754.301C988.223 755.76 989.392 757.043 990.838 757.119C992.284 757.195 993.532 756.038 993.577 754.578C993.625 753.115 992.456 751.836 991.01 751.761C989.564 751.685 988.319 752.842 988.271 754.301Z" fill="#A1B1C1" fill-opacity="0.3"/>
<path d="M860.199 676.169C860.126 678.418 861.925 680.389 864.15 680.508C866.375 680.623 868.292 678.846 868.366 676.598C868.439 674.349 866.641 672.378 864.415 672.259C862.19 672.144 860.273 673.924 860.199 676.169Z" fill="#A1B1C1" fill-opacity="0.3"/>
<path d="M1145.89 457.569C1145.74 462.289 1152.99 462.667 1153.14 457.947C1153.29 453.23 1146.04 452.848 1145.89 457.569Z" fill="#A1B1C1" fill-opacity="0.3"/>
<path d="M799.547 442.676C799.364 448.359 808.092 448.816 808.275 443.134C808.456 437.451 799.731 436.994 799.547 442.676Z" fill="#A1B1C1" fill-opacity="0.3"/>
<path d="M1080.96 457.489C1080.86 460.678 1085.76 460.938 1085.86 457.745C1085.96 454.556 1081.06 454.3 1080.96 457.489Z" fill="#A1B1C1" fill-opacity="0.3"/>
<path d="M856.726 367.769C856.653 370.028 860.123 370.212 860.197 367.949C860.27 365.693 856.8 365.509 856.726 367.769Z" fill="#A1B1C1" fill-opacity="0.3"/>
<path d="M938.682 729.665C938.6 732.223 942.528 732.428 942.613 729.87C942.695 727.312 938.764 727.106 938.682 729.665Z" fill="#A1B1C1" fill-opacity="0.3"/>
<path d="M1039.94 387.764C1039.82 391.72 1045.89 392.037 1046.02 388.081C1046.14 384.128 1040.07 383.811 1039.94 387.764Z" fill="#A1B1C1" fill-opacity="0.3"/>
<path d="M682.427 439.494C682.84 439.552 683.241 439.498 683.644 439.43C685.686 439.084 685.79 435.862 683.777 435.304C683.379 435.192 682.981 435.098 682.568 435.113C681.388 435.152 680.369 435.92 680.329 437.188C680.287 438.46 681.253 439.329 682.427 439.494Z" fill="#A1B1C1" fill-opacity="0.3"/>
<path d="M844.118 403.316C844.078 403.266 844.042 403.215 844.002 403.165C844.104 404.232 844.205 405.295 844.304 406.361C845.256 405.06 845.137 403.19 844.03 401.976C842.757 400.578 840.554 400.462 839.193 401.724C837.832 402.985 837.762 405.208 839.035 406.606C840.142 407.821 841.977 408.098 843.341 407.251C842.297 407.06 841.255 406.869 840.213 406.678C840.261 406.722 840.306 406.765 840.354 406.808C840.879 407.298 841.421 407.626 842.153 407.666C842.833 407.702 843.502 407.46 843.999 406.999C844.496 406.538 844.79 405.886 844.813 405.197C844.838 404.459 844.556 403.886 844.118 403.316Z" fill="#A1B1C1" fill-opacity="0.3"/>
<path d="M772.724 541.37C772.633 544.162 776.92 544.386 777.01 541.593C777.101 538.804 772.814 538.577 772.724 541.37Z" fill="#A1B1C1" fill-opacity="0.3"/>
<path d="M711.637 545.132C711.719 545.034 711.803 544.933 711.885 544.836C713.102 543.38 712.583 540.898 710.386 540.782C708.189 540.667 707.511 543.088 708.629 544.663C708.706 544.771 708.782 544.876 708.858 544.984C709.434 545.798 711.007 545.881 711.637 545.132Z" fill="#A1B1C1" fill-opacity="0.3"/>
<path d="M1096.66 422.45C1096.52 426.968 1103.46 427.332 1103.6 422.814C1103.75 418.292 1096.81 417.928 1096.66 422.45Z" fill="#A1B1C1" fill-opacity="0.3"/>
<path d="M944.118 387.933C944.129 387.872 944.138 387.81 944.149 387.753C943.901 388.052 943.652 388.355 943.404 388.654C944.149 388.322 944.683 387.688 944.708 386.827C944.745 385.71 943.85 384.73 942.743 384.668C941.839 384.621 941.003 385.205 940.735 386.07C940.422 387.086 940.938 388.063 941.828 388.567C941.599 388.243 941.37 387.915 941.142 387.591C941.147 387.652 941.153 387.713 941.162 387.774C941.229 388.448 941.989 388.956 942.602 388.989C943.217 389.021 944.008 388.596 944.118 387.933Z" fill="#A1B1C1" fill-opacity="0.3"/>
<path d="M1295.54 356.374C1295.42 359.931 1300.88 360.216 1301 356.659C1301.11 353.103 1295.65 352.818 1295.54 356.374Z" fill="#A1B1C1" fill-opacity="0.3"/>
<path d="M999.803 676.172C999.634 681.455 1007.75 681.884 1007.92 676.597C1008.09 671.311 999.976 670.886 999.803 676.172Z" fill="#A1B1C1" fill-opacity="0.3"/>
<path d="M820.711 766.045C820.582 770.099 826.808 770.427 826.938 766.373C827.068 762.315 820.841 761.991 820.711 766.045Z" fill="#A1B1C1" fill-opacity="0.3"/>
<path d="M854.346 792.238C854.275 794.465 857.695 794.645 857.765 792.418C857.839 790.191 854.419 790.011 854.346 792.238Z" fill="#A1B1C1" fill-opacity="0.3"/>
<path d="M1049.85 635.148C1049.87 634.985 1049.89 634.823 1049.94 634.672C1049.86 634.895 1049.78 635.119 1049.7 635.342C1049.71 635.317 1049.72 635.292 1049.73 635.27C1049.61 635.457 1049.49 635.645 1049.37 635.832C1049.38 635.814 1049.39 635.796 1049.41 635.782C1049.26 635.926 1049.11 636.066 1048.96 636.211C1048.97 636.203 1048.97 636.2 1048.98 636.193C1048.8 636.279 1048.63 636.369 1048.45 636.456C1048.47 636.445 1048.49 636.438 1048.51 636.438C1048.31 636.463 1048.12 636.488 1047.92 636.51C1048.22 636.481 1048.49 636.434 1048.77 636.38C1049.71 636.203 1050.41 634.888 1050.45 633.703C1050.46 633.184 1050.38 632.697 1050.2 632.24C1049.96 631.652 1049.47 630.986 1048.95 630.856C1048.33 630.701 1048.19 630.647 1047.56 630.762C1046.99 630.867 1046.42 631.486 1046.11 632.106C1045.66 633.011 1045.72 633.922 1045.81 634.931C1045.89 635.407 1046.06 635.825 1046.31 636.189C1046.68 636.729 1047.21 637.054 1047.76 637.083C1048.14 637.101 1048.5 636.993 1048.83 636.758C1049.26 636.452 1049.75 635.814 1049.85 635.148Z" fill="#A1B1C1" fill-opacity="0.3"/>
<path d="M808.278 664.155C808.134 668.642 815.024 669.002 815.168 664.516C815.312 660.029 808.422 659.669 808.278 664.155Z" fill="#A1B1C1" fill-opacity="0.3"/>
<path d="M771.885 707.684C771.792 710.542 776.183 710.772 776.273 707.915C776.367 705.054 771.978 704.823 771.885 707.684Z" fill="#A1B1C1" fill-opacity="0.3"/>
<path d="M655.003 518.232C654.901 521.421 659.8 521.681 659.902 518.488C660.004 515.296 655.104 515.04 655.003 518.232Z" fill="#A1B1C1" fill-opacity="0.3"/>
<path d="M817.701 609.128C817.6 612.317 822.499 612.576 822.601 609.384C822.705 606.191 817.806 605.935 817.701 609.128Z" fill="#A1B1C1" fill-opacity="0.3"/>
<path d="M1040.52 293.773C1040.54 293.74 1040.56 293.711 1040.58 293.679C1039.91 294.147 1039.25 294.616 1038.58 295.088C1040.32 294.911 1041.62 293.178 1041.68 291.481C1041.75 289.369 1040.06 287.514 1037.96 287.402C1035.87 287.294 1034.06 288.966 1034 291.077C1033.94 292.774 1035.13 294.637 1036.85 294.998C1036.22 294.461 1035.59 293.924 1034.96 293.387C1034.97 293.419 1034.99 293.452 1035.01 293.484C1036.13 295.639 1039.27 295.805 1040.52 293.773Z" fill="#A1B1C1" fill-opacity="0.3"/>
<path d="M797.209 752.417C797.127 754.975 801.055 755.181 801.14 752.622C801.222 750.064 797.291 749.855 797.209 752.417Z" fill="#A1B1C1" fill-opacity="0.3"/>
<path d="M791.799 372.814C791.705 375.671 796.096 375.902 796.187 373.044C796.28 370.187 791.889 369.956 791.799 372.814Z" fill="#A1B1C1" fill-opacity="0.3"/>
<path d="M1068.19 672.94C1068.01 678.489 1076.54 678.936 1076.72 673.387C1076.9 667.837 1068.37 667.391 1068.19 672.94Z" fill="#A1B1C1" fill-opacity="0.3"/>
<path d="M849.048 261.425C848.455 261.825 847.958 262.124 847.597 262.777C847.122 263.641 846.823 264.704 847.125 265.706C847.368 266.521 847.535 266.852 848.071 267.504C848.314 267.8 848.642 268.012 848.93 268.257C849.497 268.625 850.113 268.83 850.782 268.866C851.759 268.917 852.722 268.571 853.434 267.908C854.885 266.56 855.012 264.11 853.603 262.622C853.569 262.589 853.541 262.553 853.51 262.514C853.693 262.777 853.88 263.04 854.066 263.303C854.049 263.281 854.038 263.26 854.027 263.234C854.142 263.541 854.258 263.843 854.371 264.15C854.363 264.132 854.357 264.11 854.354 264.088C854.388 264.423 854.422 264.759 854.456 265.094C854.456 265.083 854.456 265.076 854.456 265.065C854.402 265.396 854.346 265.724 854.292 266.056C854.295 266.045 854.298 266.038 854.301 266.031C854.165 266.322 854.032 266.614 853.897 266.906C853.902 266.899 853.908 266.892 853.914 266.881C853.71 267.122 853.51 267.367 853.307 267.612C853.315 267.605 853.323 267.598 853.332 267.591C853.075 267.775 852.818 267.958 852.558 268.139C852.57 268.131 852.581 268.128 852.595 268.12C854.385 267.194 855.06 264.856 854.097 263.043C853.637 262.175 852.849 261.505 851.926 261.198C851.059 260.906 849.833 260.899 849.048 261.425Z" fill="#A1B1C1" fill-opacity="0.3"/>
<path d="M965.46 325.519C965.356 328.808 970.408 329.075 970.512 325.785C970.619 322.492 965.565 322.229 965.46 325.519Z" fill="#A1B1C1" fill-opacity="0.3"/>
<path d="M1287.61 527.456C1287.53 529.878 1289.47 532.004 1291.87 532.13C1294.26 532.256 1296.33 530.339 1296.41 527.918C1296.49 525.496 1294.55 523.37 1292.15 523.244C1289.75 523.118 1287.69 525.035 1287.61 527.456Z" fill="#A1B1C1" fill-opacity="0.3"/>
<path d="M875.601 622.833C875.534 624.894 877.183 626.704 879.224 626.812C881.265 626.919 883.025 625.287 883.09 623.226C883.157 621.164 881.508 619.354 879.467 619.247C877.426 619.139 875.666 620.771 875.601 622.833Z" fill="#A1B1C1" fill-opacity="0.3"/>
<path d="M993.271 493.301C993.223 494.761 994.392 496.043 995.837 496.119C997.283 496.195 998.531 495.038 998.577 493.579C998.625 492.116 997.456 490.836 996.01 490.761C994.564 490.685 993.319 491.842 993.271 493.301Z" fill="#A1B1C1" fill-opacity="0.3"/>
<path d="M865.199 415.169C865.126 417.418 866.925 419.389 869.15 419.508C871.375 419.623 873.292 417.846 873.366 415.598C873.439 413.349 871.64 411.378 869.415 411.259C867.19 411.144 865.273 412.924 865.199 415.169Z" fill="#A1B1C1" fill-opacity="0.3"/>
<path d="M1150.89 196.569C1150.74 201.289 1157.99 201.667 1158.14 196.947C1158.29 192.23 1151.04 191.848 1150.89 196.569Z" fill="#A1B1C1" fill-opacity="0.3"/>
<path d="M804.547 181.676C804.364 187.359 813.092 187.816 813.275 182.134C813.456 176.451 804.731 175.994 804.547 181.676Z" fill="#A1B1C1" fill-opacity="0.3"/>
<path d="M1085.96 196.489C1085.86 199.678 1090.76 199.938 1090.86 196.745C1090.96 193.556 1086.06 193.3 1085.96 196.489Z" fill="#A1B1C1" fill-opacity="0.3"/>
<path d="M861.726 106.769C861.653 109.028 865.123 109.212 865.197 106.949C865.27 104.693 861.8 104.509 861.726 106.769Z" fill="#A1B1C1" fill-opacity="0.3"/>
<path d="M943.682 468.665C943.6 471.223 947.528 471.428 947.613 468.87C947.695 466.312 943.764 466.106 943.682 468.665Z" fill="#A1B1C1" fill-opacity="0.3"/>
<path d="M1044.94 126.764C1044.82 130.72 1050.89 131.037 1051.02 127.081C1051.14 123.128 1045.07 122.811 1044.94 126.764Z" fill="#A1B1C1" fill-opacity="0.3"/>
<path d="M687.427 178.494C687.84 178.552 688.241 178.498 688.644 178.43C690.686 178.084 690.79 174.862 688.777 174.304C688.379 174.192 687.981 174.098 687.568 174.113C686.388 174.152 685.369 174.92 685.329 176.188C685.287 177.46 686.253 178.329 687.427 178.494Z" fill="#A1B1C1" fill-opacity="0.3"/>
<path d="M849.118 142.316C849.078 142.266 849.042 142.215 849.002 142.165C849.104 143.232 849.205 144.295 849.304 145.361C850.256 144.06 850.137 142.19 849.03 140.976C847.757 139.578 845.554 139.462 844.193 140.724C842.832 141.985 842.762 144.208 844.035 145.606C845.142 146.821 846.977 147.098 848.341 146.251C847.297 146.06 846.255 145.869 845.213 145.678C845.261 145.722 845.306 145.765 845.354 145.808C845.879 146.298 846.421 146.626 847.153 146.666C847.833 146.702 848.502 146.46 848.999 145.999C849.496 145.538 849.79 144.886 849.813 144.197C849.838 143.459 849.556 142.886 849.118 142.316Z" fill="#A1B1C1" fill-opacity="0.3"/>
<path d="M777.724 280.37C777.633 283.162 781.92 283.386 782.01 280.593C782.101 277.804 777.814 277.577 777.724 280.37Z" fill="#A1B1C1" fill-opacity="0.3"/>
<path d="M716.637 284.132C716.719 284.034 716.803 283.933 716.885 283.836C718.102 282.38 717.583 279.898 715.386 279.782C713.189 279.667 712.511 282.088 713.629 283.663C713.706 283.771 713.782 283.876 713.858 283.984C714.434 284.798 716.007 284.881 716.637 284.132Z" fill="#A1B1C1" fill-opacity="0.3"/>
<path d="M1101.66 161.45C1101.52 165.969 1108.46 166.333 1108.6 161.814C1108.75 157.292 1101.81 156.928 1101.66 161.45Z" fill="#A1B1C1" fill-opacity="0.3"/>
<path d="M949.118 126.933C949.129 126.872 949.138 126.811 949.149 126.753C948.9 127.052 948.652 127.355 948.403 127.654C949.149 127.322 949.683 126.688 949.708 125.827C949.745 124.71 948.85 123.73 947.743 123.668C946.839 123.622 946.003 124.205 945.735 125.07C945.421 126.086 945.938 127.063 946.828 127.567C946.599 127.243 946.37 126.915 946.141 126.591C946.147 126.652 946.153 126.713 946.161 126.775C946.229 127.448 946.989 127.956 947.601 127.989C948.217 128.021 949.008 127.596 949.118 126.933Z" fill="#A1B1C1" fill-opacity="0.3"/>
<path d="M1300.54 95.3746C1300.42 98.9311 1305.88 99.2158 1306 95.6592C1306.11 92.1027 1300.65 91.818 1300.54 95.3746Z" fill="#A1B1C1" fill-opacity="0.3"/>
<path d="M1004.8 415.172C1004.63 420.455 1012.75 420.884 1012.92 415.597C1013.09 410.311 1004.98 409.886 1004.8 415.172Z" fill="#A1B1C1" fill-opacity="0.3"/>
<path d="M825.711 505.045C825.582 509.099 831.808 509.427 831.938 505.373C832.068 501.316 825.841 500.991 825.711 505.045Z" fill="#A1B1C1" fill-opacity="0.3"/>
<path d="M859.346 531.238C859.275 533.465 862.695 533.645 862.765 531.418C862.839 529.191 859.419 529.011 859.346 531.238Z" fill="#A1B1C1" fill-opacity="0.3"/>
<path d="M1054.85 374.148C1054.87 373.985 1054.89 373.823 1054.94 373.672C1054.86 373.895 1054.78 374.119 1054.7 374.342C1054.71 374.317 1054.72 374.292 1054.73 374.27C1054.61 374.458 1054.49 374.645 1054.37 374.832C1054.38 374.814 1054.39 374.796 1054.41 374.782C1054.26 374.926 1054.11 375.067 1053.96 375.211C1053.97 375.203 1053.97 375.2 1053.98 375.193C1053.8 375.279 1053.63 375.369 1053.45 375.456C1053.47 375.445 1053.49 375.438 1053.51 375.438C1053.31 375.463 1053.12 375.488 1052.92 375.51C1053.22 375.481 1053.49 375.434 1053.77 375.38C1054.71 375.203 1055.41 373.888 1055.44 372.703C1055.46 372.184 1055.38 371.697 1055.2 371.24C1054.96 370.652 1054.47 369.986 1053.95 369.856C1053.33 369.701 1053.19 369.647 1052.56 369.762C1051.99 369.867 1051.42 370.487 1051.11 371.106C1050.66 372.011 1050.72 372.923 1050.81 373.931C1050.89 374.407 1051.06 374.825 1051.31 375.189C1051.68 375.73 1052.21 376.054 1052.76 376.083C1053.14 376.101 1053.5 375.993 1053.83 375.758C1054.26 375.452 1054.75 374.814 1054.85 374.148Z" fill="#A1B1C1" fill-opacity="0.3"/>
<path d="M813.278 403.155C813.134 407.642 820.024 408.002 820.168 403.516C820.312 399.029 813.422 398.669 813.278 403.155Z" fill="#A1B1C1" fill-opacity="0.3"/>
<path d="M776.885 446.684C776.792 449.542 781.183 449.772 781.273 446.915C781.366 444.054 776.978 443.823 776.885 446.684Z" fill="#A1B1C1" fill-opacity="0.3"/>
<path d="M660.003 257.232C659.901 260.421 664.8 260.681 664.902 257.488C665.004 254.296 660.104 254.04 660.003 257.232Z" fill="#A1B1C1" fill-opacity="0.3"/>
<path d="M822.701 348.128C822.6 351.317 827.499 351.576 827.601 348.384C827.705 345.191 822.806 344.935 822.701 348.128Z" fill="#A1B1C1" fill-opacity="0.3"/>
<path d="M1045.52 32.7727C1045.54 32.7403 1045.56 32.7115 1045.58 32.6791C1044.91 33.1475 1044.25 33.6159 1043.58 34.088C1045.32 33.9114 1046.62 32.1782 1046.68 30.481C1046.74 28.3694 1045.06 26.5136 1042.96 26.4019C1040.87 26.2938 1039.06 27.9658 1039 30.0774C1038.94 31.7746 1040.13 33.6376 1041.85 33.9979C1041.22 33.461 1040.59 32.9241 1039.96 32.3872C1039.97 32.4196 1039.99 32.452 1040.01 32.4845C1041.13 34.6393 1044.27 34.8051 1045.52 32.7727Z" fill="#A1B1C1" fill-opacity="0.3"/>
<path d="M802.209 491.417C802.127 493.975 806.055 494.181 806.14 491.622C806.222 489.064 802.291 488.855 802.209 491.417Z" fill="#A1B1C1" fill-opacity="0.3"/>
<path d="M796.799 111.814C796.705 114.671 801.096 114.902 801.187 112.044C801.28 109.187 796.889 108.956 796.799 111.814Z" fill="#A1B1C1" fill-opacity="0.3"/>
<path d="M1073.19 411.94C1073.01 417.489 1081.54 417.936 1081.71 412.387C1081.9 406.838 1073.37 406.391 1073.19 411.94Z" fill="#A1B1C1" fill-opacity="0.3"/>
<path d="M854.048 0.425373C853.455 0.82535 852.958 1.12443 852.597 1.77665C852.122 2.64146 851.823 3.70446 852.125 4.70621C852.368 5.52058 852.535 5.85209 853.071 6.5043C853.314 6.79978 853.642 7.01238 853.93 7.25741C854.497 7.62496 855.113 7.83035 855.782 7.86639C856.759 7.91683 857.722 7.57091 858.434 6.90788C859.885 5.56021 860.012 3.1099 858.603 1.6217C858.569 1.58927 858.541 1.55324 858.51 1.5136C858.693 1.77665 858.88 2.03969 859.066 2.30274C859.049 2.28112 859.038 2.2595 859.027 2.23428C859.142 2.54057 859.258 2.84325 859.371 3.14954C859.363 3.13152 859.357 3.1099 859.354 3.08828C859.388 3.4234 859.422 3.75852 859.456 4.09363C859.456 4.08282 859.456 4.07561 859.456 4.0648C859.402 4.39632 859.346 4.72423 859.292 5.05574C859.295 5.04493 859.298 5.03772 859.3 5.03051C859.165 5.32239 859.032 5.61426 858.897 5.90614C858.902 5.89893 858.908 5.89173 858.914 5.88092C858.71 6.12234 858.51 6.36737 858.307 6.61241C858.315 6.6052 858.323 6.59799 858.332 6.59079C858.075 6.77456 857.818 6.95833 857.558 7.1385C857.57 7.13129 857.581 7.12769 857.595 7.12048C859.385 6.19441 860.06 3.85581 859.097 2.0433C858.637 1.17488 857.849 0.504648 856.926 0.198359C856.059 -0.0935159 854.833 -0.100723 854.048 0.425373Z" fill="#A1B1C1" fill-opacity="0.3"/>
<path d="M970.46 64.5186C970.356 67.8085 975.407 68.0752 975.512 64.7853C975.619 61.4918 970.564 61.2287 970.46 64.5186Z" fill="#A1B1C1" fill-opacity="0.3"/>
<path d="M1292.61 266.457C1292.53 268.878 1294.47 271.004 1296.87 271.13C1299.26 271.256 1301.33 269.339 1301.41 266.918C1301.49 264.496 1299.55 262.37 1297.15 262.244C1294.75 262.118 1292.69 264.035 1292.61 266.457Z" fill="#A1B1C1" fill-opacity="0.3"/>
</svg>

