<svg width="661" height="58" viewBox="0 0 661 58" fill="none" xmlns="http://www.w3.org/2000/svg">
<g clip-path="url(#clip0_12901_66790)">
<path d="M212.807 5.71309C211.24 7.40901 208.27 7.22823 206.204 5.23099C204.147 3.23376 203.871 0.255123 205.541 -1.3375C207.211 -2.93873 210.113 -2.63743 212.067 -0.743496C214.012 1.15043 214.365 4.00855 212.807 5.71309Z" fill="#FFCE1A"/>
<path d="M211.817 5.11047C210.56 6.45344 208.193 6.29848 206.566 4.70586C204.93 3.12184 204.706 0.754427 206.032 -0.519671C207.358 -1.80238 209.673 -1.56994 211.232 -0.0461885C212.798 1.47756 213.074 3.75889 211.817 5.11047Z" fill="#FFD74B"/>
<path d="M210.259 4.04298C209.269 5.08464 207.418 4.93829 206.152 3.69863C204.887 2.45036 204.715 0.608081 205.748 -0.390537C206.781 -1.38915 208.597 -1.19976 209.82 -0.00314188C211.042 1.20209 211.249 3.00132 210.259 4.04298Z" fill="#FFDE70"/>
<path d="M205.369 -0.330294C204.844 0.711367 204.482 1.96825 205.877 4.04296C205.868 4.04296 204.844 1.59807 206.359 0.237885C206.635 -0.313077 205.653 -0.881256 205.369 -0.330294Z" fill="#FFDE70"/>
<path d="M214.382 0.53059C214.271 0.418675 214.15 0.31537 214.038 0.203456C214.305 -0.0720251 214.572 -0.356115 214.839 -0.631595C215.252 -1.07064 215.183 -1.811 214.675 -2.3017C214.288 -2.67188 213.9 -3.05066 213.522 -3.42084C213.04 -3.89432 212.325 -3.95458 211.92 -3.54997C211.636 -3.26588 211.344 -2.98179 211.059 -2.68909C210.948 -2.80101 210.836 -2.91292 210.715 -3.02483C210.629 -3.11953 210.483 -3.13675 210.405 -3.05066C210.199 -2.85266 210.001 -2.64605 209.794 -2.44805C209.717 -2.37057 209.725 -2.23283 209.82 -2.13813C209.82 -2.13813 211.869 -0.700466 213.513 1.44312C213.59 1.54642 213.745 1.53782 213.823 1.46034C214.021 1.25373 214.219 1.04712 214.417 0.840505C214.494 0.754417 214.477 0.616677 214.382 0.53059Z" fill="#1A1A1A"/>
<path d="M226.254 16.7323C224.851 18.566 221.907 18.6865 219.711 16.9217C217.516 15.1569 217 12.2471 218.515 10.4996C220.03 8.75197 222.905 8.75197 224.988 10.4307C227.072 12.1008 227.657 14.89 226.254 16.7323Z" fill="#F70000"/>
<path d="M225.23 16.233C224.102 17.6879 221.76 17.7654 220.021 16.3621C218.282 14.9589 217.869 12.6518 219.057 11.2571C220.254 9.86251 222.552 9.8539 224.222 11.1969C225.892 12.5398 226.357 14.7695 225.23 16.233Z" fill="#F70000"/>
<path d="M223.611 15.3291C222.724 16.4568 220.891 16.4999 219.539 15.3979C218.188 14.296 217.869 12.4968 218.799 11.4035C219.737 10.3102 221.536 10.3102 222.845 11.3776C224.145 12.4451 224.498 14.2013 223.611 15.3291Z" fill="#F13D20"/>
<path d="M218.437 11.5068C218.007 12.5829 217.749 13.8656 219.298 15.7767C219.289 15.7767 218.076 13.4696 219.453 11.9717C219.677 11.3949 218.67 10.93 218.437 11.5068Z" fill="#F13D20"/>
<path d="M222.802 10.0691C221.235 9.0791 218.558 10.2327 219.255 11.1022C219.35 11.2141 219.668 11.4465 219.84 11.2399C221.089 9.79363 222.802 10.0691 222.802 10.0691Z" fill="#F13D20"/>
<path d="M227.382 11.4465C227.261 11.3518 227.132 11.2571 227.012 11.1538C227.253 10.8525 227.494 10.5512 227.735 10.2413C228.113 9.76781 227.976 9.03606 227.433 8.60563C227.02 8.27849 226.607 7.94275 226.202 7.61562C225.694 7.2024 224.988 7.21961 224.618 7.65866C224.36 7.96858 224.102 8.27849 223.844 8.59702C223.723 8.49371 223.602 8.39901 223.482 8.29571C223.379 8.20962 223.241 8.21823 223.172 8.30432C222.991 8.52815 222.802 8.74337 222.621 8.96719C222.552 9.05328 222.569 9.19102 222.673 9.27711C222.673 9.27711 224.808 10.4909 226.607 12.4451C226.693 12.5398 226.848 12.5226 226.917 12.4279C227.098 12.2041 227.27 11.9803 227.451 11.7478C227.511 11.6617 227.485 11.524 227.382 11.4465Z" fill="#1A1A1A"/>
<path d="M240.441 26.3053C239.219 28.2595 236.318 28.6641 234.002 27.1317C231.686 25.5994 230.937 22.7671 232.28 20.8904C233.623 19.0136 236.464 18.7296 238.659 20.1844C240.854 21.6393 241.664 24.3511 240.441 26.3053Z" fill="#7D60DA"/>
<path d="M239.391 25.9093C238.401 27.4588 236.102 27.7688 234.269 26.5463C232.435 25.3239 231.832 23.0856 232.891 21.5791C233.95 20.0811 236.223 19.8401 237.979 21.0109C239.735 22.1903 240.372 24.3597 239.391 25.9093Z" fill="#9F88EA"/>
<path d="M237.712 25.1775C236.929 26.3828 235.13 26.6066 233.701 25.651C232.28 24.6954 231.807 22.9393 232.633 21.7685C233.46 20.5977 235.242 20.4169 236.619 21.3466C237.996 22.2678 238.496 23.9723 237.712 25.1775Z" fill="#9F88EA"/>
<path d="M232.289 21.8976C231.953 23.0081 231.807 24.2994 233.494 26.0384C233.485 26.0384 232.091 23.869 233.33 22.2505C233.511 21.6651 232.47 21.3122 232.289 21.8976Z" fill="#7D60DA"/>
<path d="M236.473 20.0467C234.846 19.2202 232.306 20.6235 233.064 21.4155C233.167 21.5188 233.494 21.7168 233.649 21.493C234.759 19.9434 236.473 20.0467 236.473 20.0467Z" fill="#7D60DA"/>
<path d="M241.104 20.9592C240.975 20.8731 240.846 20.7957 240.717 20.7096C240.932 20.3824 241.139 20.0639 241.354 19.7368C241.681 19.2289 241.492 18.5229 240.923 18.1441C240.493 17.8601 240.054 17.5674 239.623 17.2833C239.09 16.9217 238.392 17.0078 238.065 17.4813C237.833 17.817 237.609 18.1528 237.377 18.4799C237.247 18.3938 237.118 18.3077 236.989 18.2216C236.886 18.1528 236.748 18.1614 236.688 18.2561C236.524 18.4885 236.361 18.7295 236.197 18.962C236.137 19.0567 236.171 19.1858 236.275 19.2633C236.275 19.2633 238.478 20.2533 240.415 22.0181C240.51 22.1042 240.656 22.0698 240.717 21.9751C240.872 21.734 241.027 21.493 241.182 21.2519C241.25 21.1572 241.216 21.0281 241.104 20.9592Z" fill="#1A1A1A"/>
<path d="M254.981 34.32C253.931 36.3775 251.099 37.049 248.688 35.7405C246.278 34.4319 245.297 31.6944 246.467 29.7057C247.638 27.7085 250.419 27.1661 252.709 28.4058C254.999 29.6369 256.032 32.2539 254.981 34.32Z" fill="#FFCE1A"/>
<path d="M253.905 34.0187C253.062 35.6544 250.806 36.1709 248.895 35.1293C246.984 34.0876 246.201 31.9182 247.122 30.3256C248.043 28.7329 250.264 28.2853 252.098 29.2839C253.94 30.2911 254.749 32.3831 253.905 34.0187Z" fill="#FFD74B"/>
<path d="M252.192 33.4505C251.521 34.716 249.756 35.112 248.275 34.2942C246.786 33.4764 246.183 31.7804 246.898 30.5408C247.621 29.3011 249.36 28.9568 250.798 29.7402C252.235 30.5322 252.864 32.1764 252.192 33.4505Z" fill="#FFDE70"/>
<path d="M246.562 30.7043C246.321 31.8407 246.287 33.132 248.094 34.7074C248.086 34.7074 246.528 32.6844 247.621 30.9626C247.75 30.36 246.691 30.1017 246.562 30.7043Z" fill="#FFDE70"/>
<path d="M250.539 28.4661C248.861 27.7946 246.467 29.4388 247.285 30.1448C247.389 30.2395 247.741 30.403 247.871 30.1706C248.843 28.5349 250.539 28.4661 250.539 28.4661Z" fill="#FFDE70"/>
<path d="M255.188 28.9395C255.05 28.8707 254.921 28.7932 254.783 28.7243C254.964 28.38 255.145 28.0442 255.326 27.6999C255.61 27.1661 255.36 26.4774 254.766 26.1589C254.31 25.9179 253.862 25.6682 253.415 25.4272C252.855 25.1172 252.175 25.2722 251.891 25.7715C251.693 26.1245 251.495 26.4774 251.297 26.8304C251.159 26.7529 251.03 26.684 250.892 26.6066C250.78 26.5463 250.651 26.5721 250.591 26.6668C250.453 26.9165 250.307 27.1661 250.169 27.4158C250.118 27.5105 250.161 27.6396 250.272 27.7085C250.272 27.7085 252.528 28.4833 254.594 30.0501C254.697 30.1276 254.835 30.0759 254.895 29.9812C255.033 29.7316 255.162 29.4733 255.3 29.2236C255.352 29.1289 255.3 28.9998 255.188 28.9395Z" fill="#1A1A1A"/>
<path d="M270.314 41.0521C269.453 43.1957 266.715 44.1254 264.21 43.0493C261.714 41.9732 260.508 39.3476 261.498 37.2556C262.488 35.1637 265.183 34.3545 267.559 35.3789C269.926 36.3948 271.175 38.8999 270.314 41.0521Z" fill="#F70000"/>
<path d="M269.229 40.8541C268.532 42.5586 266.354 43.2818 264.374 42.4295C262.394 41.5772 261.438 39.4939 262.213 37.8238C262.988 36.1537 265.148 35.5081 267.042 36.3259C268.936 37.1437 269.926 39.1496 269.229 40.8541Z" fill="#F70000"/>
<path d="M267.473 40.4495C266.913 41.7752 265.209 42.3262 263.668 41.6547C262.127 40.9832 261.378 39.3562 261.989 38.0476C262.6 36.7477 264.288 36.2398 265.777 36.8941C267.266 37.5397 268.032 39.1237 267.473 40.4495Z" fill="#F13D20"/>
<path d="M261.679 38.2456C261.541 39.3992 261.619 40.6819 263.539 42.0765C263.53 42.0765 261.817 40.2171 262.747 38.4006C262.815 37.7894 261.757 37.6258 261.679 38.2456Z" fill="#F13D20"/>
<path d="M265.415 35.6458C263.702 35.1379 261.472 36.9887 262.342 37.6172C262.454 37.7033 262.815 37.8238 262.927 37.5828C263.745 35.8696 265.415 35.6458 265.415 35.6458Z" fill="#F13D20"/>
<path d="M270.064 35.6888C269.926 35.6286 269.789 35.5769 269.642 35.5167C269.789 35.1637 269.944 34.8021 270.09 34.4492C270.322 33.8896 270.012 33.2353 269.401 32.9685C268.936 32.7705 268.463 32.5638 267.998 32.3658C267.421 32.1162 266.758 32.3314 266.526 32.8565C266.362 33.2267 266.199 33.5969 266.027 33.9671C265.889 33.9068 265.751 33.8466 265.613 33.7863C265.501 33.7346 265.372 33.7777 265.321 33.881C265.2 34.1393 265.08 34.4061 264.968 34.6644C264.925 34.7677 264.976 34.8882 265.088 34.9399C265.088 34.9399 267.387 35.4994 269.565 36.8682C269.668 36.9371 269.806 36.8682 269.849 36.7649C269.961 36.4981 270.073 36.2312 270.185 35.9729C270.236 35.8524 270.176 35.7319 270.064 35.6888Z" fill="#1A1A1A"/>
<path d="M286.076 46.3465C285.413 48.559 282.771 49.7297 280.205 48.8861C277.64 48.0424 276.228 45.5373 277.02 43.3679C277.821 41.1985 280.42 40.1482 282.857 40.9488C285.293 41.7494 286.739 44.134 286.076 46.3465Z" fill="#7D60DA"/>
<path d="M284.983 46.2518C284.441 48.008 282.34 48.9291 280.308 48.2576C278.277 47.5862 277.14 45.6061 277.769 43.8758C278.397 42.1454 280.472 41.3018 282.426 41.9388C284.372 42.5845 285.525 44.4956 284.983 46.2518Z" fill="#9F88EA"/>
<path d="M283.21 46.0021C282.771 47.3709 281.126 48.0769 279.542 47.5431C277.958 47.0094 277.08 45.4598 277.571 44.1082C278.062 42.7566 279.689 42.1024 281.221 42.6103C282.753 43.1354 283.649 44.6333 283.21 46.0021Z" fill="#9F88EA"/>
<path d="M277.278 44.3406C277.244 45.4942 277.425 46.7769 279.448 47.9822C279.439 47.9822 277.588 46.2862 278.346 44.4009C278.371 43.7811 277.304 43.7208 277.278 44.3406Z" fill="#7D60DA"/>
<path d="M280.756 41.4137C279.009 41.0607 276.968 43.1096 277.889 43.6606C278.01 43.7294 278.371 43.8241 278.466 43.5745C279.12 41.7925 280.756 41.4137 280.756 41.4137Z" fill="#7D60DA"/>
<path d="M285.362 41.0349C285.215 40.9918 285.078 40.9488 284.931 40.8971C285.052 40.527 285.164 40.1654 285.284 39.7952C285.465 39.2184 285.104 38.59 284.475 38.3834C283.993 38.2284 283.511 38.0649 283.037 37.9099C282.443 37.7119 281.806 37.9874 281.617 38.5297C281.488 38.9085 281.35 39.2959 281.221 39.6747C281.075 39.623 280.937 39.58 280.791 39.5283C280.67 39.4853 280.55 39.537 280.515 39.6489C280.42 39.9157 280.326 40.1912 280.231 40.4581C280.197 40.5614 280.257 40.6819 280.377 40.725C280.377 40.725 282.702 41.0693 284.974 42.2401C285.086 42.3004 285.215 42.2229 285.25 42.111C285.336 41.8355 285.422 41.56 285.508 41.2931C285.543 41.1812 285.474 41.0693 285.362 41.0349Z" fill="#1A1A1A"/>
<path d="M301.908 50.1602C301.434 52.4243 298.921 53.8189 296.304 53.1991C293.687 52.5879 292.068 50.2118 292.679 47.9908C293.282 45.7611 295.778 44.487 298.258 45.0638C300.737 45.6492 302.381 47.8961 301.908 50.1602Z" fill="#FFCE1A"/>
<path d="M300.815 50.1602C300.427 51.9594 298.421 53.0613 296.347 52.5706C294.272 52.0799 292.981 50.2032 293.454 48.4298C293.928 46.6478 295.916 45.6233 297.905 46.0968C299.893 46.5617 301.202 48.3609 300.815 50.1602Z" fill="#FFD74B"/>
<path d="M299.041 50.0655C298.723 51.4687 297.156 52.3124 295.537 51.925C293.919 51.5376 292.92 50.0741 293.291 48.6795C293.661 47.2934 295.219 46.4928 296.786 46.863C298.344 47.2504 299.36 48.6709 299.041 50.0655Z" fill="#FFDE70"/>
<path d="M293.015 48.9291C293.075 50.0827 293.368 51.3396 295.477 52.364C295.469 52.364 293.489 50.8403 294.083 48.8947C294.048 48.2835 292.981 48.3179 293.015 48.9291Z" fill="#FFDE70"/>
<path d="M296.217 45.7181C294.461 45.5201 292.61 47.7411 293.566 48.206C293.695 48.2663 294.057 48.3265 294.126 48.0682C294.625 46.2346 296.217 45.7181 296.217 45.7181Z" fill="#FFDE70"/>
<path d="M300.746 44.926C300.599 44.8916 300.453 44.8572 300.307 44.8313C300.393 44.4526 300.479 44.0738 300.565 43.7036C300.703 43.1182 300.289 42.5242 299.644 42.3692C299.153 42.2573 298.662 42.1368 298.172 42.0249C297.56 41.8785 296.958 42.2057 296.82 42.7652C296.725 43.1612 296.622 43.5486 296.527 43.9446C296.381 43.9102 296.235 43.8758 296.088 43.8327C295.968 43.8069 295.847 43.8672 295.821 43.9705C295.753 44.2459 295.684 44.53 295.606 44.8055C295.58 44.9174 295.658 45.0293 295.778 45.0552C295.778 45.0552 298.111 45.1929 300.47 46.1571C300.582 46.2001 300.711 46.114 300.737 46.0107C300.797 45.7267 300.866 45.4512 300.926 45.1671C300.944 45.0638 300.866 44.9519 300.746 44.926Z" fill="#1A1A1A"/>
<path d="M318.222 52.6051C317.955 54.895 315.57 56.5135 312.919 56.1261C310.267 55.7473 308.451 53.5262 308.864 51.2535C309.268 48.9808 311.636 47.4829 314.15 47.8444C316.655 48.2146 318.488 50.3065 318.222 52.6051Z" fill="#F70000"/>
<path d="M317.128 52.7084C316.904 54.5334 315.002 55.8075 312.901 55.4976C310.801 55.1963 309.354 53.4401 309.664 51.6237C309.983 49.8072 311.86 48.6192 313.883 48.9033C315.906 49.196 317.361 50.8747 317.128 52.7084Z" fill="#F70000"/>
<path d="M315.355 52.7686C315.165 54.1891 313.676 55.1705 312.04 54.9295C310.405 54.6884 309.277 53.311 309.527 51.8992C309.768 50.4787 311.248 49.549 312.841 49.79C314.416 50.0224 315.553 51.3396 315.355 52.7686Z" fill="#F13D20"/>
<path d="M309.277 52.166C309.441 53.311 309.837 54.5335 312.023 55.3685C312.023 55.3685 309.914 54.0255 310.336 52.0369C310.241 51.4257 309.191 51.5548 309.277 52.166Z" fill="#F13D20"/>
<path d="M312.17 48.6795C310.405 48.645 308.76 51.0125 309.75 51.3912C309.88 51.4429 310.25 51.4687 310.301 51.2105C310.637 49.3337 312.17 48.6795 312.17 48.6795Z" fill="#F13D20"/>
<path d="M316.603 47.5001C316.457 47.4829 316.31 47.457 316.155 47.4398C316.207 47.061 316.259 46.6736 316.31 46.2948C316.388 45.6922 315.932 45.1413 315.277 45.0466C314.778 44.9777 314.287 44.9088 313.788 44.8313C313.168 44.7366 312.6 45.124 312.505 45.6922C312.445 46.0882 312.376 46.4928 312.316 46.8888C312.17 46.863 312.023 46.8458 311.877 46.82C311.756 46.8028 311.644 46.8716 311.627 46.9835C311.584 47.2676 311.533 47.5517 311.489 47.8358C311.472 47.9477 311.558 48.051 311.679 48.0682C311.679 48.0682 314.012 47.9994 316.431 48.7483C316.551 48.7828 316.663 48.6881 316.681 48.5762C316.715 48.2921 316.758 48.008 316.792 47.7239C316.81 47.6206 316.724 47.5173 316.603 47.5001Z" fill="#1A1A1A"/>
<path d="M334.647 53.6209C334.578 55.928 332.349 57.7445 329.68 57.5895C327.002 57.4432 325.014 55.3943 325.22 53.0958C325.427 50.7972 327.64 49.1013 330.179 49.239C332.71 49.3768 334.716 51.3051 334.647 53.6209Z" fill="#7D60DA"/>
<path d="M333.571 53.8103C333.502 55.644 331.729 57.0816 329.611 56.9611C327.493 56.8406 325.901 55.2221 326.056 53.3885C326.21 51.5548 327.975 50.2032 330.007 50.3151C332.047 50.427 333.64 51.968 333.571 53.8103Z" fill="#9F88EA"/>
<path d="M331.815 54.0255C331.746 55.4632 330.351 56.5651 328.707 56.4618C327.054 56.3585 325.814 55.093 325.935 53.6639C326.056 52.2349 327.442 51.176 329.043 51.2707C330.635 51.374 331.884 52.5965 331.815 54.0255Z" fill="#9F88EA"/>
<path d="M325.711 53.9653C325.969 55.093 326.477 56.2724 328.724 56.9181C328.724 56.9181 326.503 55.7645 326.753 53.7414C326.615 53.1388 325.573 53.3626 325.711 53.9653Z" fill="#7D60DA"/>
<path d="M328.285 50.2377C326.529 50.3496 325.1 52.8633 326.116 53.1474C326.245 53.1819 326.624 53.1819 326.641 52.915C326.813 51.0211 328.285 50.2377 328.285 50.2377Z" fill="#7D60DA"/>
<path d="M332.59 48.6709C332.443 48.6623 332.288 48.6623 332.142 48.6536C332.159 48.2662 332.176 47.8789 332.194 47.4915C332.219 46.8888 331.711 46.3723 331.057 46.3379C330.558 46.3121 330.059 46.2862 329.559 46.2518C328.939 46.2174 328.406 46.6478 328.363 47.216C328.337 47.6206 328.311 48.0252 328.277 48.4298C328.13 48.4212 327.975 48.4126 327.829 48.404C327.708 48.3954 327.596 48.4815 327.596 48.5934C327.579 48.8775 327.553 49.1616 327.536 49.4543C327.528 49.5662 327.622 49.6609 327.743 49.6695C327.743 49.6695 330.059 49.394 332.529 49.9363C332.65 49.9622 332.753 49.8589 332.762 49.747C332.77 49.4629 332.788 49.1702 332.796 48.8861C332.813 48.7656 332.719 48.6795 332.59 48.6709Z" fill="#1A1A1A"/>
<path d="M350.797 53.2163C350.926 55.5235 348.869 57.5207 346.191 57.5982C343.514 57.6757 341.353 55.8075 341.362 53.5004C341.371 51.1932 343.428 49.3165 345.968 49.2391C348.507 49.153 350.668 50.9006 350.797 53.2163Z" fill="#FFCE1A"/>
<path d="M349.747 53.4918C349.842 55.3255 348.197 56.9095 346.071 56.9697C343.953 57.03 342.223 55.5493 342.223 53.7156C342.214 51.8733 343.858 50.3754 345.899 50.3151C347.93 50.2549 349.652 51.6581 349.747 53.4918Z" fill="#FFD74B"/>
<path d="M348.016 53.862C348.077 55.2996 346.777 56.5221 345.124 56.5565C343.471 56.5995 342.128 55.4374 342.128 54.0083C342.128 52.5706 343.419 51.3998 345.021 51.3568C346.613 51.3224 347.956 52.4243 348.016 53.862Z" fill="#FFDE70"/>
<path d="M341.93 54.3182C342.292 55.4202 342.894 56.5565 345.184 57.0042C345.184 57.0042 342.877 56.0486 342.946 54.0083C342.748 53.4229 341.741 53.7328 341.93 54.3182Z" fill="#FFDE70"/>
<path d="M344.168 50.384C342.429 50.6509 341.224 53.268 342.257 53.4746C342.395 53.5004 342.765 53.466 342.765 53.1991C342.774 51.2965 344.177 50.3926 344.168 50.384Z" fill="#FFDE70"/>
<path d="M348.326 48.4557C348.18 48.4643 348.025 48.4643 347.879 48.4729C347.862 48.0855 347.853 47.6981 347.836 47.3107C347.81 46.7081 347.259 46.2432 346.605 46.2604C346.105 46.2776 345.606 46.2948 345.098 46.3035C344.478 46.3207 343.979 46.7942 343.988 47.3709C343.996 47.7756 344.005 48.1802 344.005 48.5848C343.858 48.5848 343.703 48.5934 343.557 48.5934C343.437 48.5934 343.333 48.6881 343.333 48.8C343.333 49.0841 343.342 49.3768 343.342 49.6609C343.342 49.7728 343.445 49.8589 343.566 49.8589C343.566 49.8589 345.847 49.394 348.361 49.7125C348.481 49.7298 348.585 49.6092 348.576 49.4973C348.567 49.2132 348.55 48.9205 348.542 48.6364C348.55 48.5417 348.447 48.4557 348.326 48.4557Z" fill="#1A1A1A"/>
<path d="M367.171 51.374C367.507 53.6553 365.621 55.8334 362.953 56.1433C360.293 56.4618 357.968 54.7831 357.77 52.4846C357.572 50.1774 359.466 48.1371 361.989 47.8358C364.52 47.5345 366.835 49.0927 367.171 51.374Z" fill="#F70000"/>
<path d="M366.147 51.7528C366.396 53.5779 364.898 55.291 362.781 55.5407C360.671 55.7903 358.821 54.4646 358.657 52.6309C358.493 50.7972 360 49.1616 362.023 48.9205C364.046 48.6795 365.888 49.9278 366.147 51.7528Z" fill="#F70000"/>
<path d="M364.451 52.2693C364.631 53.6984 363.452 55.0241 361.808 55.2135C360.163 55.4029 358.726 54.3613 358.588 52.9322C358.459 51.5032 359.647 50.2204 361.24 50.0397C362.824 49.8589 364.261 50.8489 364.451 52.2693Z" fill="#F13D20"/>
<path d="M358.416 53.2593C358.872 54.3268 359.569 55.4029 361.902 55.644C361.902 55.6526 359.518 54.8864 359.406 52.8547C359.165 52.2952 358.175 52.6912 358.416 53.2593Z" fill="#F13D20"/>
<path d="M360.31 49.1443C358.597 49.5576 357.624 52.2779 358.674 52.3899C358.812 52.4071 359.182 52.3382 359.156 52.0713C358.993 50.1688 360.31 49.1443 360.31 49.1443Z" fill="#F13D20"/>
<path d="M364.287 46.863C364.141 46.8802 363.994 46.8975 363.839 46.9233C363.788 46.5359 363.745 46.1571 363.693 45.7697C363.616 45.1671 363.022 44.7539 362.376 44.8314C361.877 44.8916 361.377 44.9519 360.878 45.0121C360.258 45.081 359.802 45.5975 359.862 46.1657C359.905 46.5703 359.948 46.9663 359.991 47.3709C359.845 47.3882 359.699 47.4054 359.544 47.414C359.423 47.4226 359.328 47.5259 359.346 47.6378C359.371 47.9219 359.406 48.206 359.432 48.4901C359.44 48.602 359.552 48.6795 359.673 48.6709C359.673 48.6709 361.902 48.008 364.442 48.1113C364.563 48.1199 364.649 47.9908 364.64 47.8789C364.606 47.5948 364.563 47.3107 364.528 47.0266C364.52 46.9233 364.408 46.8458 364.287 46.863Z" fill="#1A1A1A"/>
<path d="M383.356 48.1027C383.889 50.3496 382.193 52.6826 379.559 53.2249C376.925 53.7759 374.463 52.3124 374.067 50.0311C373.671 47.7497 375.375 45.5459 377.872 45.0294C380.377 44.5128 382.822 45.8558 383.356 48.1027Z" fill="#7D60DA"/>
<path d="M382.366 48.5676C382.779 50.3582 381.427 52.2005 379.335 52.6395C377.252 53.07 375.289 51.9164 374.962 50.1085C374.635 48.3007 375.995 46.5273 378.001 46.1141C380.007 45.7009 381.952 46.7769 382.366 48.5676Z" fill="#9F88EA"/>
<path d="M380.713 49.239C381.023 50.6423 379.955 52.0713 378.328 52.3985C376.701 52.7256 375.169 51.8217 374.919 50.4098C374.661 48.998 375.737 47.612 377.312 47.2935C378.888 46.9749 380.411 47.8358 380.713 49.239Z" fill="#9F88EA"/>
<path d="M374.781 50.7542C375.324 51.7786 376.124 52.7859 378.466 52.8289C378.466 52.8375 376.012 52.2865 375.728 50.2721C375.435 49.7297 374.488 50.2118 374.781 50.7542Z" fill="#7D60DA"/>
<path d="M376.305 46.4842C374.626 47.0524 373.894 49.8417 374.953 49.8589C375.091 49.8589 375.453 49.7642 375.41 49.4973C375.082 47.6292 376.314 46.4842 376.305 46.4842Z" fill="#7D60DA"/>
<path d="M380.084 43.8586C379.938 43.893 379.791 43.9274 379.645 43.9533C379.559 43.5745 379.482 43.1957 379.395 42.8169C379.266 42.2229 378.638 41.8613 377.992 41.9991C377.502 42.1024 377.011 42.2057 376.512 42.309C375.9 42.4381 375.487 42.9891 375.599 43.5486C375.676 43.9446 375.754 44.3406 375.831 44.7367C375.685 44.7625 375.539 44.7969 375.392 44.8227C375.272 44.8486 375.194 44.9519 375.212 45.0638C375.263 45.3479 375.324 45.6234 375.375 45.9074C375.392 46.0194 375.513 46.0882 375.633 46.0624C375.633 46.0624 377.803 45.2015 380.351 45.081C380.472 45.0724 380.549 44.9433 380.523 44.8313C380.463 44.5473 380.403 44.2718 380.334 43.9877C380.317 43.9016 380.205 43.8327 380.084 43.8586Z" fill="#1A1A1A"/>
<path d="M399.023 43.4798C399.747 45.675 398.257 48.1457 395.666 48.9205C393.083 49.7039 390.492 48.4556 389.898 46.226C389.304 43.9877 390.828 41.6461 393.281 40.9057C395.735 40.1654 398.3 41.2845 399.023 43.4798Z" fill="#FFCE1A"/>
<path d="M398.068 44.0307C398.636 45.7783 397.439 47.7411 395.391 48.3523C393.342 48.9722 391.276 47.9908 390.793 46.2174C390.311 44.444 391.525 42.5586 393.488 41.9732C395.459 41.3792 397.508 42.2831 398.068 44.0307Z" fill="#FFD74B"/>
<path d="M396.475 44.84C396.906 46.2088 395.959 47.7325 394.358 48.206C392.756 48.6795 391.146 47.9133 390.776 46.5273C390.397 45.1413 391.353 43.6692 392.903 43.2129C394.452 42.7566 396.045 43.4712 396.475 44.84Z" fill="#FFDE70"/>
<path d="M390.664 46.8802C391.301 47.853 392.18 48.7914 394.53 48.6192C394.53 48.6278 392.033 48.3007 391.577 46.312C391.241 45.7955 390.329 46.3637 390.664 46.8802Z" fill="#FFDE70"/>
<path d="M391.835 42.4898C390.208 43.2043 389.717 46.0452 390.776 45.9763C390.914 45.9677 391.267 45.8386 391.198 45.5803C390.707 43.738 391.835 42.4898 391.835 42.4898Z" fill="#FFDE70"/>
<path d="M395.382 39.5369C395.236 39.58 395.098 39.6316 394.952 39.6747C394.84 39.3045 394.719 38.9343 394.607 38.5642C394.426 37.9874 393.772 37.6775 393.135 37.8755C392.653 38.0218 392.171 38.1682 391.68 38.3145C391.078 38.4953 390.716 39.0807 390.88 39.6316C390.992 40.019 391.103 40.4064 391.215 40.8024C391.069 40.8455 390.923 40.8885 390.785 40.9316C390.664 40.966 390.595 41.0779 390.621 41.1898C390.699 41.4653 390.776 41.7408 390.854 42.0163C390.888 42.1196 391.009 42.1798 391.129 42.1454C391.129 42.1454 393.23 41.0951 395.761 40.7508C395.881 40.7336 395.95 40.5958 395.916 40.4925C395.83 40.217 395.744 39.9416 395.657 39.6747C395.623 39.5628 395.494 39.5025 395.382 39.5369Z" fill="#1A1A1A"/>
<path d="M414.554 37.3589C415.475 39.4767 414.192 42.0851 411.661 43.0924C409.139 44.1082 406.436 43.101 405.652 40.9316C404.86 38.7622 406.177 36.2742 408.571 35.3186C410.964 34.3631 413.633 35.2412 414.554 37.3589Z" fill="#F70000"/>
<path d="M413.641 37.996C414.364 39.6919 413.331 41.7494 411.334 42.55C409.337 43.3506 407.185 42.5672 406.548 40.8369C405.911 39.1065 406.961 37.1265 408.881 36.3517C410.8 35.5941 412.927 36.3001 413.641 37.996Z" fill="#F70000"/>
<path d="M412.117 38.9516C412.668 40.2773 411.851 41.8785 410.292 42.4984C408.734 43.1182 407.055 42.4984 406.556 41.1468C406.057 39.7952 406.883 38.2456 408.398 37.643C409.905 37.0576 411.566 37.6258 412.117 38.9516Z" fill="#F13D20"/>
<path d="M406.47 41.5083C407.193 42.4123 408.157 43.2731 410.499 42.8944C410.499 42.903 407.968 42.7997 407.34 40.8627C406.952 40.3806 406.091 41.0263 406.47 41.5083Z" fill="#F13D20"/>
<path d="M407.262 37.0318C405.695 37.8927 405.454 40.768 406.505 40.5958C406.642 40.57 406.987 40.415 406.892 40.1654C406.238 38.3748 407.262 37.0318 407.262 37.0318Z" fill="#F13D20"/>
<path d="M410.559 33.7691C410.422 33.8293 410.275 33.8896 410.137 33.9412C409.991 33.5797 409.845 33.2267 409.698 32.8651C409.466 32.3056 408.786 32.0645 408.166 32.3142C407.693 32.5036 407.219 32.693 406.746 32.8824C406.16 33.1148 405.85 33.7346 406.057 34.2684C406.203 34.6472 406.35 35.026 406.496 35.4047C406.358 35.4564 406.212 35.5167 406.074 35.5683C405.962 35.6113 405.893 35.7319 405.936 35.8352C406.04 36.102 406.143 36.3689 406.246 36.6358C406.289 36.7391 406.41 36.7908 406.53 36.7391C406.53 36.7391 408.545 35.4994 411.05 34.9226C411.17 34.8968 411.222 34.7505 411.179 34.6472C411.067 34.3803 410.955 34.1134 410.852 33.8552C410.8 33.7605 410.671 33.7174 410.559 33.7691Z" fill="#1A1A1A"/>
<path d="M429.593 29.8004C430.695 31.8321 429.636 34.5525 427.191 35.8007C424.747 37.049 421.949 36.3001 420.976 34.2081C419.994 32.1162 421.105 29.5163 423.421 28.3283C425.737 27.1489 428.491 27.7688 429.593 29.8004Z" fill="#7D60DA"/>
<path d="M428.741 30.5236C429.61 32.142 428.758 34.3028 426.821 35.2928C424.884 36.2828 422.663 35.6974 421.871 34.0359C421.079 32.3745 421.966 30.2911 423.817 29.3442C425.668 28.3972 427.872 28.9051 428.741 30.5236Z" fill="#9F88EA"/>
<path d="M427.286 31.6255C427.949 32.8996 427.269 34.5783 425.762 35.3359C424.247 36.102 422.517 35.6372 421.897 34.3372C421.277 33.0373 421.974 31.4103 423.438 30.6699C424.901 29.9382 426.623 30.3514 427.286 31.6255Z" fill="#9F88EA"/>
<path d="M421.845 34.7074C422.646 35.5425 423.688 36.3087 426.003 35.706C426.003 35.7146 423.455 35.8524 422.655 33.9757C422.233 33.5366 421.424 34.2598 421.845 34.7074Z" fill="#7D60DA"/>
<path d="M422.25 30.162C420.752 31.1692 420.761 34.0618 421.802 33.7949C421.94 33.7605 422.267 33.5625 422.155 33.3214C421.346 31.5997 422.25 30.162 422.25 30.162Z" fill="#7D60DA"/>
<path d="M425.272 26.5893C425.134 26.6582 425.005 26.7357 424.867 26.8046C424.686 26.4602 424.514 26.1159 424.333 25.7801C424.058 25.2464 423.343 25.0656 422.749 25.3755C422.293 25.6079 421.837 25.849 421.38 26.0728C420.812 26.3569 420.554 27.0112 420.804 27.5191C420.984 27.8807 421.165 28.2422 421.337 28.6124C421.2 28.6813 421.062 28.7501 420.924 28.819C420.812 28.8707 420.761 28.9998 420.812 29.1031C420.941 29.3614 421.062 29.6196 421.191 29.8779C421.243 29.9812 421.372 30.0156 421.484 29.9554C421.484 29.9554 423.395 28.5349 425.857 27.7171C425.978 27.674 426.021 27.5277 425.969 27.433C425.84 27.1747 425.702 26.9251 425.573 26.6668C425.521 26.5635 425.384 26.5377 425.272 26.5893Z" fill="#1A1A1A"/>
<path d="M443.789 20.985C445.072 22.9048 444.228 25.7285 441.878 27.2092C439.528 28.6899 436.661 28.1992 435.499 26.202C434.337 24.2047 435.232 21.5016 437.453 20.0983C439.691 18.7037 442.506 19.0653 443.789 20.985Z" fill="#FFCE1A"/>
<path d="M442.988 21.7857C443.996 23.3266 443.324 25.5649 441.456 26.7357C439.597 27.9065 437.307 27.5277 436.377 25.9437C435.447 24.3597 436.153 22.1989 437.935 21.0711C439.734 19.952 441.981 20.2533 442.988 21.7857Z" fill="#FFD74B"/>
<path d="M441.628 23.0253C442.403 24.2392 441.861 25.9781 440.406 26.8821C438.951 27.786 437.169 27.4933 436.446 26.2536C435.714 25.014 436.274 23.3266 437.686 22.4485C439.089 21.5704 440.854 21.8115 441.628 23.0253Z" fill="#FFDE70"/>
<path d="M436.429 26.6152C437.307 27.3814 438.409 28.0442 440.69 27.2264C440.69 27.235 438.15 27.6138 437.186 25.8146C436.713 25.4186 435.964 26.2106 436.429 26.6152Z" fill="#FFDE70"/>
<path d="M436.446 22.0439C435.025 23.1889 435.275 26.0814 436.299 25.7113C436.437 25.6596 436.747 25.4358 436.609 25.2119C435.654 23.5677 436.446 22.0439 436.446 22.0439Z" fill="#FFDE70"/>
<path d="M439.183 18.1872C439.054 18.2733 438.925 18.3594 438.796 18.4369C438.589 18.1097 438.383 17.7826 438.168 17.4555C437.84 16.9475 437.117 16.8356 436.541 17.1972C436.101 17.4727 435.662 17.7568 435.223 18.0322C434.672 18.3766 434.474 19.0481 434.767 19.5388C434.974 19.8831 435.189 20.2275 435.396 20.5804C435.266 20.6579 435.129 20.744 435 20.8215C434.888 20.8904 434.853 21.0195 434.905 21.1142C435.051 21.3638 435.198 21.6049 435.353 21.8545C435.413 21.9492 435.542 21.9751 435.654 21.9062C435.654 21.9062 437.453 20.305 439.864 19.2547C439.984 19.203 440.01 19.0481 439.95 18.962C439.795 18.7209 439.64 18.4799 439.485 18.2389C439.424 18.1442 439.287 18.1183 439.183 18.1872Z" fill="#1A1A1A"/>
<path d="M457.563 10.5856C459.018 12.3849 458.407 15.2946 456.177 17.0078C453.939 18.7209 451.012 18.5229 449.678 16.6376C448.343 14.7523 449.006 11.963 451.124 10.336C453.25 8.70892 456.117 8.7864 457.563 10.5856Z" fill="#F70000"/>
<path d="M456.831 11.4637C457.976 12.9014 457.486 15.2086 455.712 16.5687C453.939 17.9289 451.615 17.774 450.538 16.2847C449.462 14.7867 449.996 12.5571 451.692 11.2571C453.397 9.9572 455.686 10.0261 456.831 11.4637Z" fill="#F70000"/>
<path d="M455.566 12.8411C456.453 13.9775 456.057 15.7681 454.671 16.8184C453.285 17.8686 451.468 17.7481 450.633 16.5773C449.798 15.4065 450.211 13.659 451.554 12.6431C452.889 11.6359 454.679 11.7048 455.566 12.8411Z" fill="#F13D20"/>
<path d="M450.642 16.9561C451.589 17.6276 452.759 18.1872 454.972 17.1455C454.972 17.1541 452.45 17.7826 451.322 16.0867C450.822 15.7251 450.142 16.5946 450.642 16.9561Z" fill="#F13D20"/>
<path d="M450.272 12.3763C448.946 13.659 449.436 16.5343 450.435 16.0608C450.564 16.0006 450.857 15.7423 450.711 15.5271C449.609 13.9775 450.272 12.3763 450.272 12.3763Z" fill="#F13D20"/>
<path d="M452.691 8.24406C452.57 8.33876 452.441 8.44206 452.32 8.53676C452.079 8.23545 451.847 7.92553 451.606 7.62423C451.236 7.15074 450.495 7.1077 449.944 7.52953C449.523 7.85666 449.109 8.17519 448.688 8.49371C448.162 8.88972 448.016 9.57842 448.36 10.0433C448.601 10.3704 448.842 10.6976 449.084 11.0161C448.954 11.1108 448.834 11.2055 448.705 11.3002C448.601 11.3777 448.576 11.5154 448.636 11.6015C448.808 11.8339 448.972 12.0664 449.144 12.2988C449.213 12.3849 449.35 12.4021 449.454 12.3246C449.454 12.3246 451.124 10.5426 453.457 9.25129C453.569 9.19102 453.586 9.03607 453.517 8.94137C453.336 8.71754 453.164 8.49371 452.983 8.26128C452.932 8.16658 452.794 8.16658 452.691 8.24406Z" fill="#1A1A1A"/>
<path d="M470.554 -1.26003C472.164 0.392852 471.802 3.3801 469.693 5.32568C467.584 7.27987 464.622 7.37457 463.124 5.61838C461.618 3.86219 462.048 1.00408 464.046 -0.846811C466.043 -2.68909 468.944 -2.91292 470.554 -1.26003Z" fill="#7D60DA"/>
<path d="M469.891 -0.295864C471.165 1.02989 470.864 3.3973 469.194 4.93827C467.523 6.48785 465.165 6.56533 463.959 5.17932C462.754 3.7933 463.099 1.50337 464.7 0.0226607C466.301 -1.44944 468.617 -1.62162 469.891 -0.295864Z" fill="#9F88EA"/>
<path d="M468.729 1.21929C469.71 2.26956 469.469 4.11184 468.161 5.29985C466.852 6.49647 465.018 6.55673 464.071 5.47202C463.124 4.38732 463.4 2.59669 464.665 1.43451C465.931 0.280933 467.747 0.169019 468.729 1.21929Z" fill="#9F88EA"/>
<path d="M464.114 5.85082C465.122 6.43621 466.353 6.87526 468.488 5.59255C468.488 5.60116 466 6.48787 464.726 4.90385C464.2 4.59394 463.581 5.5409 464.114 5.85082Z" fill="#7D60DA"/>
<path d="M463.357 1.29677C462.126 2.72582 462.875 5.5495 463.839 4.97271C463.968 4.89524 464.244 4.61115 464.071 4.41314C462.823 2.96687 463.357 1.29677 463.357 1.29677Z" fill="#7D60DA"/>
<path d="M465.449 -3.10232C465.337 -2.9904 465.216 -2.87849 465.096 -2.77518C464.829 -3.05927 464.571 -3.33475 464.304 -3.61884C463.891 -4.05789 463.142 -4.02345 462.625 -3.54136C462.229 -3.17119 461.833 -2.80962 461.446 -2.44805C460.955 -2.00039 460.86 -1.28586 461.248 -0.864034C461.515 -0.562727 461.79 -0.26142 462.057 0.0398874C461.936 0.143193 461.825 0.255107 461.704 0.358412C461.609 0.4445 461.583 0.582241 461.661 0.668328C461.85 0.883548 462.04 1.09877 462.229 1.31399C462.307 1.40007 462.444 1.39147 462.539 1.30538C462.539 1.30538 464.071 -0.648815 466.31 -2.18979C466.422 -2.26726 466.422 -2.42222 466.344 -2.4997C466.146 -2.70631 465.948 -2.91292 465.75 -3.12814C465.681 -3.19701 465.544 -3.1884 465.449 -3.10232Z" fill="#1A1A1A"/>
<path d="M204.129 -11.229C218.437 3.18209 234.777 15.5701 252.717 25.1086C269.625 34.0962 287.876 40.5356 306.72 43.9619C325.16 47.3107 344.082 47.7669 362.651 45.2618C381.522 42.7136 399.927 37.1007 417.059 28.7846C435.172 19.995 451.769 8.22683 466.301 -5.69356C468.195 -7.5014 470.046 -9.35228 471.871 -11.229C472.276 -11.6422 471.639 -12.2793 471.234 -11.866C457.133 2.67417 440.94 15.1569 423.059 24.7212C406.263 33.7002 388.082 40.0363 369.315 43.3248C350.849 46.5617 331.866 46.8286 313.315 44.134C294.59 41.4137 276.314 35.7233 259.294 27.4502C241.371 18.7295 224.877 7.18517 210.345 -6.44252C208.451 -8.21593 206.6 -10.0238 204.766 -11.866C204.362 -12.2793 203.725 -11.6422 204.129 -11.229Z" fill="#1A1A1A"/>
<path d="M470.853 4.92667C469.704 6.92956 466.801 7.43775 464.392 5.97824C461.983 4.51872 461.087 1.70263 462.358 -0.229699C463.629 -2.16203 466.48 -2.54166 468.766 -1.1527C471.052 0.227719 472 2.91526 470.853 4.92667Z" fill="#F70000"/>
<path d="M469.771 4.56699C468.845 6.15803 466.535 6.54399 464.626 5.38264C462.717 4.22129 462.002 1.9889 462.996 0.44963C463.998 -1.09077 466.275 -1.40278 468.108 -0.292073C469.941 0.818635 470.696 2.96741 469.771 4.56699Z" fill="#F70000"/>
<path d="M468.048 3.88468C467.318 5.11962 465.506 5.40439 464.02 4.49056C462.535 3.57673 461.982 1.83531 462.759 0.628809C463.545 -0.578826 465.328 -0.816379 466.766 0.0689982C468.196 0.955512 468.778 2.64973 468.048 3.88468Z" fill="#F13D20"/>
<path d="M462.414 0.778945C462.13 1.90245 462.043 3.20803 463.832 4.89786C463.823 4.89899 462.315 2.7723 463.483 1.10563C463.628 0.504338 462.569 0.176517 462.414 0.778945Z" fill="#F13D20"/>
<path d="M466.551 -1.2224C464.867 -1.99688 462.366 -0.499913 463.172 0.269896C463.28 0.368327 463.627 0.556675 463.77 0.32914C464.817 -1.26928 466.551 -1.2224 466.551 -1.2224Z" fill="#F13D20"/>
<path d="M471.273 -0.461731C471.141 -0.539686 471 -0.616504 470.867 -0.702993C471.066 -1.03349 471.265 -1.36398 471.463 -1.70301C471.776 -2.22236 471.543 -2.92951 470.949 -3.28458C470.496 -3.55429 470.042 -3.83253 469.598 -4.10338C469.04 -4.44593 468.342 -4.33566 468.033 -3.85158C467.818 -3.51028 467.603 -3.16898 467.389 -2.81914C467.256 -2.90563 467.124 -2.98358 466.991 -3.07007C466.877 -3.14177 466.742 -3.11505 466.685 -3.02062C466.535 -2.77488 466.376 -2.53654 466.226 -2.2908C466.169 -2.19638 466.205 -2.06212 466.318 -1.99042C466.318 -1.99042 468.595 -1.06909 470.637 0.63044C470.734 0.712941 470.886 0.675415 470.941 0.572454C471.091 0.326717 471.232 0.0821165 471.381 -0.172154C471.429 -0.265445 471.385 -0.39857 471.273 -0.461731Z" fill="#1A1A1A"/>
<path d="M486.18 12.5427C485.226 14.6412 482.404 15.4253 479.906 14.2121C477.408 12.9989 476.292 10.2903 477.375 8.2527C478.458 6.21511 481.237 5.55842 483.605 6.71073C485.973 7.86304 487.133 10.4442 486.18 12.5427Z" fill="#7D60DA"/>
<path d="M485.086 12.2888C484.31 13.9556 482.072 14.5662 480.093 13.5966C478.114 12.6269 477.221 10.4878 478.072 8.85467C478.924 7.23005 481.145 6.69105 483.04 7.61972C484.937 8.55693 485.855 10.6232 485.086 12.2888Z" fill="#9F88EA"/>
<path d="M483.326 11.7851C482.708 13.0833 480.954 13.5427 479.412 12.7841C477.877 12.0245 477.176 10.3462 477.841 9.07652C478.506 7.80686 480.248 7.39238 481.736 8.13213C483.223 8.86334 483.943 10.487 483.326 11.7851Z" fill="#9F88EA"/>
<path d="M477.517 9.24997C477.33 10.3951 477.356 11.6944 479.258 13.1954C479.249 13.1966 477.581 11.2303 478.596 9.46231C478.698 8.85817 477.618 8.64583 477.517 9.24997Z" fill="#7D60DA"/>
<path d="M481.419 6.86289C479.698 6.25851 477.365 7.98475 478.221 8.66981C478.337 8.75857 478.687 8.91165 478.811 8.66932C479.708 6.98668 481.419 6.86289 481.419 6.86289Z" fill="#7D60DA"/>
<path d="M486.131 7.15594C485.992 7.08766 485.853 7.02791 485.714 6.95962C485.884 6.60694 486.047 6.26392 486.217 5.91124C486.474 5.36457 486.193 4.68984 485.58 4.38939C485.116 4.16462 484.642 3.93245 484.178 3.70767C483.601 3.41974 482.921 3.59714 482.659 4.10967C482.473 4.47316 482.296 4.83552 482.109 5.19048C481.969 5.12219 481.83 5.05391 481.69 4.98562C481.579 4.93099 481.444 4.95771 481.396 5.05954C481.265 5.31154 481.135 5.57207 481.003 5.82406C480.956 5.92589 481.007 6.04934 481.12 6.1125C481.12 6.1125 483.435 6.80287 485.588 8.29648C485.693 8.36931 485.834 8.31586 485.881 8.21403C486.003 7.95464 486.125 7.69525 486.246 7.43585C486.302 7.33289 486.251 7.20944 486.131 7.15594Z" fill="#1A1A1A"/>
<path d="M501.651 18.5675C500.881 20.7457 498.163 21.7853 495.6 20.8064C493.038 19.8276 491.704 17.2435 492.602 15.1178C493.499 12.9834 496.184 12.0787 498.617 13.0052C501.05 13.9231 502.419 16.3809 501.651 18.5675Z" fill="#FFCE1A"/>
<path d="M500.544 18.4109C499.924 20.1437 497.756 20.9535 495.725 20.1733C493.693 19.393 492.63 17.3461 493.332 15.6458C494.035 13.9455 496.178 13.2085 498.127 13.9563C500.086 14.7114 501.165 16.6782 500.544 18.4109Z" fill="#FFD74B"/>
<path d="M498.771 18.0739C498.273 19.417 496.576 20.0425 495 19.4274C493.416 18.8133 492.594 17.2118 493.139 15.8887C493.692 14.5644 495.37 13.9934 496.899 14.5802C498.429 15.1754 499.269 16.7223 498.771 18.0739Z" fill="#FFDE70"/>
<path d="M492.828 16.0951C492.739 17.2534 492.875 18.5379 494.875 19.8608C494.867 19.862 493.055 18.0624 493.911 16.2113C493.96 15.5969 492.876 15.4807 492.828 16.0951Z" fill="#FFDE70"/>
<path d="M496.475 13.3513C494.722 12.9074 492.567 14.8532 493.471 15.445C493.586 15.5252 493.957 15.6407 494.054 15.3933C494.803 13.6435 496.475 13.3513 496.475 13.3513Z" fill="#FFDE70"/>
<path d="M501.145 13.2069C501 13.1568 500.861 13.0971 500.716 13.047C500.849 12.6818 500.984 12.3251 501.118 11.9599C501.329 11.3933 500.991 10.7436 500.36 10.5063C499.876 10.3276 499.399 10.1392 498.924 9.95939C498.328 9.72607 497.674 9.96947 497.459 10.5019C497.309 10.8779 497.159 11.2539 497.01 11.6299C496.863 11.5713 496.726 11.5201 496.579 11.4615C496.46 11.4165 496.336 11.4592 496.288 11.561C496.185 11.8267 496.073 12.0935 495.969 12.3591C495.93 12.4598 495.99 12.5821 496.11 12.6356C496.11 12.6356 498.448 13.1058 500.703 14.3861C500.816 14.4493 500.945 14.3799 500.993 14.2781C501.096 14.0124 501.19 13.7394 501.294 13.4737C501.332 13.373 501.264 13.2518 501.145 13.2069Z" fill="#1A1A1A"/>
<path d="M517.738 23.2164C517.167 25.4548 514.576 26.7379 511.951 26.002C509.334 25.2649 507.793 22.8213 508.498 20.617C509.203 18.4127 511.767 17.2548 514.258 17.9566C516.739 18.6509 518.307 20.9693 517.738 23.2164Z" fill="#F70000"/>
<path d="M516.636 23.1633C516.17 24.945 514.107 25.9494 512.031 25.366C509.956 24.7826 508.734 22.8437 509.281 21.0859C509.829 19.3281 511.886 18.4028 513.871 18.9634C515.856 19.524 517.102 21.3816 516.636 23.1633Z" fill="#F70000"/>
<path d="M514.842 22.9941C514.462 24.3821 512.846 25.1533 511.229 24.6912C509.613 24.229 508.656 22.7151 509.089 21.3373C509.523 19.968 511.129 19.2418 512.692 19.6937C514.253 20.1371 515.222 21.6061 514.842 22.9941Z" fill="#F13D20"/>
<path d="M508.808 21.5745C508.824 22.7361 509.07 23.9974 511.157 25.1263C511.149 25.1275 509.205 23.5104 509.887 21.5871C509.874 20.9722 508.803 20.9498 508.808 21.5745Z" fill="#F13D20"/>
<path d="M512.168 18.5041C510.403 18.2268 508.437 20.3559 509.382 20.864C509.504 20.9346 509.879 21.0063 509.958 20.7526C510.542 18.9465 512.168 18.5041 512.168 18.5041Z" fill="#F13D20"/>
<path d="M516.782 17.933C516.638 17.8915 516.494 17.8584 516.341 17.818C516.44 17.4488 516.546 17.07 516.644 16.7008C516.8 16.1154 516.407 15.5078 515.766 15.324C515.279 15.1891 514.782 15.0468 514.295 14.9119C513.691 14.7406 513.062 15.0414 512.901 15.5927C512.788 15.9812 512.674 16.3697 512.553 16.7594C512.408 16.7178 512.264 16.6763 512.119 16.6347C512.001 16.5983 511.879 16.658 511.841 16.7673C511.756 17.0392 511.672 17.3196 511.595 17.5904C511.566 17.6985 511.633 17.8111 511.751 17.8476C511.751 17.8476 514.103 18.0988 516.443 19.168C516.554 19.2226 516.682 19.1362 516.711 19.0281C516.786 18.7488 516.862 18.4695 516.939 18.1987C516.974 18.0724 516.899 17.9609 516.782 17.933Z" fill="#1A1A1A"/>
<path d="M534.061 26.3833C533.696 28.6639 531.231 30.1734 528.577 29.6758C525.922 29.1782 524.192 26.8814 524.691 24.6264C525.198 22.3703 527.637 20.986 530.157 21.4579C532.678 21.9299 534.426 24.1027 534.061 26.3833Z" fill="#7D60DA"/>
<path d="M532.965 26.4338C532.659 28.2462 530.699 29.4366 528.596 29.0392C526.494 28.6419 525.106 26.8292 525.5 25.031C525.895 23.2328 527.84 22.1226 529.861 22.4961C531.875 22.8792 533.271 24.6213 532.965 26.4338Z" fill="#9F88EA"/>
<path d="M531.174 26.4204C530.92 27.8352 529.383 28.752 527.742 28.4321C526.102 28.1122 525.027 26.6921 525.335 25.2876C525.643 23.883 527.169 23.0197 528.755 23.3208C530.343 23.639 531.429 25.0056 531.174 26.4204Z" fill="#9F88EA"/>
<path d="M525.075 25.5566C525.194 26.7046 525.542 27.9522 527.707 28.8798C527.698 28.8809 525.639 27.4442 526.141 25.4754C526.085 24.8576 525.019 24.9388 525.075 25.5566Z" fill="#7D60DA"/>
<path d="M528.136 22.196C526.358 22.0769 524.606 24.3772 525.591 24.8018C525.72 24.8541 526.091 24.9002 526.152 24.6403C526.565 22.7875 528.136 22.196 528.136 22.196Z" fill="#7D60DA"/>
<path d="M532.652 21.2125C532.501 21.1892 532.359 21.1647 532.207 21.1328C532.278 20.75 532.341 20.3768 532.411 19.9939C532.514 19.3983 532.073 18.8231 531.423 18.7013C530.924 18.6113 530.425 18.5128 529.935 18.4218C529.32 18.3039 528.725 18.6611 528.609 19.2237C528.531 19.6162 528.446 20.0184 528.368 20.4109C528.216 20.3791 528.074 20.3546 527.922 20.3227C527.796 20.2959 527.684 20.3631 527.664 20.4785C527.606 20.7556 527.548 21.0411 527.49 21.3182C527.469 21.4251 527.545 21.5366 527.67 21.5634C527.67 21.5634 530.019 21.5979 532.427 22.4583C532.546 22.5033 532.664 22.4094 532.683 22.294C532.732 22.0095 532.781 21.7251 532.831 21.4492C532.85 21.3337 532.767 21.2319 532.652 21.2125Z" fill="#1A1A1A"/>
<path d="M550.258 28.0734C550.087 30.3802 547.78 32.0945 545.104 31.8256C542.429 31.5652 540.511 29.4237 540.824 27.1414C541.127 24.8517 543.433 23.2591 545.967 23.5035C548.502 23.7564 550.428 25.7666 550.258 28.0734Z" fill="#FFCE1A"/>
<path d="M549.174 28.2177C549.028 30.0523 547.185 31.4094 545.063 31.197C542.942 30.9845 541.414 29.2947 541.65 27.4743C541.884 25.6454 543.72 24.3673 545.753 24.5741C547.786 24.7724 549.32 26.3831 549.174 28.2177Z" fill="#FFD74B"/>
<path d="M547.404 28.358C547.273 29.791 545.832 30.8341 544.176 30.6638C542.521 30.4935 541.338 29.1746 541.52 27.7434C541.704 26.3206 543.143 25.3213 544.745 25.4813C546.341 25.6596 547.535 26.9335 547.404 28.358Z" fill="#FFDE70"/>
<path d="M541.28 28.0272C541.492 29.1627 541.948 30.3699 544.174 31.1069C544.166 31.1081 542.002 29.8591 542.334 27.8521C542.219 27.2508 541.165 27.4259 541.28 28.0272Z" fill="#FFDE70"/>
<path d="M544.031 24.4214C542.264 24.457 540.722 26.903 541.731 27.2377C541.867 27.2803 542.233 27.2923 542.267 27.0272C542.52 25.1437 544.031 24.4214 544.031 24.4214Z" fill="#FFDE70"/>
<path d="M548.415 23.0385C548.265 23.0237 548.115 23.0089 547.967 23.0026C548.002 22.6157 548.038 22.2289 548.074 21.8506C548.133 21.2522 547.645 20.7179 546.985 20.6496C546.484 20.6034 545.981 20.5487 545.48 20.5026C544.855 20.4382 544.301 20.842 544.238 21.4149C544.197 21.8199 544.145 22.2176 544.104 22.6226C543.954 22.6078 543.805 22.593 543.654 22.5697C543.531 22.56 543.419 22.6356 543.407 22.7414C543.376 23.0236 543.345 23.3143 543.304 23.5976C543.294 23.7119 543.385 23.8126 543.508 23.8223C543.508 23.8223 545.839 23.6508 548.304 24.2951C548.421 24.323 548.537 24.2206 548.549 24.1148C548.572 23.8253 548.604 23.5431 548.626 23.2536C548.629 23.1489 548.538 23.0482 548.415 23.0385Z" fill="#1A1A1A"/>
<path d="M566.751 28.3429C566.789 30.6481 564.639 32.5672 561.96 32.5333C559.281 32.5079 557.188 30.5461 557.297 28.2387C557.398 25.9325 559.547 24.1351 562.087 24.1616C564.619 24.1978 566.712 26.0293 566.751 28.3429Z" fill="#F70000"/>
<path d="M565.681 28.5897C565.7 30.4283 563.983 31.9425 561.86 31.9126C559.738 31.8913 558.072 30.3414 558.14 28.4999C558.216 26.6573 559.919 25.2319 561.962 25.2464C564.006 25.2695 565.67 26.7414 565.681 28.5897Z" fill="#F70000"/>
<path d="M563.931 28.8836C563.931 30.3166 562.584 31.486 560.931 31.4631C559.278 31.4401 557.978 30.2236 558.039 28.7912C558.091 27.3514 559.436 26.2342 561.046 26.2629C562.639 26.2853 563.939 27.4409 563.931 28.8836Z" fill="#F13D20"/>
<path d="M557.827 29.0887C558.141 30.202 558.694 31.3615 560.972 31.9005C560.972 31.9005 558.704 30.8478 558.86 28.8209C558.685 28.2275 557.661 28.4942 557.827 29.0887Z" fill="#F13D20"/>
<path d="M560.234 25.2507C558.48 25.4496 557.163 28.0134 558.194 28.2582C558.329 28.2923 558.699 28.269 558.717 28.0062C558.802 26.1016 560.234 25.2507 560.234 25.2507Z" fill="#F13D20"/>
<path d="M564.473 23.4963C564.326 23.4986 564.177 23.4923 564.021 23.4957C564.023 23.1134 564.023 22.7226 564.024 22.3403C564.021 21.7327 563.496 21.2468 562.835 21.2393C562.331 21.237 561.835 21.2335 561.33 21.2226C560.703 21.2106 560.191 21.6696 560.173 22.2453C560.165 22.6458 560.15 23.056 560.143 23.4565C559.994 23.4502 559.847 23.4525 559.698 23.4462C559.577 23.445 559.475 23.5281 559.473 23.6413C559.467 23.9286 559.454 24.217 559.449 24.5043C559.446 24.6175 559.545 24.7085 559.667 24.7097C559.667 24.7097 561.97 24.3334 564.467 24.7564C564.591 24.7746 564.69 24.666 564.692 24.5528C564.689 24.2666 564.694 23.9793 564.69 23.6932C564.694 23.5885 564.595 23.4975 564.473 23.4963Z" fill="#1A1A1A"/>
<path d="M583.167 27.1812C583.404 29.4773 581.433 31.5722 578.767 31.7709C576.094 31.9794 573.853 30.211 573.754 27.9053C573.655 25.5996 575.624 23.6264 578.16 23.4276C580.687 23.23 582.93 24.8766 583.167 27.1812Z" fill="#7D60DA"/>
<path d="M582.126 27.511C582.299 29.3377 580.731 30.997 578.616 31.1571C576.501 31.3172 574.709 29.9232 574.62 28.0852C574.532 26.2471 576.103 24.6743 578.131 24.517C580.168 24.3586 581.951 25.6758 582.126 27.511Z" fill="#9F88EA"/>
<path d="M580.413 27.9562C580.535 29.3904 579.298 30.6668 577.654 30.7815C576.002 30.8973 574.606 29.8066 574.537 28.3741C574.468 26.9417 575.702 25.7091 577.302 25.5915C578.894 25.4837 580.293 26.5306 580.413 27.9562Z" fill="#9F88EA"/>
<path d="M574.355 28.7024C574.76 29.7861 575.419 30.8882 577.732 31.2315C577.732 31.2315 575.378 30.3813 575.358 28.343C575.142 27.7638 574.139 28.1232 574.355 28.7024Z" fill="#7D60DA"/>
<path d="M576.414 24.6676C574.688 25.0104 573.604 27.6908 574.648 27.8383C574.781 27.8554 575.156 27.8054 575.138 27.5385C575.059 25.6385 576.414 24.6676 576.414 24.6676Z" fill="#7D60DA"/>
<path d="M580.474 22.5462C580.328 22.5569 580.174 22.5774 580.028 22.5882C579.994 22.2019 579.96 21.8156 579.926 21.4294C579.872 20.8286 579.3 20.3837 578.647 20.4359C578.149 20.4762 577.651 20.5166 577.151 20.5483C576.532 20.5961 576.06 21.0932 576.092 21.6621C576.12 22.0666 576.148 22.471 576.167 22.8767C576.021 22.8874 575.866 22.8994 575.72 22.9102C575.599 22.9175 575.5 23.0177 575.515 23.1286C575.535 23.4125 575.547 23.6975 575.569 23.9899C575.575 24.102 575.681 24.1833 575.802 24.1759C575.802 24.1759 578.061 23.5971 580.582 23.8085C580.704 23.8182 580.793 23.7022 580.787 23.5901C580.758 23.3074 580.736 23.0149 580.707 22.7322C580.709 22.6105 580.603 22.5376 580.474 22.5462Z" fill="#1A1A1A"/>
<path d="M599.123 24.6479C599.555 26.9178 597.779 29.1692 595.136 29.5995C592.492 30.0297 590.104 28.4633 589.807 26.1752C589.511 23.8871 591.303 21.7552 593.81 21.3431C596.316 20.9224 598.689 22.3694 599.123 24.6479Z" fill="#FFCE1A"/>
<path d="M598.118 25.0596C598.454 26.8647 597.033 28.6519 594.933 28.9924C592.842 29.3318 590.931 28.0925 590.689 26.2749C590.437 24.4498 591.87 22.7479 593.884 22.4188C595.89 22.0909 597.782 23.2545 598.118 25.0596Z" fill="#FFD74B"/>
<path d="M596.451 25.655C596.701 27.0721 595.574 28.4555 593.94 28.7078C592.307 28.9687 590.823 27.994 590.634 26.5775C590.444 25.1524 591.57 23.8214 593.151 23.5673C594.725 23.3229 596.202 24.2379 596.451 25.655Z" fill="#FFDE70"/>
<path d="M590.479 26.9109C590.983 27.9554 591.73 29.0022 594.059 29.1436C594.059 29.1436 591.646 28.501 591.445 26.4695C591.171 25.9154 590.214 26.3556 590.479 26.9109Z" fill="#FFDE70"/>
<path d="M592.178 22.7156C590.489 23.2097 589.64 25.963 590.692 26.0314C590.831 26.0388 591.194 25.9558 591.159 25.6912C590.916 23.8042 592.188 22.723 592.178 22.7156Z" fill="#FFDE70"/>
<path d="M596.045 20.2551C595.901 20.283 595.747 20.3034 595.603 20.3313C595.535 19.9495 595.476 19.5667 595.407 19.1849C595.302 18.591 594.695 18.203 594.048 18.3064C593.556 18.3894 593.063 18.4724 592.561 18.548C591.949 18.6469 591.516 19.1821 591.601 19.7527C591.663 20.1527 591.725 20.5526 591.778 20.9537C591.633 20.973 591.481 21.002 591.336 21.0213C591.216 21.0372 591.126 21.1447 591.141 21.2557C591.179 21.5373 591.226 21.8263 591.263 22.1079C591.278 22.2188 591.392 22.2905 591.511 22.2746C591.511 22.2746 593.711 21.5126 596.245 21.4964C596.367 21.4976 596.453 21.3645 596.43 21.2547C596.384 20.9742 596.328 20.6864 596.282 20.4059C596.278 20.3109 596.164 20.2392 596.045 20.2551Z" fill="#1A1A1A"/>
<path d="M615.11 20.6599C615.744 22.8769 614.163 25.2848 611.558 25.9443C608.963 26.6113 606.438 25.2541 605.938 23.0019C605.437 20.741 607.045 18.4686 609.506 17.8369C611.975 17.204 614.476 18.4428 615.11 20.6599Z" fill="#F70000"/>
<path d="M614.144 21.1706C614.633 22.9467 613.374 24.8426 611.308 25.3697C609.25 25.8956 607.24 24.8259 606.836 23.0299C606.432 21.2338 607.709 19.4136 609.683 18.9075C611.656 18.4015 613.647 19.3956 614.144 21.1706Z" fill="#F70000"/>
<path d="M612.532 21.9065C612.899 23.2992 611.905 24.769 610.3 25.1739C608.696 25.5787 607.133 24.736 606.808 23.3376C606.491 21.9381 607.499 20.5098 609.054 20.1203C610.6 19.732 612.156 20.5235 612.532 21.9065Z" fill="#F13D20"/>
<path d="M606.68 23.6846C607.274 24.6825 608.107 25.6571 610.451 25.588C610.452 25.5966 607.987 25.1519 607.608 23.1528C607.295 22.63 606.366 23.1532 606.68 23.6846Z" fill="#F13D20"/>
<path d="M608.014 19.3556C606.371 19.9914 605.766 22.8164 606.822 22.7886C606.96 22.7875 607.318 22.6704 607.257 22.4093C606.844 20.545 608.014 19.3556 608.014 19.3556Z" fill="#F13D20"/>
<path d="M611.656 16.5691C611.513 16.6055 611.37 16.6419 611.22 16.688C611.117 16.3108 611.025 15.941 610.922 15.5638C610.766 14.9767 610.123 14.6455 609.493 14.8076C609.006 14.9332 608.519 15.0589 608.032 15.1845C607.427 15.3346 607.043 15.9069 607.177 16.4621C607.273 16.8575 607.368 17.2444 607.464 17.6398C607.322 17.6762 607.179 17.7125 607.026 17.7415C606.908 17.766 606.828 17.8809 606.86 17.9895C606.923 18.2677 606.994 18.5448 607.058 18.823C607.081 18.9328 607.202 18.9948 607.32 18.9704C607.32 18.9704 609.443 18.0189 611.974 17.786C612.095 17.7786 612.163 17.6393 612.14 17.5295C612.068 17.2524 611.988 16.9765 611.916 16.6994C611.894 16.5982 611.773 16.5361 611.656 16.5691Z" fill="#1A1A1A"/>
<path d="M630.721 15.2803C631.546 17.4371 630.173 19.9735 627.634 20.859C625.095 21.7529 622.462 20.6273 621.768 18.4182C621.074 16.2092 622.473 13.7996 624.879 12.9579C627.294 12.1152 629.895 13.1236 630.721 15.2803Z" fill="#7D60DA"/>
<path d="M629.801 15.8718C630.447 17.5922 629.35 19.5968 627.335 20.3082C625.326 21.01 623.228 20.1256 622.666 18.3768C622.103 16.628 623.217 14.6905 625.15 14.0161C627.084 13.3417 629.155 14.1515 629.801 15.8718Z" fill="#9F88EA"/>
<path d="M628.251 16.7557C628.743 18.1057 627.874 19.6632 626.304 20.2023C624.735 20.7414 623.096 20.0477 622.663 18.6812C622.22 17.3158 623.104 15.7998 624.623 15.2761C626.143 14.7524 627.767 15.4045 628.251 16.7557Z" fill="#9F88EA"/>
<path d="M622.572 19.0407C623.244 19.9846 624.171 20.8773 626.498 20.6108C626.499 20.6193 623.994 20.3971 623.447 18.4378C623.085 17.9388 622.21 18.5417 622.572 19.0407Z" fill="#7D60DA"/>
<path d="M623.518 14.6069C621.929 15.3918 621.572 18.2532 622.624 18.1305C622.761 18.1123 623.106 17.9707 623.029 17.7119C622.458 15.9033 623.527 14.6058 623.518 14.6069Z" fill="#7D60DA"/>
<path d="M626.918 11.5053C626.777 11.5587 626.637 11.6122 626.495 11.6571C626.36 11.293 626.233 10.9278 626.098 10.5637C625.891 9.99189 625.22 9.71646 624.599 9.93825C624.126 10.1054 623.653 10.2726 623.172 10.4409C622.583 10.6496 622.246 11.2503 622.431 11.7902C622.56 12.1725 622.689 12.5549 622.818 12.9372C622.676 12.9821 622.536 13.0355 622.394 13.0805C622.278 13.122 622.215 13.2346 622.247 13.3433C622.336 13.6181 622.432 13.8832 622.52 14.1579C622.552 14.2666 622.681 14.319 622.797 14.2774C622.797 14.2774 624.834 13.1377 627.344 12.6818C627.462 12.6573 627.522 12.5191 627.481 12.4116C627.384 12.1379 627.288 11.8728 627.182 11.6003C627.154 11.5172 627.034 11.4638 626.918 11.5053Z" fill="#1A1A1A"/>
<path d="M645.641 8.62923C646.648 10.7098 645.498 13.3555 643.032 14.4656C640.575 15.5832 637.842 14.6879 636.958 12.5562C636.074 10.4159 637.275 7.89367 639.61 6.83586C641.944 5.77806 644.635 6.54869 645.641 8.62923Z" fill="#FFCE1A"/>
<path d="M644.767 9.30155C645.561 10.9588 644.634 13.0624 642.683 13.9388C640.734 14.8237 638.557 14.1237 637.845 12.4295C637.133 10.7352 638.087 8.70616 639.955 7.86674C641.831 7.01765 643.981 7.64314 644.767 9.30155Z" fill="#FFD74B"/>
<path d="M643.295 10.314C643.902 11.6139 643.165 13.2494 641.64 13.9301C640.115 14.6109 638.419 14.0639 637.869 12.7389C637.31 11.4151 638.063 9.8297 639.539 9.17283C641.014 8.51597 642.688 9.01397 643.295 10.314Z" fill="#FFDE70"/>
<path d="M637.804 13.1036C638.564 13.9837 639.558 14.7979 641.865 14.317C641.867 14.3255 639.349 14.3309 638.634 12.4199C638.233 11.9522 637.403 12.6359 637.804 13.1036Z" fill="#FFDE70"/>
<path d="M638.385 8.59697C636.867 9.52006 636.755 12.4009 637.796 12.1928C637.931 12.1661 638.264 11.9915 638.162 11.7446C637.432 9.98321 638.385 8.59697 638.385 8.59697Z" fill="#FFDE70"/>
<path d="M641.511 5.20172C641.372 5.26371 641.242 5.33309 641.103 5.39508C640.943 5.04292 640.774 4.6919 640.615 4.33974C640.359 3.79187 639.67 3.57105 639.064 3.85142C638.606 4.06014 638.147 4.26886 637.68 4.47872C637.107 4.73748 636.826 5.36549 637.061 5.89003C637.223 6.25926 637.385 6.62849 637.548 7.00625C637.409 7.06824 637.269 7.13023 637.138 7.19108C637.023 7.24113 636.97 7.36116 637.01 7.46868C637.123 7.73152 637.237 7.99436 637.35 8.2572C637.398 8.35505 637.525 8.39888 637.64 8.34883C637.64 8.34883 639.583 7.03042 642.047 6.35492C642.164 6.32194 642.214 6.17631 642.166 6.07846C642.045 5.81675 641.923 5.55505 641.802 5.30188C641.753 5.19549 641.617 5.15281 641.511 5.20172Z" fill="#1A1A1A"/>
<path d="M660.227 0.511515C661.42 2.48912 660.493 5.2441 658.117 6.57667C655.751 7.91664 652.938 7.27513 651.875 5.22814C650.804 3.18229 651.781 0.542234 654.027 -0.720954C656.273 -1.98414 659.035 -1.46609 660.227 0.511515Z" fill="#F70000"/>
<path d="M659.407 1.26346C660.348 2.84907 659.595 5.02495 657.721 6.08225C655.847 7.13955 653.61 6.64717 652.75 5.01606C651.891 3.38495 652.67 1.2836 654.471 0.262125C656.274 -0.742281 658.475 -0.323282 659.407 1.26346Z" fill="#F70000"/>
<path d="M658.023 2.41187C658.744 3.65327 658.145 5.34847 656.682 6.1686C655.219 6.98873 653.473 6.59597 652.8 5.32215C652.127 4.04832 652.741 2.40319 654.163 1.60581C655.58 0.826629 657.301 1.17047 658.023 2.41187Z" fill="#F13D20"/>
<path d="M652.762 5.6919C653.598 6.49243 654.668 7.21847 656.939 6.53384C656.94 6.54238 654.418 6.77414 653.539 4.9371C653.091 4.51037 652.323 5.26404 652.762 5.6919Z" fill="#F13D20"/>
<path d="M652.956 1.14997C651.517 2.21017 651.658 5.09216 652.676 4.78282C652.809 4.73904 653.13 4.53997 653.003 4.305C652.118 2.61644 652.956 1.14997 652.956 1.14997Z" fill="#F13D20"/>
<path d="M655.794 -2.51953C655.665 -2.44161 655.528 -2.36256 655.398 -2.29317C655.206 -2.63225 655.014 -2.9628 654.821 -3.30188C654.517 -3.82586 653.811 -3.97501 653.23 -3.6457C652.785 -3.39545 652.341 -3.1452 651.896 -2.89495C651.347 -2.58726 651.122 -1.93194 651.397 -1.43015C651.592 -1.074 651.787 -0.717849 651.982 -0.361702C651.852 -0.292315 651.715 -0.21326 651.586 -0.143873C651.48 -0.0864301 651.428 0.0421305 651.484 0.138848C651.622 0.389745 651.759 0.640643 651.897 0.89154C651.953 0.988258 652.08 1.02354 652.192 0.956431C652.192 0.956431 654.026 -0.538349 656.433 -1.44084C656.549 -1.48236 656.581 -1.63424 656.524 -1.73096C656.378 -1.98072 656.232 -2.23048 656.095 -2.47284C656.032 -2.55989 655.898 -2.58551 655.794 -2.51953Z" fill="#1A1A1A"/>
<path d="M445.23 -19.8687C461.315 -7.47287 479.147 2.64942 498.19 9.73573C516.137 16.4123 535.078 20.3857 554.21 21.2939C572.93 22.1788 591.747 20.1327 609.823 15.1978C628.192 10.1805 645.695 2.18662 661.579 -8.31852C678.372 -19.4226 693.271 -33.2791 705.837 -48.9963C707.476 -51.0384 709.066 -53.1174 710.628 -55.2187C710.974 -55.6817 710.259 -56.229 709.912 -55.766C697.854 -39.4913 683.451 -24.9799 666.99 -13.1385C651.527 -2.02063 634.341 6.6605 616.172 12.3981C598.295 18.0447 579.514 20.8155 560.769 20.5939C541.85 20.3695 522.982 17.142 505.019 11.1884C486.101 4.91053 468.227 -4.35502 452.023 -15.9448C449.912 -17.4526 447.838 -19.0003 445.777 -20.5843C445.322 -20.9405 444.774 -20.2249 445.23 -19.8687Z" fill="#1A1A1A"/>
<path d="M9.25035 3.69239C7.99762 5.6332 5.1332 6.0255 2.87834 4.49274C0.631925 2.96161 -0.0521116 0.154684 1.31757 -1.71086C2.68725 -3.57641 5.48651 -3.85857 7.62441 -2.40107C9.75551 -0.953657 10.5047 1.74313 9.25035 3.69239Z" fill="#F70000"/>
<path d="M8.22308 3.29176C7.21441 4.83263 4.93863 5.12848 3.15677 3.9153C1.3749 2.70212 0.832857 0.475123 1.91104 -1.01721C2.98923 -2.50954 5.23338 -2.7326 6.93727 -1.56959C8.64117 -0.406592 9.23175 1.75089 8.22308 3.29176Z" fill="#F70000"/>
<path d="M6.57584 2.56063C5.77441 3.75581 3.99621 3.97265 2.61101 3.02043C1.22582 2.06822 0.799862 0.328436 1.64872 -0.840021C2.49595 -2.00003 4.24906 -2.17787 5.58682 -1.25238C6.92622 -0.335343 7.37726 1.36545 6.57584 2.56063Z" fill="#F13D20"/>
<path d="M1.30683 -0.704546C0.952279 0.4018 0.784472 1.67584 2.40406 3.41002C2.39561 3.40839 1.06724 1.25709 2.32539 -0.349457C2.50921 -0.936437 1.50074 -1.29834 1.30683 -0.704546Z" fill="#F13D20"/>
<path d="M23.7189 11.8871C22.6475 13.9332 19.8302 14.5801 17.472 13.2641C15.1138 11.9481 14.204 9.22021 15.394 7.24095C16.5925 5.26332 19.3446 4.72651 21.5842 5.97572C23.8238 7.22494 24.7904 9.84105 23.7189 11.8871Z" fill="#7D60DA"/>
<path d="M22.6636 11.5863C21.7972 13.2073 19.5599 13.7123 17.6929 12.6668C15.826 11.6213 15.0868 9.46131 16.0328 7.882C16.9787 6.30268 19.176 5.86886 20.9734 6.86583C22.7608 7.86962 23.5299 9.96523 22.6636 11.5863Z" fill="#9F88EA"/>
<path d="M20.97 11.004C20.2787 12.2644 18.5302 12.6448 17.0765 11.8196C15.6229 10.9944 15.0554 9.30618 15.7942 8.07255C16.5329 6.83892 18.2547 6.50593 19.6625 7.29593C21.0671 8.10283 21.6613 9.74365 20.97 11.004Z" fill="#9F88EA"/>
<path d="M15.4626 8.24509C15.2095 9.37108 15.1431 10.6648 16.9001 12.2326C16.8916 12.231 15.397 10.2141 16.4992 8.50721C16.6424 7.9036 15.6058 7.64148 15.4626 8.24509Z" fill="#7D60DA"/>
<path d="M19.4336 6.03275C17.785 5.35396 15.3924 6.97757 16.192 7.69362C16.2972 7.78415 16.6342 7.94585 16.7746 7.71876C17.7558 6.09364 19.4336 6.03275 19.4336 6.03275Z" fill="#7D60DA"/>
<path d="M24.0273 6.53655C23.8918 6.46647 23.7648 6.39802 23.6309 6.31948C23.8196 5.97897 23.9982 5.64527 24.1869 5.30476C24.4741 4.77287 24.2386 4.08715 23.6609 3.76482C23.2171 3.52103 22.7749 3.26879 22.3395 3.02664C21.794 2.71931 21.1162 2.86865 20.8271 3.3651C20.6283 3.71243 20.4194 4.06657 20.2206 4.41389C20.0868 4.33536 19.9597 4.26691 19.8259 4.18837C19.7157 4.1232 19.5876 4.151 19.5325 4.25432C19.3888 4.49832 19.2434 4.75077 19.0997 4.99477C19.0463 5.08965 19.0825 5.21943 19.1927 5.2846C19.1927 5.2846 21.4092 6.0646 23.4178 7.64614C23.5163 7.72658 23.6578 7.67506 23.7128 7.57174C23.8497 7.31765 23.9866 7.06356 24.1219 6.81792C24.177 6.7146 24.1306 6.59163 24.0273 6.53655Z" fill="#1A1A1A"/>
<path d="M38.5366 18.6412C37.6413 20.774 34.9082 21.6653 32.4567 20.5592C30.0036 19.4615 28.8664 16.8211 29.8888 14.7568C30.9043 12.6824 33.5976 11.9062 35.922 12.9438C38.2448 13.9899 39.4319 16.5084 38.5366 18.6412Z" fill="#FFCE1A"/>
<path d="M37.4632 18.4334C36.7408 20.1261 34.562 20.8266 32.6185 19.9504C30.6749 19.0742 29.7639 16.9862 30.566 15.3351C31.3696 13.6756 33.5167 13.048 35.3791 13.8909C37.243 14.7254 38.1856 16.7406 37.4632 18.4334Z" fill="#FFD74B"/>
<path d="M35.7402 18.0032C35.1606 19.3203 33.462 19.8507 31.9468 19.1627C30.4315 18.4746 29.7293 16.848 30.3579 15.5491C30.9848 14.2588 32.6668 13.769 34.1347 14.4303C35.5908 15.1069 36.318 16.6946 35.7402 18.0032Z" fill="#FFDE70"/>
<path d="M30.04 15.7419C29.8798 16.8858 29.9282 18.1754 31.8041 19.5822C31.7957 19.5806 30.1415 17.7082 31.0946 15.911C31.177 15.3044 30.1224 15.1352 30.04 15.7419Z" fill="#FFDE70"/>
<path d="M33.7946 13.1982C32.1081 12.6699 29.8686 14.4986 30.7184 15.1367C30.8337 15.2204 31.1772 15.3483 31.294 15.1078C32.1328 13.4025 33.7946 13.1982 33.7946 13.1982Z" fill="#FFDE70"/>
<path d="M38.3908 13.2816C38.2536 13.22 38.1165 13.1583 37.9777 13.1052C38.1343 12.7497 38.2908 12.3942 38.4457 12.0471C38.6922 11.4986 38.3995 10.8368 37.795 10.5619C37.3346 10.3588 36.8757 10.1472 36.4153 9.94398C35.843 9.6841 35.1892 9.89069 34.9476 10.4139C34.7793 10.7846 34.6043 11.1453 34.436 11.5161C34.2989 11.4545 34.1617 11.3928 34.0262 11.3228C33.9128 11.2745 33.783 11.3107 33.738 11.4072C33.6181 11.6646 33.4964 11.9304 33.368 12.1861C33.3213 12.2911 33.3761 12.4157 33.4895 12.464C33.4895 12.464 35.7538 13.0428 37.8862 14.4378C37.9879 14.5014 38.1311 14.4414 38.1761 14.3449C38.2893 14.0774 38.4092 13.8201 38.5224 13.5526C38.559 13.4545 38.5042 13.3299 38.3908 13.2816Z" fill="#1A1A1A"/>
<path d="M54.0878 24.1432C53.3905 26.3406 50.7416 27.4761 48.2121 26.5917C45.681 25.7157 44.32 23.1898 45.1578 21.0371C45.9871 18.8828 48.5961 17.8623 50.9953 18.6952C53.3844 19.5349 54.7868 21.9373 54.0878 24.1432Z" fill="#F70000"/>
<path d="M52.9948 24.0367C52.4281 25.7859 50.318 26.6751 48.3147 25.9714C46.3098 25.2763 45.2238 23.2771 45.8734 21.5527C46.5314 19.83 48.5998 19.0204 50.5319 19.684C52.4625 20.356 53.5716 22.2807 52.9948 24.0367Z" fill="#F70000"/>
<path d="M51.2423 23.7587C50.7863 25.1173 49.1376 25.7976 47.5776 25.25C46.0175 24.7023 45.1723 23.1356 45.6858 21.797C46.1925 20.4483 47.823 19.817 49.3407 20.3565C50.8432 20.8842 51.7084 22.3934 51.2423 23.7587Z" fill="#F13D20"/>
<path d="M45.3899 22.0116C45.3328 23.1667 45.4892 24.4422 47.4772 25.6777C47.4772 25.6777 45.6618 23.9583 46.454 22.0861C46.4773 21.468 45.4216 21.3951 45.3899 22.0116Z" fill="#F13D20"/>
<path d="M48.8926 19.1385C47.1666 18.7692 45.1022 20.7808 46.0021 21.3409C46.119 21.4162 46.4776 21.5119 46.5774 21.2682C47.2638 19.4895 48.8926 19.1385 48.8926 19.1385Z" fill="#F13D20"/>
<path d="M53.4695 18.8236C53.3291 18.7788 53.1903 18.7257 53.0414 18.6793C53.1642 18.3172 53.2885 17.9467 53.4113 17.5847C53.6019 17.0078 53.2587 16.3801 52.6344 16.1628C52.1573 16.0002 51.6886 15.8393 51.2132 15.6683C50.6226 15.4575 49.9912 15.7298 49.7902 16.2696C49.6557 16.6469 49.5112 17.0311 49.3767 17.4084C49.2379 17.3552 49.0975 17.3105 48.9588 17.2573C48.8437 17.2175 48.7208 17.2638 48.6826 17.3704C48.5863 17.6411 48.4816 17.9102 48.3853 18.181C48.3471 18.2876 48.412 18.4053 48.5271 18.4452C48.5271 18.4452 50.8306 18.8211 53.0631 20.0163C53.1749 20.0731 53.3028 20.0014 53.341 19.8948C53.4288 19.6224 53.525 19.3517 53.6129 19.0793C53.6494 18.9812 53.5845 18.8634 53.4695 18.8236Z" fill="#1A1A1A"/>
<path d="M70.0206 28.2634C69.5144 30.5154 66.98 31.8748 64.3894 31.2153C61.7888 30.5626 60.226 28.173 60.8658 25.9556C61.5057 23.7383 64.0002 22.4939 66.4673 23.112C68.9259 23.7284 70.5285 26.003 70.0206 28.2634Z" fill="#7D60DA"/>
<path d="M68.9282 28.2448C68.5119 30.0319 66.4975 31.1062 64.4413 30.5852C62.3851 30.0642 61.1292 28.1725 61.63 26.4018C62.1308 24.631 64.1203 23.6396 66.0937 24.1358C68.0755 24.6335 69.346 26.4492 68.9282 28.2448Z" fill="#9F88EA"/>
<path d="M67.1631 28.1222C66.8221 29.5205 65.2434 30.3372 63.6488 29.9231C62.0457 29.5075 61.0693 28.0294 61.4593 26.6493C61.8493 25.2692 63.4114 24.4932 64.9654 24.8906C66.5093 25.2948 67.5024 26.7323 67.1631 28.1222Z" fill="#9F88EA"/>
<path d="M61.1823 26.9026C61.2214 28.0588 61.4958 29.3133 63.579 30.3744C63.579 30.3744 61.6177 28.8196 62.2475 26.8809C62.2268 26.263 61.1616 26.2847 61.1823 26.9026Z" fill="#7D60DA"/>
<path d="M64.418 23.7323C62.6726 23.5083 60.7917 25.7045 61.735 26.1766C61.8552 26.2349 62.2271 26.307 62.2947 26.0482C62.8239 24.2216 64.418 23.7323 64.418 23.7323Z" fill="#7D60DA"/>
<path d="M68.9418 23.0125C68.7998 22.9762 68.6476 22.9468 68.5056 22.9105C68.5962 22.5334 68.6867 22.1564 68.7773 21.7793C68.9172 21.1926 68.5167 20.5889 67.881 20.4307C67.3957 20.3104 66.9104 20.1901 66.4267 20.0614C65.8248 19.9098 65.2189 20.2309 65.0686 20.7805C64.9663 21.1728 64.8641 21.5651 64.7533 21.9558C64.6113 21.9195 64.4608 21.8816 64.3187 21.8454C64.202 21.814 64.0758 21.8772 64.0545 21.9871C63.9836 22.2627 63.9042 22.5367 63.8317 22.8208C63.802 22.9291 63.8769 23.04 63.9936 23.0714C63.9936 23.0714 66.3195 23.2412 68.6421 24.2434C68.7555 24.2917 68.8765 24.2099 68.9063 24.1017C68.9687 23.8244 69.0413 23.5403 69.1037 23.2631C69.1436 23.148 69.0669 23.0455 68.9418 23.0125Z" fill="#1A1A1A"/>
<path d="M85.953 30.9367C85.6412 33.2264 83.2415 34.796 80.5982 34.363C77.955 33.9301 76.1888 31.6852 76.6359 29.4218C77.083 27.1583 79.4598 25.707 81.9678 26.1138C84.4774 26.5121 86.2666 28.6387 85.953 30.9367Z" fill="#FFCE1A"/>
<path d="M84.8696 31.0075C84.6139 32.8257 82.6984 34.0682 80.5994 33.7231C78.5088 33.3796 77.0915 31.597 77.4402 29.7967C77.782 27.9864 79.6811 26.8284 81.6956 27.1572C83.7017 27.4843 85.1252 29.1893 84.8696 31.0075Z" fill="#FFD74B"/>
<path d="M83.1004 31.0419C82.8862 32.4648 81.3776 33.4178 79.7483 33.1374C78.1174 32.8654 77.0199 31.4691 77.2916 30.0661C77.5649 28.6546 79.0553 27.7507 80.6355 28.0129C82.2056 28.2819 83.3145 29.619 83.1004 31.0419Z" fill="#FFDE70"/>
<path d="M77.0382 30.3327C77.1837 31.4833 77.5593 32.7135 79.7223 33.5883C79.7223 33.5883 77.6389 32.2115 78.0945 30.2216C78.0114 29.6092 76.9636 29.722 77.0382 30.3327Z" fill="#FFDE70"/>
<path d="M79.9837 26.8958C78.2257 26.8272 76.5449 29.1674 77.5198 29.5666C77.6501 29.6182 78.0201 29.6547 78.0708 29.3927C78.441 27.5265 79.9905 26.9059 79.9837 26.8958Z" fill="#FFDE70"/>
<path d="M84.4325 25.7932C84.2872 25.7738 84.1351 25.7444 83.9898 25.725C84.0465 25.3414 84.1117 24.9594 84.1685 24.5758C84.2577 23.9793 83.8051 23.4181 83.1595 23.3106C82.6661 23.2326 82.1726 23.1546 81.6723 23.0665C81.0605 22.9655 80.4803 23.3354 80.3791 23.9033C80.3106 24.3022 80.2421 24.7011 80.1652 25.0983C80.0215 25.0705 79.8677 25.0495 79.7241 25.0217C79.6057 24.9987 79.4863 25.0721 79.465 25.1819C79.411 25.4608 79.3638 25.7498 79.3098 26.0287C79.2885 26.1386 79.3736 26.2428 79.4919 26.2657C79.4919 26.2657 81.82 26.243 84.2274 27.0337C84.3424 27.0735 84.4667 26.9748 84.4796 26.8633C84.5251 26.5828 84.5639 26.2921 84.6094 26.0116C84.6359 25.9203 84.5508 25.8161 84.4325 25.7932Z" fill="#1A1A1A"/>
<path d="M102.379 32.2412C102.274 34.5447 100.009 36.3246 97.3304 36.1214C94.6583 35.9284 92.6955 33.8384 92.9381 31.5441C93.1824 29.2414 95.4297 27.5984 97.9633 27.7822C100.505 27.9676 102.483 29.9376 102.379 32.2412Z" fill="#F70000"/>
<path d="M101.301 32.4183C101.199 34.2575 99.4026 35.6546 97.276 35.4971C95.1578 35.3412 93.5928 33.6877 93.7808 31.8564C93.9688 30.025 95.7589 28.7056 97.7909 28.8536C99.8229 29.0016 101.394 30.5774 101.301 32.4183Z" fill="#F70000"/>
<path d="M99.5376 32.6029C99.4434 34.0403 98.0334 35.1176 96.3831 34.9909C94.7328 34.8643 93.5194 33.5683 93.6559 32.1391C93.8008 30.7115 95.211 29.6781 96.809 29.8034C98.3985 29.9271 99.6217 31.1724 99.5376 32.6029Z" fill="#F13D20"/>
<path d="M93.4247 32.4275C93.6697 33.5623 94.1497 34.7513 96.3942 35.4315C96.3926 35.44 94.1972 34.2344 94.4736 32.2185C94.3433 31.6233 93.296 31.8239 93.4247 32.4275Z" fill="#F13D20"/>
<path d="M96.0664 28.7477C94.306 28.8276 92.8337 31.3134 93.8435 31.623C93.9755 31.6661 94.352 31.6689 94.3774 31.4019C94.5785 29.503 96.0664 28.7477 96.0664 28.7477Z" fill="#F13D20"/>
<path d="M100.405 27.2641C100.258 27.2532 100.111 27.2423 99.9539 27.2382C99.9769 26.848 100.007 26.468 100.03 26.0778C100.068 25.4715 99.5635 24.9528 98.9149 24.9061C98.4132 24.8704 97.9115 24.8346 97.4099 24.7988C96.7883 24.7486 96.2421 25.169 96.1933 25.7382C96.1586 26.1437 96.1255 26.5406 96.0909 26.946C95.9439 26.9351 95.797 26.9242 95.6432 26.9032C95.5232 26.8887 95.4106 26.9721 95.4063 27.0853C95.3776 27.3691 95.3574 27.6546 95.3287 27.9384C95.3159 28.0499 95.4111 28.1472 95.531 28.1617C95.531 28.1617 97.846 27.9348 100.32 28.5191C100.436 28.5505 100.545 28.44 100.558 28.3285C100.578 28.0431 100.59 27.756 100.61 27.4705C100.622 27.3675 100.526 27.2701 100.405 27.2641Z" fill="#1A1A1A"/>
<path d="M118.89 32.1066C118.987 34.414 116.878 36.382 114.189 36.4136C111.498 36.4537 109.359 34.5488 109.404 32.2338C109.449 29.9187 111.541 28.0792 114.09 28.0467C116.648 28.0159 118.793 29.7992 118.89 32.1066Z" fill="#7D60DA"/>
<path d="M117.829 32.3748C117.895 34.2113 116.217 35.763 114.08 35.7963C111.953 35.8228 110.245 34.3171 110.268 32.48C110.291 30.643 111.963 29.1605 114.011 29.1362C116.059 29.1119 117.764 30.5383 117.829 32.3748Z" fill="#9F88EA"/>
<path d="M116.079 32.7198C116.117 34.1563 114.797 35.3564 113.137 35.3682C111.478 35.38 110.145 34.2012 110.168 32.7677C110.183 31.3325 111.503 30.1763 113.111 30.1632C114.718 30.15 116.05 31.2848 116.079 32.7198Z" fill="#9F88EA"/>
<path d="M109.968 33.0795C110.305 34.1884 110.9 35.3295 113.191 35.8169C113.189 35.8254 110.885 34.818 110.989 32.7863C110.805 32.1982 109.783 32.4914 109.968 33.0795Z" fill="#7D60DA"/>
<path d="M112.276 29.1772C110.519 29.4158 109.271 32.0151 110.307 32.2333C110.442 32.2595 110.815 32.2353 110.824 31.9651C110.858 30.0689 112.284 29.1788 112.276 29.1772Z" fill="#7D60DA"/>
<path d="M116.485 27.3179C116.335 27.3239 116.185 27.3299 116.036 27.3274C116.023 26.9392 116.019 26.5526 116.007 26.1643C115.993 25.5566 115.445 25.0821 114.785 25.0946C114.283 25.1027 113.782 25.1109 113.272 25.1174C112.648 25.1279 112.137 25.5903 112.141 26.1609C112.141 26.5644 112.142 26.9679 112.143 27.3715C111.994 27.369 111.844 27.375 111.696 27.3725C111.572 27.3749 111.477 27.4616 111.472 27.5748C111.469 27.8635 111.476 28.1454 111.472 28.4341C111.468 28.5473 111.573 28.6378 111.696 28.6354C111.696 28.6354 113.99 28.2027 116.515 28.5688C116.635 28.5833 116.735 28.4712 116.731 28.3564C116.726 28.0661 116.719 27.7842 116.706 27.4922C116.705 27.4044 116.608 27.3155 116.485 27.3179Z" fill="#1A1A1A"/>
<path d="M135.151 30.5469C135.443 32.8396 133.512 34.9821 130.82 35.2501C128.136 35.5281 125.829 33.81 125.67 31.508C125.512 29.1977 127.453 27.1885 130.003 26.9281C132.552 26.6677 134.858 28.2542 135.151 30.5469Z" fill="#FFCE1A"/>
<path d="M134.108 30.9061C134.334 32.7299 132.786 34.4294 130.658 34.6399C128.529 34.8589 126.687 33.5025 126.551 31.6698C126.414 29.8371 127.965 28.217 130.003 28.0154C132.051 27.8071 133.891 29.084 134.108 30.9061Z" fill="#FFD74B"/>
<path d="M132.391 31.3978C132.553 32.8235 131.334 34.1394 129.671 34.2998C128.009 34.4602 126.575 33.4019 126.475 31.9708C126.366 30.5381 127.584 29.2745 129.192 29.1212C130.801 28.9678 132.228 29.9721 132.391 31.3978Z" fill="#FFDE70"/>
<path d="M126.298 32.296C126.738 33.3722 127.422 34.4604 129.762 34.7382C129.76 34.7466 127.372 33.9508 127.302 31.9117C127.07 31.3408 126.066 31.7251 126.298 32.296Z" fill="#FFDE70"/>
<path d="M128.282 28.2083C126.549 28.6004 125.527 31.2962 126.579 31.4299C126.716 31.4476 127.087 31.388 127.069 31.1213C126.937 29.2193 128.282 28.2083 128.282 28.2083Z" fill="#FFDE70"/>
<path d="M132.325 25.9836C132.174 25.9981 132.029 26.0226 131.877 26.037C131.837 25.6523 131.789 25.266 131.75 24.8813C131.682 24.2806 131.099 23.852 130.435 23.9253C129.934 23.9773 129.433 24.0293 128.924 24.0797C128.298 24.1426 127.831 24.6486 127.887 25.2206C127.923 25.6222 127.96 26.0238 127.994 26.4339C127.842 26.4483 127.69 26.4627 127.547 26.4788C127.422 26.4897 127.333 26.5865 127.337 26.7012C127.361 26.9864 127.385 27.2716 127.408 27.5568C127.423 27.6648 127.529 27.7469 127.654 27.736C127.654 27.736 129.916 27.1042 132.467 27.2473C132.588 27.2534 132.682 27.1312 132.668 27.0233C132.636 26.7364 132.604 26.4496 132.57 26.1712C132.557 26.0548 132.442 25.9711 132.325 25.9836Z" fill="#1A1A1A"/>
<path d="M151.562 27.4904C152.063 29.7447 150.308 32.0617 147.632 32.5693C144.962 33.0871 142.5 31.5843 142.143 29.3055C141.778 27.0251 143.544 24.8329 146.076 24.3498C148.607 23.8667 151.06 25.2361 151.562 27.4904Z" fill="#F70000"/>
<path d="M150.545 27.9423C150.932 29.7448 149.527 31.5684 147.414 31.9747C145.301 32.3809 143.337 31.2026 143.04 29.3827C142.744 27.5628 144.151 25.8186 146.183 25.4229C148.212 25.0442 150.166 26.1415 150.545 27.9423Z" fill="#F70000"/>
<path d="M148.867 28.5908C149.156 29.9971 148.048 31.4136 146.401 31.7259C144.753 32.0382 143.223 31.1105 142.99 29.6886C142.757 28.2668 143.863 26.9026 145.465 26.599C147.055 26.3107 148.578 27.1845 148.867 28.5908Z" fill="#F13D20"/>
<path d="M142.837 30.0272C143.375 31.0521 144.158 32.0806 146.528 32.154C146.527 32.1624 144.062 31.5798 143.813 29.5587C143.524 29.0117 142.556 29.4819 142.837 30.0272Z" fill="#F13D20"/>
<path d="M144.465 25.7829C142.763 26.3302 141.98 29.1072 143.044 29.1379C143.184 29.1387 143.551 29.0521 143.506 28.789C143.204 26.9066 144.465 25.7829 144.465 25.7829Z" fill="#F13D20"/>
<path d="M148.323 23.2066C148.176 23.2395 148.021 23.2709 147.876 23.2954C147.801 22.9126 147.724 22.5383 147.649 22.1555C147.527 21.5619 146.906 21.1959 146.25 21.3232C145.749 21.4191 145.248 21.515 144.747 21.611C144.128 21.7279 143.706 22.2775 143.807 22.8407C143.879 23.2404 143.951 23.6401 144.022 24.0399C143.877 24.0644 143.722 24.0957 143.577 24.1202C143.459 24.1412 143.369 24.2464 143.391 24.3561C143.442 24.6377 143.492 24.9193 143.543 25.201C143.566 25.3106 143.674 25.3842 143.802 25.3564C143.802 25.3564 146.016 24.5224 148.585 24.4324C148.708 24.43 148.787 24.2961 148.764 24.1865C148.705 23.9032 148.646 23.6199 148.594 23.3467C148.561 23.2439 148.442 23.1771 148.323 23.2066Z" fill="#1A1A1A"/>
<path d="M167.764 22.9292C168.459 25.1333 166.903 27.6027 164.265 28.3634C161.627 29.1241 159.023 27.8568 158.466 25.6181C157.9 23.3777 159.484 21.0364 161.984 20.3104C164.482 19.5928 167.068 20.7251 167.764 22.9292Z" fill="#7D60DA"/>
<path d="M166.79 23.4771C167.336 25.2313 166.088 27.1907 163.998 27.7944C161.908 28.398 159.839 27.401 159.377 25.6193C158.916 23.8375 160.182 21.9608 162.18 21.383C164.177 20.8052 166.244 21.7228 166.79 23.4771Z" fill="#9F88EA"/>
<path d="M165.152 24.2823C165.56 25.6592 164.574 27.178 162.95 27.6353C161.317 28.0994 159.707 27.314 159.345 25.92C158.984 24.5259 159.978 23.0611 161.556 22.6125C163.132 22.1724 164.743 22.9054 165.152 24.2823Z" fill="#9F88EA"/>
<path d="M159.224 26.2736C159.852 27.2456 160.729 28.1959 163.117 28.0445C163.115 28.053 160.587 27.7037 160.158 25.709C159.827 25.1978 158.895 25.7539 159.224 26.2736Z" fill="#7D60DA"/>
<path d="M160.486 21.888C158.824 22.5921 158.282 25.4335 159.356 25.3695C159.497 25.3619 159.856 25.2297 159.792 24.9718C159.325 23.1276 160.486 21.888 160.486 21.888Z" fill="#7D60DA"/>
<path d="M164.132 18.955C163.983 18.9965 163.842 19.048 163.693 19.0894C163.581 18.717 163.478 18.3461 163.364 17.9822C163.195 17.4058 162.528 17.0924 161.886 17.2838C161.394 17.4252 160.9 17.5751 160.41 17.7081C159.798 17.879 159.42 18.4722 159.568 19.0183C159.677 19.4077 159.786 19.797 159.885 20.1932C159.736 20.2346 159.588 20.276 159.44 20.3175C159.32 20.3469 159.245 20.4639 159.276 20.5751C159.353 20.8532 159.423 21.1297 159.5 21.4078C159.531 21.519 159.652 21.5774 159.773 21.5395C159.773 21.5395 161.919 20.5083 164.492 20.1735C164.618 20.1542 164.689 20.0187 164.656 19.9159C164.578 19.6378 164.49 19.3665 164.413 19.0884C164.382 18.9771 164.251 18.9256 164.132 18.955Z" fill="#1A1A1A"/>
<path d="M183.377 16.9736C184.271 19.1022 182.906 21.714 180.317 22.7208C177.728 23.7277 175.007 22.7009 174.246 20.5192C173.485 18.3374 174.878 15.8538 177.325 14.8984C179.788 13.9548 182.483 14.845 183.377 16.9736Z" fill="#FFCE1A"/>
<path d="M182.439 17.6074C183.134 19.3117 182.05 21.3815 179.993 22.1758C177.945 22.9717 175.769 22.1644 175.157 20.4326C174.545 18.7007 175.649 16.7135 177.613 15.9451C179.592 15.1885 181.741 15.9115 182.439 17.6074Z" fill="#FFD74B"/>
<path d="M180.868 18.5658C181.397 19.9048 180.534 21.509 178.934 22.1198C177.334 22.7306 175.64 22.1045 175.166 20.7499C174.683 19.3937 175.553 17.8436 177.106 17.2499C178.651 16.6546 180.338 17.2268 180.868 18.5658Z" fill="#FFDE70"/>
<path d="M175.08 21.1016C175.797 22.0207 176.752 22.881 179.148 22.5119C179.146 22.5203 176.581 22.4093 175.976 20.4596C175.587 19.9808 174.701 20.616 175.08 21.1016Z" fill="#FFDE70"/>
<path d="M175.966 16.617C174.354 17.471 174.049 20.3583 175.125 20.1896C175.27 20.1651 175.617 20.0043 175.524 19.7583C174.899 17.9624 175.966 16.617 175.966 16.617Z" fill="#FFDE70"/>
<path d="M179.387 13.3511C179.244 13.4111 179.101 13.471 178.959 13.5226C178.819 13.1621 178.678 12.8017 178.529 12.4396C178.304 11.8787 177.616 11.6314 176.981 11.8767C176.497 12.0637 176.012 12.2591 175.529 12.4461C174.922 12.6794 174.6 13.301 174.794 13.8384C174.932 14.2157 175.078 14.5947 175.213 14.9805C175.072 15.032 174.92 15.0904 174.779 15.1419C174.656 15.1882 174.597 15.3085 174.63 15.4112C174.726 15.6842 174.824 15.9486 174.929 16.2232C174.97 16.3276 175.092 16.3775 175.215 16.3312C175.215 16.3312 177.286 15.1013 179.852 14.5284C179.98 14.5006 180.035 14.3534 179.992 14.2574C179.886 13.9913 179.779 13.7252 179.673 13.4591C179.632 13.3547 179.502 13.3031 179.387 13.3511Z" fill="#1A1A1A"/>
<path d="M198.877 9.3827C199.963 11.4257 198.81 14.1662 196.295 15.4242C193.772 16.6805 190.936 15.9296 189.984 13.825C189.033 11.7204 190.214 9.10804 192.602 7.9133C194.999 6.7202 197.799 7.34131 198.877 9.3827Z" fill="#F70000"/>
<path d="M197.991 10.1056C198.842 11.7348 197.922 13.9066 195.922 14.9048C193.923 15.903 191.67 15.3089 190.897 13.6422C190.125 11.967 191.073 9.87944 192.985 8.92566C194.906 7.97353 197.141 8.47652 197.991 10.1056Z" fill="#F70000"/>
<path d="M196.487 11.2173C197.142 12.5015 196.412 14.1842 194.852 14.9518C193.292 15.7194 191.531 15.2557 190.934 13.9475C190.337 12.6393 191.075 11.0022 192.586 10.2602C194.088 9.52504 195.833 9.9331 196.487 11.2173Z" fill="#F13D20"/>
<path d="M190.87 14.321C191.672 15.1603 192.715 15.9323 195.086 15.3303C195.084 15.3387 192.488 15.4761 191.703 13.5967C191.282 13.1468 190.449 13.8711 190.87 14.321Z" fill="#F13D20"/>
<path d="M191.378 9.75432C189.832 10.7616 189.767 13.6778 190.838 13.4028C190.976 13.3682 191.313 13.1703 191.21 12.9311C190.423 11.2003 191.378 9.75432 191.378 9.75432Z" fill="#F13D20"/>
<path d="M194.538 6.15742C194.402 6.22748 194.256 6.30435 194.119 6.3744C193.94 6.03276 193.771 5.6843 193.591 5.34266C193.318 4.80743 192.599 4.62442 191.978 4.9338C191.502 5.17477 191.036 5.40892 190.561 5.64143C189.97 5.93037 189.695 6.57868 189.945 7.10055C190.119 7.46754 190.294 7.83454 190.47 8.19308C190.325 8.2615 190.189 8.33155 190.044 8.39997C189.928 8.4564 189.876 8.58672 189.919 8.68269C190.044 8.94362 190.16 9.20292 190.285 9.46385C190.337 9.56146 190.468 9.60455 190.585 9.54813C190.585 9.54813 192.563 8.11615 195.099 7.29194C195.22 7.25406 195.267 7.1052 195.217 6.99914C195.082 6.74502 194.956 6.49254 194.822 6.22997C194.79 6.12718 194.654 6.101 194.538 6.15742Z" fill="#1A1A1A"/>
<path d="M213.883 0.222951C215.149 2.15176 214.226 5.01577 211.785 6.52486C209.343 8.0424 206.418 7.57233 205.281 5.56338C204.136 3.55279 205.102 0.828648 207.415 -0.608751C209.726 -2.0377 212.616 -1.70586 213.883 0.222951Z" fill="#7D60DA"/>
<path d="M213.049 1.0435C214.047 2.5873 213.301 4.85425 211.369 6.04958C209.435 7.25337 207.104 6.88096 206.184 5.29109C205.265 3.70121 206.038 1.51851 207.892 0.369248C209.744 -0.771565 212.05 -0.500313 213.049 1.0435Z" fill="#9F88EA"/>
<path d="M211.62 2.31006C212.383 3.52777 211.796 5.29061 210.286 6.20817C208.774 7.13417 206.962 6.84471 206.239 5.59974C205.515 4.35478 206.126 2.64919 207.589 1.74881C209.051 0.856877 210.856 1.09236 211.62 2.31006Z" fill="#9F88EA"/>
<path d="M206.209 5.9798C207.086 6.74602 208.212 7.41112 210.551 6.55772C210.55 6.56618 207.939 6.96368 206.989 5.16632C206.532 4.76221 205.744 5.57406 206.209 5.9798Z" fill="#7D60DA"/>
<path d="M206.331 1.36479C204.851 2.53373 205.049 5.4483 206.105 5.06535C206.247 5.01383 206.571 4.78731 206.44 4.56018C205.489 2.90296 206.331 1.36479 206.331 1.36479Z" fill="#7D60DA"/>
<path d="M209.221 -2.55632C209.09 -2.46773 208.95 -2.38077 208.812 -2.30226C208.604 -2.63191 208.403 -2.95147 208.195 -3.28112C207.873 -3.79072 207.131 -3.89931 206.532 -3.52422C206.073 -3.23608 205.616 -2.9564 205.167 -2.67508C204.6 -2.32889 204.371 -1.64539 204.671 -1.1576C204.876 -0.811054 205.089 -0.462866 205.294 -0.116315C205.156 -0.0378086 205.025 0.0507858 204.887 0.129292C204.777 0.195805 204.726 0.32612 204.785 0.425369C204.93 0.672671 205.075 0.919974 205.22 1.16728C205.28 1.26652 205.417 1.28426 205.526 1.21775C205.526 1.21775 207.402 -0.409454 209.893 -1.49676C210.017 -1.55155 210.047 -1.70368 209.985 -1.79448C209.83 -2.03497 209.675 -2.27546 209.522 -2.52439C209.467 -2.6051 209.33 -2.62283 209.221 -2.55632Z" fill="#1A1A1A"/>
<path d="M-45.7866 -60.2185C-34.4798 -43.3499 -20.7936 -28.0813 -4.99371 -15.3058C9.89676 -3.26757 26.5902 6.52426 44.4396 13.4709C61.9066 20.2646 80.3968 24.3101 99.1035 25.3811C118.114 26.4672 137.251 24.456 155.651 19.5488C175.105 14.3633 193.637 5.96537 210.551 -4.93826C212.754 -6.35305 214.923 -7.81827 217.071 -9.31376C217.547 -9.64251 217.043 -10.3891 216.567 -10.0603C199.958 1.53369 181.687 10.71 162.315 16.7003C144.118 22.3222 125.063 25.0859 106.013 24.7463C87.269 24.4133 68.5822 21.0663 50.8809 14.8937C33.0156 8.663 16.1544 -0.398429 1.01823 -11.7564C-14.9203 -23.7258 -28.9189 -38.1956 -40.5945 -54.3375C-42.1167 -56.4387 -43.5901 -58.5655 -45.0401 -60.7228C-45.3588 -61.2054 -46.1053 -60.7011 -45.7866 -60.2185Z" fill="#1A1A1A"/>
</g>
<defs>
<clipPath id="clip0_12901_66790">
<rect width="661" height="58" fill="white"/>
</clipPath>
</defs>
</svg>
